<svg width="32" height="27" viewBox="0 0 32 27" fill="none" xmlns="http://www.w3.org/2000/svg">
<path d="M21.9242 3.34606L23.4267 7.34605L22.5062 11.5339L29.4709 12.9555L29.4704 18.3461L24.9273 19.346L16.3726 26.3531L10.7069 20.3147L6.32794 17.3023L2.01559 14.5793L2.06624 7.77518L8.4885 6.65536L14.4247 11.0337L14.4241 7.8463L15.4246 3.84567L18.924 1.84583L21.9242 3.34606ZM3.27001 13.894L6.99497 16.2456L7.01634 16.2583L7.03607 16.2724L11.5262 19.3612L11.6188 19.4596L16.1575 24.2977C16.1715 24.2295 16.1865 24.1598 16.2011 24.089C16.4448 22.9074 16.7625 21.366 17.0838 19.808L3.30329 9.48264L3.27001 13.894ZM18.3303 19.9501C18.0501 21.3086 17.7716 22.6607 17.541 23.779L24.3665 18.1889L28.2199 17.3414L28.2198 14.3777L18.3303 19.9501ZM21.8412 13.3268C21.1413 14.1625 20.1632 15.3055 19.0273 16.5699C18.9133 17.1228 18.7916 17.7159 18.6656 18.3268L26.8734 13.7008L22.3025 12.7679C22.1658 12.9333 22.0129 13.1217 21.8412 13.3268ZM17.3628 18.4541C17.5095 17.7427 17.6521 17.0489 17.7845 16.4068C16.9866 15.1977 16.2672 14.2159 15.6737 13.4566L15.6741 13.5099L8.1765 7.97838L4.28494 8.65618L17.3628 18.4541ZM19.1309 14.5673C19.816 13.7845 20.4136 13.0855 20.8831 12.5247C20.9425 12.4539 20.9978 12.3835 21.053 12.3172L22.1264 7.43943L20.9265 4.24412L19.4935 3.52782L19.1309 14.5673ZM16.5064 4.66656L15.6741 7.99852L15.6739 11.4834C15.789 11.6173 15.9159 11.7657 16.0518 11.9303C16.5463 12.5289 17.1718 13.3315 17.8874 14.3419L18.2386 3.67714L16.5064 4.66656Z" fill="#3F3F3F"/>
</svg>
