<svg width="31" height="25" viewBox="0 0 31 25" fill="none" xmlns="http://www.w3.org/2000/svg">
<path d="M6.55588 2.49744C1.89871 5.41959 0.81051 8.58525 0.848558 9.80281C0.575089 11.3068 0.411667 13.3634 1.22273 16.32C1.54019 17.4773 2.00695 18.6192 2.67484 19.6467C5.04909 23.2994 14.0895 23.9843 18.3129 23.8701C22.9549 24.0604 29.9048 22.732 29.9961 14.4222C30.0874 6.11229 26.5337 2.58897 24.7454 1.86604C19.8371 0.648479 11.2131 -0.424708 6.55588 2.49744Z" stroke="#3F3F3F" stroke-width="1.25"/>
<path d="M23.1793 9.85331L22.6215 9.81538C19.7382 9.61822 16.8503 10.1352 14.2148 11.3212L13.4331 11.673L12.9497 11.8909L12.7606 11.3955L11.6345 8.44057L11.4749 8.02019L11.8758 7.8165L12.717 7.39085C15.7677 5.84508 19.2269 5.29715 22.6058 5.82516L23.0112 5.88812L23.1793 9.85331Z" stroke="#3F3F3F"/>
</svg>
