<svg width="26" height="19" viewBox="0 0 26 19" fill="none" xmlns="http://www.w3.org/2000/svg">
<path d="M2.42772 13.7035C1.10951 11.9987 0.643472 10.1991 0.643473 9.64445C0.578334 8.73254 0.480631 4.75921 4.29113 2.80511C6.42746 1.65216 8.14893 1.04648 9.94724 0.78587M2.42772 13.7035C4.87497 12.0918 9.80502 7.25173 9.94724 0.78587M2.42772 13.7035C2.98176 14.4201 3.68632 15.1199 4.57008 15.7035M9.94724 0.78587C11.0986 0.619007 12.2815 0.593606 13.625 0.656595M4.57008 15.7035C5.28752 16.1773 6.12304 16.5746 7.092 16.8421C9.02525 17.3757 9.21432 17.5914 10.625 17.6887M4.57008 15.7035C7.75506 13.1722 14.025 6.61904 13.625 0.656595M13.625 0.656595C14.2138 0.6842 14.8333 0.72878 15.4946 0.78587C16.5971 0.881044 17.655 1.20598 18.625 1.65025M10.625 17.6887C13.9583 15.309 19.125 7.69092 18.625 1.65025M10.625 17.6887C11.8381 17.7724 13.453 17.7836 14.2327 17.6883M18.625 1.65025C20.1512 2.34928 20.8946 2.81813 21.8154 3.67791M14.2327 17.6883C14.8924 17.6077 16.2814 17.484 16.602 17.3631C19.012 16.6791 23.311 14.8228 24.2881 11.1752C25.2651 7.52752 23.8538 6.06194 23.3762 5.24773C23.1819 4.91652 22.3304 4.1588 21.8154 3.67791M14.2327 17.6883C16.9028 15.8609 22.5601 9.66528 21.8154 3.67791" stroke="#3F3F3F" stroke-width="1.25"/>
</svg>
