<svg width="27" height="26" viewBox="0 0 27 26" fill="none" xmlns="http://www.w3.org/2000/svg">
<path d="M0.734042 10.1702L0.626064 16.7557C0.55403 21.1491 4.14848 24.7218 8.54135 24.623L13.8402 24.5039C19.2107 24.3831 23.9723 20.7616 25.1106 15.5118C26.4563 9.30543 27.1705 2.92291 24.4448 1.52077C21.5682 0.0410045 14.2574 0.633562 8.0049 1.58447C3.79067 2.2254 0.803923 5.90805 0.734042 10.1702Z" stroke="#3F3F3F" stroke-width="1.25"/>
<path opacity="0.5" d="M3.77659 10.8503L3.69611 15.7592C3.64241 19.0341 6.32173 21.6971 9.59619 21.6235L13.546 21.5347C17.5492 21.4447 21.0985 18.7452 21.947 14.832C22.9501 10.2057 23.4825 5.44816 21.4507 4.403C19.3065 3.29998 13.8569 3.74167 9.19632 4.45049C6.05501 4.92824 3.82868 7.6733 3.77659 10.8503Z" fill="#3F3F3F" stroke="url(#paint0_linear_1388_725)" stroke-width="0.931756"/>
<defs>
<linearGradient id="paint0_linear_1388_725" x1="13.2661" y1="3.73529" x2="13.2661" y2="21.625" gradientUnits="userSpaceOnUse">
<stop offset="0.620194" stop-color="#3F3F3F"/>
<stop offset="1" stop-color="#DADADA"/>
</linearGradient>
</defs>
</svg>
