<svg width="446" height="411" viewBox="0 0 446 411" fill="none" xmlns="http://www.w3.org/2000/svg">
<mask id="path-1-inside-1_1552_3566" fill="white">
<path d="M234.268 2.03717C241.088 4.30115 246.471 8.10336 250.42 13.4438C254.025 18.1059 256.354 23.3319 257.407 29.122C257.951 36.1388 257.704 43.1319 256.667 50.1013C256.632 50.3458 256.614 50.5608 256.614 50.7462C256.615 50.8302 256.639 50.9123 256.684 50.9832C256.729 51.0541 256.793 51.111 256.869 51.1473C256.945 51.1836 257.029 51.198 257.113 51.1888C257.196 51.1796 257.276 51.1472 257.342 51.0952L258.448 50.2137C258.514 50.1632 258.588 50.1262 258.668 50.1048C258.747 50.0835 258.829 50.0783 258.909 50.0894C262.24 50.5805 261.335 54.9112 261.004 57.9167C259.896 62.7523 258.091 68.5266 255.59 75.2397C254.837 77.2591 253.472 78.0342 251.496 77.5648C251.46 77.5562 251.423 77.5551 251.386 77.5616C251.349 77.568 251.314 77.582 251.283 77.6025C251.252 77.623 251.226 77.6497 251.205 77.6808C251.185 77.712 251.171 77.747 251.165 77.7837L250.78 80.1207C249.7 85.118 247.773 89.6025 245 93.5743C244.737 93.9536 244.584 94.3999 244.556 94.8641C244.415 97.5817 244.379 100.491 244.45 103.591C244.622 110.814 246.213 115.619 251.745 119.719C258.927 125.049 267.737 129.031 275.422 132.663C277.015 133.417 278.654 134.042 280.338 134.539C281.823 134.983 283.326 135.438 284.876 135.71C291.751 136.901 298.208 139.298 304.246 142.899C309.551 146.058 313.261 150.529 315.375 156.311C317.284 161.529 318.572 167.564 319.238 174.415C319.859 183.201 319.676 191.395 319.546 202.89C319.696 205.513 319.918 207.69 320.214 209.422C321.291 215.772 322.756 223.51 324.61 232.637C325.434 238.009 325.906 241.6 326.024 243.411C326.486 250.4 327.288 256.328 328.432 261.195C329.586 264.852 331.881 266.887 334.727 269.525C337.614 272.2 339.969 274.844 342.489 277.684L350.139 287.943C355.787 296.301 359.633 301.919 361.676 304.799C366.922 312.198 372.867 319.414 379.513 326.446C380.969 327.988 382.629 329.389 384.495 330.647C385.471 331.304 386.394 331.44 387.589 331.026C392.768 329.235 398.014 328.089 403.327 327.588L406.669 327.144C406.854 327.121 407.035 327.071 407.208 326.997C408.821 326.298 410.261 325.898 411.527 325.796C415.976 325.441 418.739 325.245 419.815 325.21C422.85 325.121 423.732 326.156 423.028 329.191C423.006 329.285 423.002 329.382 423.019 329.477C423.035 329.571 423.07 329.661 423.123 329.742C424.708 332.25 426.189 334.788 427.566 337.356C428.761 339.586 429.595 343.172 430.264 345.166C431.175 347.905 431.222 349.496 429.151 351.419C428.717 351.821 427.438 352.944 425.312 354.785C425.231 354.854 425.171 354.942 425.135 355.042C425.099 355.141 425.091 355.248 425.109 355.352C425.127 355.457 425.173 355.555 425.24 355.637C425.308 355.719 425.396 355.782 425.495 355.821C428.09 356.807 430.441 357.349 432.547 357.448C434.646 357.467 436.734 357.395 438.813 357.229C441.256 357.034 442.954 357.14 444.711 358.548C446.066 359.631 446.516 361.554 445.261 362.826C444.922 363.165 444.102 363.441 442.8 363.654C439.302 364.218 435.77 365.389 432.204 367.168C432.179 367.18 432.157 367.198 432.14 367.221C432.124 367.243 432.113 367.27 432.11 367.298C432.106 367.325 432.11 367.353 432.12 367.38C432.13 367.406 432.147 367.429 432.169 367.446C433.867 368.831 435.15 371.067 432.879 372.623C432.72 372.728 432.536 372.789 432.346 372.801C431.435 372.848 430.828 372.84 430.524 372.777C426.97 372.012 424.629 371.531 423.501 371.333C423.344 371.306 423.182 371.315 423.029 371.362C422.876 371.408 422.736 371.489 422.62 371.6C420.904 373.238 418.39 373.055 416.23 372.363C414.408 371.771 411.136 370.718 408.438 370.044C404.79 369.125 401.106 367.754 397.387 365.932C397.342 365.909 397.292 365.901 397.242 365.91C397.193 365.919 397.148 365.944 397.115 365.982C397.082 366.019 397.062 366.066 397.059 366.116C397.055 366.166 397.069 366.216 397.097 366.257C399.144 369.464 400.984 372.907 401.286 376.676C401.463 378.924 401.327 382.162 400.877 386.39C399.954 393.437 396.097 397.454 391.21 402.358C390.074 403.467 388.889 404.551 387.654 405.612C382.844 409.724 377.691 410.239 371.55 410.186C368.627 410.292 366.521 410.257 365.232 410.079C357.611 409.05 349.954 408.164 342.258 407.423C332.09 406.737 321.946 405.611 311.825 404.045L302.672 402.329L280.906 397.034L251.283 388.656C244.523 386.191 237.597 384.205 230.505 382.699C226.855 381.924 222.861 381.385 219.164 382.083C209.017 383.539 200.468 386.538 189.629 389.952C174.866 394.314 160.975 398.073 147.955 401.228C142.405 402.573 136.231 403.755 129.431 404.772C126.28 405.313 123.085 405.737 119.847 406.044C112.767 406.723 105.643 407.403 98.4768 408.086C91.9965 408.784 85.4688 409.452 78.8938 410.091C78.105 410.166 77.3161 410.174 76.5273 410.115C73.4153 409.874 70.3034 409.567 67.1914 409.192C64.5882 408.565 62.908 408.084 62.1507 407.748C60.1194 406.857 58.0408 405.311 55.9149 403.11C53.3906 400.751 51.0773 398.241 48.975 395.578C45.6737 391.396 44.739 388.213 44.6029 383.19C44.4195 376.646 44.384 371.061 47.9042 365.731C47.9389 365.681 47.9557 365.621 47.9519 365.561C47.9481 365.501 47.9239 365.444 47.8833 365.399C47.8427 365.354 47.7881 365.325 47.7285 365.315C47.6688 365.305 47.6077 365.316 47.5551 365.346C43.6701 367.413 39.4103 369.042 34.7759 370.233C31.1551 371.168 29.6524 371.611 26.5877 371.623C26.2828 371.627 25.9777 371.573 25.6884 371.464C24.0279 370.829 23.0261 370.539 22.6829 370.594C21.1526 370.842 19.0799 371.233 16.4649 371.765C15.609 371.939 14.6466 371.874 13.5777 371.57C10.3652 370.665 12.1697 367.671 13.7434 366.358C13.7725 366.335 13.7946 366.305 13.8077 366.27C13.8207 366.236 13.824 366.198 13.8174 366.161C13.8107 366.124 13.7944 366.09 13.7699 366.061C13.7455 366.032 13.7138 366.01 13.6783 365.997L7.975 364.086C6.44465 363.514 4.60862 363.06 2.46691 362.725C0.236465 362.376 -0.74564 360.234 0.638776 358.359C2.31901 356.075 5.85105 356.182 8.38915 356.537C11.5366 356.904 13.5896 356.978 14.548 356.762C16.6306 356.288 18.7348 355.695 20.8607 354.981C20.9274 354.959 20.9881 354.921 21.0383 354.872C21.0886 354.823 21.127 354.763 21.1509 354.697C21.1748 354.63 21.1834 354.559 21.1762 354.488C21.169 354.418 21.1461 354.349 21.1092 354.288C19.074 350.999 15.4118 350.046 15.8792 346.171C17.1985 339.155 20.2928 333.96 23.9076 329.126C24.03 328.964 24.101 328.768 24.1115 328.564C24.1221 328.361 24.0717 328.159 23.9668 327.985C23.2411 326.782 23.3081 325.764 24.1679 324.932C24.728 324.387 25.4143 324.184 26.2268 324.322C30.0488 324.961 33.9082 325.431 37.805 325.73C41.1537 326.766 45.5258 327.121 47.916 327.647C50.4245 328.196 53.3551 329.051 56.7077 330.215C59.1748 331.073 61.3401 330.83 63.4227 328.978C64.882 327.677 66.0811 326.507 67.0198 325.47C77.6159 313.762 85.9875 302.284 95.6725 287.623L99.3524 282.399C103.612 276.984 108.168 272.014 113.019 267.49C115.11 265.542 116.439 263.177 117.007 260.397L120.704 232.691C121.927 225.977 123.102 219.215 124.231 212.403C124.779 209.098 125.165 205.767 125.39 202.411C125.445 199.961 125.364 196.274 125.148 191.347C124.962 187.147 125.08 181.923 125.503 175.675C125.688 167.696 127.362 160.168 130.525 153.092C132.399 149.476 134.754 146.644 137.59 144.597C142.453 141.094 148.113 138.463 154.569 136.704C155.757 136.381 157.555 135.982 159.965 135.509C163.396 134.929 166.962 133.742 170.662 131.948C180.311 127.256 185.429 124.949 192.493 120.074C196.453 117.34 198.829 113.806 199.622 109.471C200.297 105.815 200.297 100.035 199.947 95.6273C199.901 95.0432 199.694 94.4824 199.35 94.0062C197.78 91.8527 196.415 89.4349 195.256 86.7528L192.943 77.9494C192.922 77.8754 192.878 77.8099 192.819 77.7621C192.76 77.7144 192.687 77.6867 192.611 77.6831L189.819 77.5826C188.423 75.0622 187.001 71.6603 185.553 67.3769C184.129 63.1684 183.2 59.7153 182.767 57.0175C182.554 55.2248 182.287 53.1423 182.903 51.397C183.246 50.4208 184.382 50.0895 185.198 50.2788C185.372 50.3174 185.532 50.4034 185.66 50.5273L186.725 51.5508C186.762 51.5876 186.81 51.6117 186.862 51.6195C186.914 51.6274 186.967 51.6188 187.014 51.5949C187.061 51.5709 187.1 51.5328 187.126 51.4858C187.151 51.4387 187.162 51.385 187.156 51.3319C186.912 49.2691 186.683 47.2792 186.47 45.3623C185.815 39.4697 185.944 33.6894 186.855 28.0216C187.722 23.9472 189.127 20.214 191.067 16.822C195.177 9.62779 201.476 4.52793 209.964 1.52245C217.971 -0.666589 226.072 -0.49501 234.268 2.03717ZM280.504 297.734C281.297 301.284 281.904 303.558 282.326 304.556C285.383 311.837 286.978 315.623 287.113 315.915C289.615 321.423 295.46 322.506 301.193 323.601C301.419 323.642 301.651 323.605 301.85 323.494C306.311 321.057 312.559 320.299 316.984 323.352C318.85 324.638 320.185 325.567 320.989 326.139C321.216 326.3 321.489 326.389 321.77 326.393L325.456 326.434C325.586 326.434 325.715 326.448 325.841 326.476C329.028 327.178 331.629 327.866 333.644 328.541C335.798 329.268 338.17 331.085 338.052 333.51C338.052 333.538 338.016 334.141 337.945 335.321C337.939 335.407 337.965 335.493 338.02 335.561C338.075 335.629 338.154 335.674 338.241 335.688C344.505 336.654 350.585 338.155 356.481 340.19C359.084 341.089 362.421 342.752 365.285 343.775C365.326 343.791 365.371 343.793 365.414 343.783C365.457 343.773 365.497 343.751 365.527 343.719C365.557 343.686 365.577 343.646 365.585 343.602C365.592 343.559 365.587 343.514 365.569 343.473C365.454 343.197 365.198 342.88 364.8 342.521C364.117 341.914 360.871 339.237 355.061 334.492C347.956 328.689 342.726 324.991 335.549 319.234C331.526 316.012 327.765 312.724 324.267 309.372C318.205 303.574 311.649 296.865 304.601 289.245C302.16 286.669 300.515 284.018 299.667 281.293C299.229 279.885 298.359 276.398 297.058 270.833C296.249 267.394 295.403 263.964 294.52 260.544L287.882 232.146C287.152 227.973 286.521 223.735 285.988 219.432C285.978 219.354 285.952 219.278 285.91 219.211C285.869 219.143 285.814 219.085 285.748 219.04C285.683 218.996 285.609 218.965 285.531 218.951C285.453 218.937 285.373 218.94 285.296 218.959C285.012 219.026 284.841 219.154 284.781 219.343C283.618 222.814 282.101 226.78 280.232 231.241C278.629 235.051 277.99 237.855 277.291 241.535C275.233 252.35 273.73 262.006 274.647 272.146C274.844 274.316 275.511 277.532 276.647 281.796C278.055 287.073 279.34 292.386 280.504 297.734ZM127.916 302.367C123.203 307.191 118.074 311.975 112.528 316.72C102.167 324.498 91.821 332.733 81.4911 341.426C80.6313 342.148 79.945 342.835 79.4322 343.485C79.3986 343.526 79.3799 343.577 79.3791 343.629C79.3784 343.682 79.3957 343.733 79.4282 343.775C79.4607 343.816 79.5064 343.845 79.5577 343.857C79.609 343.869 79.6628 343.863 79.7103 343.84C88.5907 339.918 97.3941 336.954 107.002 335.599C107.056 335.591 107.107 335.573 107.153 335.544C107.199 335.516 107.238 335.478 107.269 335.434C107.299 335.389 107.32 335.339 107.33 335.286C107.341 335.233 107.34 335.178 107.328 335.126C106.162 330.203 111.445 327.701 115.616 327.57C117.955 327.495 120.138 327.127 122.166 326.464C122.479 326.362 122.771 326.208 123.03 326.008C125.432 324.121 127.212 322.524 130.058 321.317C133.604 320.347 136.905 320.512 139.962 321.814C140.487 322.039 141.778 322.672 143.837 323.713C143.919 323.754 144.009 323.777 144.102 323.781C144.195 323.785 144.288 323.77 144.376 323.737C145.137 323.441 147.389 322.725 151.132 321.589C152.43 321.191 154.118 320.305 156.196 318.933C159.655 312.693 162.154 306.416 163.692 300.101C165.589 292.339 166.763 287.651 167.213 286.038C168.53 281.344 169.303 278.148 169.532 276.448C170.21 271.391 170.514 268.121 170.443 266.638C169.914 256.19 168.445 245.829 166.035 235.554C165.846 234.734 165.497 233.698 164.988 232.448C162.397 226.066 160.736 221.86 160.006 219.828C159.9 219.541 159.715 219.329 159.45 219.195C159.409 219.174 159.363 219.164 159.316 219.165C159.27 219.165 159.224 219.178 159.183 219.2C159.141 219.223 159.106 219.255 159.079 219.295C159.053 219.334 159.036 219.379 159.03 219.426C158.387 225.129 157.413 230.868 156.108 236.643C154.522 243.655 151.146 257.73 145.979 278.867C145.076 282.563 143.374 285.837 140.873 288.688C137.607 292.412 133.288 296.971 127.916 302.367ZM28.0017 333.646C27.5757 334.723 26.7869 336.826 25.6352 339.953C25.0199 341.633 25.0021 343.036 24.6235 344.68C24.5884 344.832 24.5988 344.991 24.6536 345.136C24.7084 345.282 24.805 345.407 24.9312 345.497L27.3687 347.248C27.4493 347.306 27.5438 347.341 27.6425 347.35C27.7412 347.36 27.8407 347.343 27.9307 347.301C30.3091 346.195 35.332 342.74 34.9889 339.847C34.839 338.62 34.5037 337.32 33.9831 335.948C33.8529 335.608 33.6456 335.304 33.3775 335.058C33.1095 334.813 32.7882 334.633 32.4389 334.534L28.4987 333.398C28.3998 333.37 28.2942 333.381 28.2023 333.427C28.1105 333.472 28.039 333.551 28.0017 333.646ZM417.934 333.676L414.029 335.126C413.691 335.251 413.412 335.498 413.248 335.818C411.99 338.275 411.929 340.476 413.065 342.42C414.075 344.152 415.717 345.761 417.993 347.248C418.157 347.354 418.341 347.424 418.532 347.454C418.724 347.483 418.919 347.472 419.105 347.42C420.166 347.12 421.042 346.658 421.732 346.035C421.839 345.941 421.921 345.821 421.969 345.688C422.018 345.554 422.032 345.411 422.01 345.272C421.403 341.233 420.293 337.47 418.679 333.984C418.616 333.849 418.504 333.742 418.366 333.685C418.229 333.628 418.074 333.625 417.934 333.676Z"/>
</mask>
<path d="M234.268 2.03717C241.088 4.30115 246.471 8.10336 250.42 13.4438C254.025 18.1059 256.354 23.3319 257.407 29.122C257.951 36.1388 257.704 43.1319 256.667 50.1013C256.632 50.3458 256.614 50.5608 256.614 50.7462C256.615 50.8302 256.639 50.9123 256.684 50.9832C256.729 51.0541 256.793 51.111 256.869 51.1473C256.945 51.1836 257.029 51.198 257.113 51.1888C257.196 51.1796 257.276 51.1472 257.342 51.0952L258.448 50.2137C258.514 50.1632 258.588 50.1262 258.668 50.1048C258.747 50.0835 258.829 50.0783 258.909 50.0894C262.24 50.5805 261.335 54.9112 261.004 57.9167C259.896 62.7523 258.091 68.5266 255.59 75.2397C254.837 77.2591 253.472 78.0342 251.496 77.5648C251.46 77.5562 251.423 77.5551 251.386 77.5616C251.349 77.568 251.314 77.582 251.283 77.6025C251.252 77.623 251.226 77.6497 251.205 77.6808C251.185 77.712 251.171 77.747 251.165 77.7837L250.78 80.1207C249.7 85.118 247.773 89.6025 245 93.5743C244.737 93.9536 244.584 94.3999 244.556 94.8641C244.415 97.5817 244.379 100.491 244.45 103.591C244.622 110.814 246.213 115.619 251.745 119.719C258.927 125.049 267.737 129.031 275.422 132.663C277.015 133.417 278.654 134.042 280.338 134.539C281.823 134.983 283.326 135.438 284.876 135.71C291.751 136.901 298.208 139.298 304.246 142.899C309.551 146.058 313.261 150.529 315.375 156.311C317.284 161.529 318.572 167.564 319.238 174.415C319.859 183.201 319.676 191.395 319.546 202.89C319.696 205.513 319.918 207.69 320.214 209.422C321.291 215.772 322.756 223.51 324.61 232.637C325.434 238.009 325.906 241.6 326.024 243.411C326.486 250.4 327.288 256.328 328.432 261.195C329.586 264.852 331.881 266.887 334.727 269.525C337.614 272.2 339.969 274.844 342.489 277.684L350.139 287.943C355.787 296.301 359.633 301.919 361.676 304.799C366.922 312.198 372.867 319.414 379.513 326.446C380.969 327.988 382.629 329.389 384.495 330.647C385.471 331.304 386.394 331.44 387.589 331.026C392.768 329.235 398.014 328.089 403.327 327.588L406.669 327.144C406.854 327.121 407.035 327.071 407.208 326.997C408.821 326.298 410.261 325.898 411.527 325.796C415.976 325.441 418.739 325.245 419.815 325.21C422.85 325.121 423.732 326.156 423.028 329.191C423.006 329.285 423.002 329.382 423.019 329.477C423.035 329.571 423.07 329.661 423.123 329.742C424.708 332.25 426.189 334.788 427.566 337.356C428.761 339.586 429.595 343.172 430.264 345.166C431.175 347.905 431.222 349.496 429.151 351.419C428.717 351.821 427.438 352.944 425.312 354.785C425.231 354.854 425.171 354.942 425.135 355.042C425.099 355.141 425.091 355.248 425.109 355.352C425.127 355.457 425.173 355.555 425.24 355.637C425.308 355.719 425.396 355.782 425.495 355.821C428.09 356.807 430.441 357.349 432.547 357.448C434.646 357.467 436.734 357.395 438.813 357.229C441.256 357.034 442.954 357.14 444.711 358.548C446.066 359.631 446.516 361.554 445.261 362.826C444.922 363.165 444.102 363.441 442.8 363.654C439.302 364.218 435.77 365.389 432.204 367.168C432.179 367.18 432.157 367.198 432.14 367.221C432.124 367.243 432.113 367.27 432.11 367.298C432.106 367.325 432.11 367.353 432.12 367.38C432.13 367.406 432.147 367.429 432.169 367.446C433.867 368.831 435.15 371.067 432.879 372.623C432.72 372.728 432.536 372.789 432.346 372.801C431.435 372.848 430.828 372.84 430.524 372.777C426.97 372.012 424.629 371.531 423.501 371.333C423.344 371.306 423.182 371.315 423.029 371.362C422.876 371.408 422.736 371.489 422.62 371.6C420.904 373.238 418.39 373.055 416.23 372.363C414.408 371.771 411.136 370.718 408.438 370.044C404.79 369.125 401.106 367.754 397.387 365.932C397.342 365.909 397.292 365.901 397.242 365.91C397.193 365.919 397.148 365.944 397.115 365.982C397.082 366.019 397.062 366.066 397.059 366.116C397.055 366.166 397.069 366.216 397.097 366.257C399.144 369.464 400.984 372.907 401.286 376.676C401.463 378.924 401.327 382.162 400.877 386.39C399.954 393.437 396.097 397.454 391.21 402.358C390.074 403.467 388.889 404.551 387.654 405.612C382.844 409.724 377.691 410.239 371.55 410.186C368.627 410.292 366.521 410.257 365.232 410.079C357.611 409.05 349.954 408.164 342.258 407.423C332.09 406.737 321.946 405.611 311.825 404.045L302.672 402.329L280.906 397.034L251.283 388.656C244.523 386.191 237.597 384.205 230.505 382.699C226.855 381.924 222.861 381.385 219.164 382.083C209.017 383.539 200.468 386.538 189.629 389.952C174.866 394.314 160.975 398.073 147.955 401.228C142.405 402.573 136.231 403.755 129.431 404.772C126.28 405.313 123.085 405.737 119.847 406.044C112.767 406.723 105.643 407.403 98.4768 408.086C91.9965 408.784 85.4688 409.452 78.8938 410.091C78.105 410.166 77.3161 410.174 76.5273 410.115C73.4153 409.874 70.3034 409.567 67.1914 409.192C64.5882 408.565 62.908 408.084 62.1507 407.748C60.1194 406.857 58.0408 405.311 55.9149 403.11C53.3906 400.751 51.0773 398.241 48.975 395.578C45.6737 391.396 44.739 388.213 44.6029 383.19C44.4195 376.646 44.384 371.061 47.9042 365.731C47.9389 365.681 47.9557 365.621 47.9519 365.561C47.9481 365.501 47.9239 365.444 47.8833 365.399C47.8427 365.354 47.7881 365.325 47.7285 365.315C47.6688 365.305 47.6077 365.316 47.5551 365.346C43.6701 367.413 39.4103 369.042 34.7759 370.233C31.1551 371.168 29.6524 371.611 26.5877 371.623C26.2828 371.627 25.9777 371.573 25.6884 371.464C24.0279 370.829 23.0261 370.539 22.6829 370.594C21.1526 370.842 19.0799 371.233 16.4649 371.765C15.609 371.939 14.6466 371.874 13.5777 371.57C10.3652 370.665 12.1697 367.671 13.7434 366.358C13.7725 366.335 13.7946 366.305 13.8077 366.27C13.8207 366.236 13.824 366.198 13.8174 366.161C13.8107 366.124 13.7944 366.09 13.7699 366.061C13.7455 366.032 13.7138 366.01 13.6783 365.997L7.975 364.086C6.44465 363.514 4.60862 363.06 2.46691 362.725C0.236465 362.376 -0.74564 360.234 0.638776 358.359C2.31901 356.075 5.85105 356.182 8.38915 356.537C11.5366 356.904 13.5896 356.978 14.548 356.762C16.6306 356.288 18.7348 355.695 20.8607 354.981C20.9274 354.959 20.9881 354.921 21.0383 354.872C21.0886 354.823 21.127 354.763 21.1509 354.697C21.1748 354.63 21.1834 354.559 21.1762 354.488C21.169 354.418 21.1461 354.349 21.1092 354.288C19.074 350.999 15.4118 350.046 15.8792 346.171C17.1985 339.155 20.2928 333.96 23.9076 329.126C24.03 328.964 24.101 328.768 24.1115 328.564C24.1221 328.361 24.0717 328.159 23.9668 327.985C23.2411 326.782 23.3081 325.764 24.1679 324.932C24.728 324.387 25.4143 324.184 26.2268 324.322C30.0488 324.961 33.9082 325.431 37.805 325.73C41.1537 326.766 45.5258 327.121 47.916 327.647C50.4245 328.196 53.3551 329.051 56.7077 330.215C59.1748 331.073 61.3401 330.83 63.4227 328.978C64.882 327.677 66.0811 326.507 67.0198 325.47C77.6159 313.762 85.9875 302.284 95.6725 287.623L99.3524 282.399C103.612 276.984 108.168 272.014 113.019 267.49C115.11 265.542 116.439 263.177 117.007 260.397L120.704 232.691C121.927 225.977 123.102 219.215 124.231 212.403C124.779 209.098 125.165 205.767 125.39 202.411C125.445 199.961 125.364 196.274 125.148 191.347C124.962 187.147 125.08 181.923 125.503 175.675C125.688 167.696 127.362 160.168 130.525 153.092C132.399 149.476 134.754 146.644 137.59 144.597C142.453 141.094 148.113 138.463 154.569 136.704C155.757 136.381 157.555 135.982 159.965 135.509C163.396 134.929 166.962 133.742 170.662 131.948C180.311 127.256 185.429 124.949 192.493 120.074C196.453 117.34 198.829 113.806 199.622 109.471C200.297 105.815 200.297 100.035 199.947 95.6273C199.901 95.0432 199.694 94.4824 199.35 94.0062C197.78 91.8527 196.415 89.4349 195.256 86.7528L192.943 77.9494C192.922 77.8754 192.878 77.8099 192.819 77.7621C192.76 77.7144 192.687 77.6867 192.611 77.6831L189.819 77.5826C188.423 75.0622 187.001 71.6603 185.553 67.3769C184.129 63.1684 183.2 59.7153 182.767 57.0175C182.554 55.2248 182.287 53.1423 182.903 51.397C183.246 50.4208 184.382 50.0895 185.198 50.2788C185.372 50.3174 185.532 50.4034 185.66 50.5273L186.725 51.5508C186.762 51.5876 186.81 51.6117 186.862 51.6195C186.914 51.6274 186.967 51.6188 187.014 51.5949C187.061 51.5709 187.1 51.5328 187.126 51.4858C187.151 51.4387 187.162 51.385 187.156 51.3319C186.912 49.2691 186.683 47.2792 186.47 45.3623C185.815 39.4697 185.944 33.6894 186.855 28.0216C187.722 23.9472 189.127 20.214 191.067 16.822C195.177 9.62779 201.476 4.52793 209.964 1.52245C217.971 -0.666589 226.072 -0.49501 234.268 2.03717ZM280.504 297.734C281.297 301.284 281.904 303.558 282.326 304.556C285.383 311.837 286.978 315.623 287.113 315.915C289.615 321.423 295.46 322.506 301.193 323.601C301.419 323.642 301.651 323.605 301.85 323.494C306.311 321.057 312.559 320.299 316.984 323.352C318.85 324.638 320.185 325.567 320.989 326.139C321.216 326.3 321.489 326.389 321.77 326.393L325.456 326.434C325.586 326.434 325.715 326.448 325.841 326.476C329.028 327.178 331.629 327.866 333.644 328.541C335.798 329.268 338.17 331.085 338.052 333.51C338.052 333.538 338.016 334.141 337.945 335.321C337.939 335.407 337.965 335.493 338.02 335.561C338.075 335.629 338.154 335.674 338.241 335.688C344.505 336.654 350.585 338.155 356.481 340.19C359.084 341.089 362.421 342.752 365.285 343.775C365.326 343.791 365.371 343.793 365.414 343.783C365.457 343.773 365.497 343.751 365.527 343.719C365.557 343.686 365.577 343.646 365.585 343.602C365.592 343.559 365.587 343.514 365.569 343.473C365.454 343.197 365.198 342.88 364.8 342.521C364.117 341.914 360.871 339.237 355.061 334.492C347.956 328.689 342.726 324.991 335.549 319.234C331.526 316.012 327.765 312.724 324.267 309.372C318.205 303.574 311.649 296.865 304.601 289.245C302.16 286.669 300.515 284.018 299.667 281.293C299.229 279.885 298.359 276.398 297.058 270.833C296.249 267.394 295.403 263.964 294.52 260.544L287.882 232.146C287.152 227.973 286.521 223.735 285.988 219.432C285.978 219.354 285.952 219.278 285.91 219.211C285.869 219.143 285.814 219.085 285.748 219.04C285.683 218.996 285.609 218.965 285.531 218.951C285.453 218.937 285.373 218.94 285.296 218.959C285.012 219.026 284.841 219.154 284.781 219.343C283.618 222.814 282.101 226.78 280.232 231.241C278.629 235.051 277.99 237.855 277.291 241.535C275.233 252.35 273.73 262.006 274.647 272.146C274.844 274.316 275.511 277.532 276.647 281.796C278.055 287.073 279.34 292.386 280.504 297.734ZM127.916 302.367C123.203 307.191 118.074 311.975 112.528 316.72C102.167 324.498 91.821 332.733 81.4911 341.426C80.6313 342.148 79.945 342.835 79.4322 343.485C79.3986 343.526 79.3799 343.577 79.3791 343.629C79.3784 343.682 79.3957 343.733 79.4282 343.775C79.4607 343.816 79.5064 343.845 79.5577 343.857C79.609 343.869 79.6628 343.863 79.7103 343.84C88.5907 339.918 97.3941 336.954 107.002 335.599C107.056 335.591 107.107 335.573 107.153 335.544C107.199 335.516 107.238 335.478 107.269 335.434C107.299 335.389 107.32 335.339 107.33 335.286C107.341 335.233 107.34 335.178 107.328 335.126C106.162 330.203 111.445 327.701 115.616 327.57C117.955 327.495 120.138 327.127 122.166 326.464C122.479 326.362 122.771 326.208 123.03 326.008C125.432 324.121 127.212 322.524 130.058 321.317C133.604 320.347 136.905 320.512 139.962 321.814C140.487 322.039 141.778 322.672 143.837 323.713C143.919 323.754 144.009 323.777 144.102 323.781C144.195 323.785 144.288 323.77 144.376 323.737C145.137 323.441 147.389 322.725 151.132 321.589C152.43 321.191 154.118 320.305 156.196 318.933C159.655 312.693 162.154 306.416 163.692 300.101C165.589 292.339 166.763 287.651 167.213 286.038C168.53 281.344 169.303 278.148 169.532 276.448C170.21 271.391 170.514 268.121 170.443 266.638C169.914 256.19 168.445 245.829 166.035 235.554C165.846 234.734 165.497 233.698 164.988 232.448C162.397 226.066 160.736 221.86 160.006 219.828C159.9 219.541 159.715 219.329 159.45 219.195C159.409 219.174 159.363 219.164 159.316 219.165C159.27 219.165 159.224 219.178 159.183 219.2C159.141 219.223 159.106 219.255 159.079 219.295C159.053 219.334 159.036 219.379 159.03 219.426C158.387 225.129 157.413 230.868 156.108 236.643C154.522 243.655 151.146 257.73 145.979 278.867C145.076 282.563 143.374 285.837 140.873 288.688C137.607 292.412 133.288 296.971 127.916 302.367ZM28.0017 333.646C27.5757 334.723 26.7869 336.826 25.6352 339.953C25.0199 341.633 25.0021 343.036 24.6235 344.68C24.5884 344.832 24.5988 344.991 24.6536 345.136C24.7084 345.282 24.805 345.407 24.9312 345.497L27.3687 347.248C27.4493 347.306 27.5438 347.341 27.6425 347.35C27.7412 347.36 27.8407 347.343 27.9307 347.301C30.3091 346.195 35.332 342.74 34.9889 339.847C34.839 338.62 34.5037 337.32 33.9831 335.948C33.8529 335.608 33.6456 335.304 33.3775 335.058C33.1095 334.813 32.7882 334.633 32.4389 334.534L28.4987 333.398C28.3998 333.37 28.2942 333.381 28.2023 333.427C28.1105 333.472 28.039 333.551 28.0017 333.646ZM417.934 333.676L414.029 335.126C413.691 335.251 413.412 335.498 413.248 335.818C411.99 338.275 411.929 340.476 413.065 342.42C414.075 344.152 415.717 345.761 417.993 347.248C418.157 347.354 418.341 347.424 418.532 347.454C418.724 347.483 418.919 347.472 419.105 347.42C420.166 347.12 421.042 346.658 421.732 346.035C421.839 345.941 421.921 345.821 421.969 345.688C422.018 345.554 422.032 345.411 422.01 345.272C421.403 341.233 420.293 337.47 418.679 333.984C418.616 333.849 418.504 333.742 418.366 333.685C418.229 333.628 418.074 333.625 417.934 333.676Z" stroke="url(#paint0_linear_1552_3566)" stroke-width="1.5" mask="url(#path-1-inside-1_1552_3566)"/>
<defs>
<linearGradient id="paint0_linear_1552_3566" x1="223" y1="0" x2="223" y2="410" gradientUnits="userSpaceOnUse">
<stop offset="0.544695" stop-color="#280F0B"/>
<stop offset="1" stop-color="#7F3E2F" stop-opacity="0"/>
</linearGradient>
</defs>
</svg>
