<svg width="24" height="24" viewBox="0 0 24 24" fill="none" xmlns="http://www.w3.org/2000/svg">
<path d="M0.969607 7.60035H23.0273V6.66606C23.0273 4.59735 21.973 3.55249 19.8735 3.55249H4.12346C2.02432 3.55249 0.969179 4.59735 0.969179 6.66649L0.969607 7.60035ZM0.969607 17.3439C0.969607 19.4131 2.02389 20.4476 4.12346 20.4476H19.8735C21.9726 20.4476 23.0278 19.4131 23.0278 17.3439V9.88078H0.96875L0.969607 17.3439ZM4.32446 14.8929V13.0346C4.32446 12.4723 4.71618 12.0703 5.30889 12.0703H7.76975C8.36246 12.0703 8.75418 12.4723 8.75418 13.0346V14.8929C8.75418 15.4655 8.36246 15.8572 7.76975 15.8572H5.30846C4.71575 15.8572 4.32446 15.4655 4.32446 14.8929Z" fill="#FCF3E5"/>
</svg>
