<svg width="24" height="24" viewBox="0 0 24 24" fill="none" xmlns="http://www.w3.org/2000/svg">
<path d="M4.2049 13.0035C4.71505 10.4499 4.9706 9.17502 5.81325 8.35232C5.96899 8.20075 6.13744 8.06281 6.31675 7.94002C7.2886 7.27502 8.5901 7.27502 11.1931 7.27502H12.811C15.413 7.27502 16.7136 7.27502 17.6845 7.94002C17.865 8.06416 18.0328 8.20191 18.188 8.35327C19.0306 9.17502 19.2871 10.4509 19.7973 13.0035C20.5297 16.6667 20.8964 18.4983 20.0528 19.796C19.9002 20.0323 19.7228 20.2485 19.5208 20.4449C18.4131 21.525 16.5464 21.525 12.811 21.525H11.1931C7.45675 21.525 5.58905 21.525 4.48135 20.4439C4.28094 20.2479 4.10284 20.0303 3.9503 19.7951C3.1067 18.4974 3.4734 16.6658 4.2068 13.0026L4.2049 13.0035Z" stroke="white" stroke-width="2"/>
<path d="M14.8484 12.025C15.3731 12.025 15.7984 11.5997 15.7984 11.075C15.7984 10.5503 15.3731 10.125 14.8484 10.125C14.3238 10.125 13.8984 10.5503 13.8984 11.075C13.8984 11.5997 14.3238 12.025 14.8484 12.025Z" fill="white"/>
<path d="M9.15312 12.025C9.6778 12.025 10.1031 11.5997 10.1031 11.075C10.1031 10.5503 9.6778 10.125 9.15312 10.125C8.62845 10.125 8.20312 10.5503 8.20312 11.075C8.20312 11.5997 8.62845 12.025 9.15312 12.025Z" fill="white"/>
<path d="M9.14844 7.27498V6.32498C9.14844 5.56911 9.4487 4.8442 9.98318 4.30972C10.5177 3.77524 11.2426 3.47498 11.9984 3.47498C12.7543 3.47498 13.4792 3.77524 14.0137 4.30972C14.5482 4.8442 14.8484 5.56911 14.8484 6.32498V7.27498" stroke="white" stroke-width="2" stroke-linecap="round"/>
</svg>
