<svg width="47" height="45" viewBox="0 0 47 45" fill="none" xmlns="http://www.w3.org/2000/svg">
<circle cx="22.1754" cy="22.3566" r="14.5015" stroke="#280F0B" stroke-width="0.379124"/>
<rect x="12.0333" y="12.215" width="20.2831" height="20.2831" stroke="#280F0B" stroke-width="0.379124" stroke-linejoin="round"/>
<path d="M12.4023 15.3901L31.9385 15.3901L22.1709 32.3101L12.4023 15.3901Z" stroke="#280F0B" stroke-width="0.379124" stroke-linejoin="round"/>
<path d="M11.8465 34.7731L12.0356 34.7588V34.7588L11.8465 34.7731ZM11.9887 35.7683L12.1699 35.7125H12.1699L11.9887 35.7683ZM12.4626 36.7161L12.3068 36.8241H12.3068L12.4626 36.7161ZM13.2209 37.5691L13.0926 37.7087V37.7087L13.2209 37.5691ZM21.7038 43.3508L21.5516 43.4638V43.4638L21.7038 43.3508ZM22.1777 44.0616L22.0166 44.1616C22.0512 44.2173 22.1121 44.2512 22.1777 44.2512C22.2432 44.2512 22.3041 44.2173 22.3387 44.1616L22.1777 44.0616ZM12.0361 32.4036C12.0361 32.2989 11.9512 32.214 11.8465 32.214C11.7419 32.214 11.657 32.2989 11.657 32.4036H11.8465H12.0361ZM15.2113 38.8487L15.3055 38.6839L15.2978 38.68L15.2113 38.8487ZM17.486 39.986L17.3966 40.1532H17.3966L17.486 39.986ZM20.519 41.9291L20.3965 42.0737V42.0737L20.519 41.9291ZM32.5088 34.7731L32.3198 34.7588V34.7588L32.5088 34.7731ZM32.3666 35.7683L32.1854 35.7125V35.7125L32.3666 35.7683ZM31.8927 36.7161L32.0485 36.8241V36.8241L31.8927 36.7161ZM31.1345 37.5691L31.2628 37.7087V37.7087L31.1345 37.5691ZM22.6516 43.3508L22.8038 43.4638V43.4638L22.6516 43.3508ZM32.6984 32.4036C32.6984 32.2989 32.6135 32.214 32.5088 32.214C32.4041 32.214 32.3192 32.2989 32.3192 32.4036H32.5088H32.6984ZM29.1441 38.8487L29.0575 38.6798L29.05 38.6841L29.1441 38.8487ZM26.8693 39.986L26.9588 40.1532V40.1532L26.8693 39.986ZM23.8363 41.9291L23.9589 42.0737V42.0737L23.8363 41.9291ZM11.8465 34.7731L11.6575 34.7874C11.6863 35.1682 11.6842 35.4233 11.8075 35.824L11.9887 35.7683L12.1699 35.7125C12.0623 35.3628 12.0659 35.161 12.0356 34.7588L11.8465 34.7731ZM11.9887 35.7683L11.8075 35.824C11.9363 36.2424 12.0628 36.4721 12.3068 36.8241L12.4626 36.7161L12.6184 36.6081C12.3909 36.2799 12.2846 36.0852 12.1699 35.7125L11.9887 35.7683ZM12.4626 36.7161L12.3068 36.8241C12.5631 37.1937 12.7673 37.4097 13.0926 37.7087L13.2209 37.5691L13.3492 37.4296C13.0382 37.1438 12.8545 36.9486 12.6184 36.6081L12.4626 36.7161ZM21.7038 43.3508L21.5516 43.4638C21.6473 43.5927 21.7631 43.7662 21.8563 43.9098C21.9026 43.9812 21.9428 44.0443 21.9714 44.0895C21.9856 44.1121 21.997 44.1302 22.0048 44.1426C22.0087 44.1488 22.0117 44.1536 22.0137 44.1568C22.0147 44.1584 22.0154 44.1597 22.0159 44.1605C22.0162 44.1609 22.0163 44.1612 22.0165 44.1613C22.0165 44.1614 22.0166 44.1615 22.0166 44.1616C22.0166 44.1616 22.0166 44.1616 22.0166 44.1616C22.0166 44.1616 22.0166 44.1616 22.0166 44.1616C22.0166 44.1616 22.0166 44.1616 22.1777 44.0616C22.3387 43.9616 22.3387 43.9616 22.3387 43.9616C22.3387 43.9616 22.3387 43.9616 22.3387 43.9616C22.3387 43.9616 22.3387 43.9616 22.3387 43.9615C22.3386 43.9615 22.3386 43.9614 22.3385 43.9613C22.3383 43.961 22.3381 43.9607 22.3378 43.9602C22.3373 43.9593 22.3365 43.958 22.3354 43.9563C22.3333 43.9529 22.3302 43.9479 22.3262 43.9415C22.3181 43.9287 22.3065 43.9101 22.2918 43.887C22.2626 43.8407 22.2216 43.7763 22.1743 43.7034C22.0803 43.5586 21.9592 43.3767 21.856 43.2378L21.7038 43.3508ZM11.8465 32.4036H11.657C11.657 33.1677 11.5979 33.9969 11.6575 34.7874L11.8465 34.7731L12.0356 34.7588C11.9772 33.985 12.0361 33.2079 12.0361 32.4036H11.8465ZM15.2113 38.8487L15.1172 39.0132C15.4945 39.2289 15.8818 39.4158 16.2644 39.5972C16.6488 39.7794 17.0272 39.9555 17.3966 40.1532L17.486 39.986L17.5755 39.8189C17.1959 39.6158 16.8073 39.435 16.4268 39.2546C16.0444 39.0733 15.6688 38.8919 15.3054 38.6841L15.2113 38.8487ZM17.486 39.986L17.3966 40.1532C18.4174 40.6994 19.5343 41.3431 20.3965 42.0737L20.519 41.9291L20.6416 41.7844C19.7464 41.0258 18.5985 40.3664 17.5755 39.8189L17.486 39.986ZM20.519 41.9291L20.3965 42.0737C20.8332 42.4438 21.1834 42.968 21.5516 43.4638L21.7038 43.3508L21.856 43.2378C21.5065 42.7671 21.1213 42.191 20.6416 41.7844L20.519 41.9291ZM13.2209 37.5691L13.0926 37.7087C13.6923 38.26 14.4296 38.6609 15.1248 39.0174L15.2113 38.8487L15.2978 38.68C14.6025 38.3235 13.9072 37.9425 13.3492 37.4296L13.2209 37.5691ZM32.5088 34.7731L32.3198 34.7588C32.2894 35.161 32.2931 35.3628 32.1854 35.7125L32.3666 35.7683L32.5478 35.824C32.6711 35.4233 32.6691 35.1682 32.6978 34.7874L32.5088 34.7731ZM32.3666 35.7683L32.1854 35.7125C32.0708 36.0852 31.9645 36.2799 31.7369 36.6081L31.8927 36.7161L32.0485 36.8241C32.2926 36.4721 32.4191 36.2424 32.5478 35.824L32.3666 35.7683ZM31.8927 36.7161L31.7369 36.6081C31.5009 36.9486 31.3171 37.1438 31.0062 37.4296L31.1345 37.5691L31.2628 37.7087C31.588 37.4097 31.7922 37.1937 32.0485 36.8241L31.8927 36.7161ZM22.6516 43.3508L22.4994 43.2378C22.3962 43.3767 22.275 43.5586 22.181 43.7034C22.1337 43.7763 22.0927 43.8407 22.0635 43.887C22.0489 43.9101 22.0372 43.9287 22.0292 43.9415C22.0252 43.9479 22.0221 43.9529 22.0199 43.9563C22.0189 43.958 22.0181 43.9593 22.0175 43.9602C22.0172 43.9607 22.017 43.961 22.0169 43.9613C22.0168 43.9614 22.0167 43.9615 22.0167 43.9615C22.0167 43.9616 22.0167 43.9616 22.0166 43.9616C22.0166 43.9616 22.0166 43.9616 22.0166 43.9616C22.0166 43.9616 22.0166 43.9616 22.1777 44.0616C22.3387 44.1616 22.3387 44.1616 22.3387 44.1616C22.3387 44.1616 22.3387 44.1616 22.3387 44.1616C22.3387 44.1616 22.3387 44.1616 22.3388 44.1616C22.3388 44.1615 22.3388 44.1614 22.3389 44.1613C22.339 44.1612 22.3392 44.1609 22.3394 44.1605C22.3399 44.1597 22.3407 44.1584 22.3417 44.1568C22.3437 44.1536 22.3467 44.1488 22.3506 44.1426C22.3583 44.1302 22.3697 44.1121 22.384 44.0895C22.4126 44.0443 22.4527 43.9812 22.499 43.9098C22.5923 43.7662 22.708 43.5927 22.8038 43.4638L22.6516 43.3508ZM32.5088 32.4036H32.3192C32.3192 33.2079 32.3782 33.985 32.3198 34.7588L32.5088 34.7731L32.6978 34.7874C32.7575 33.9969 32.6984 33.1677 32.6984 32.4036H32.5088ZM29.1441 38.8487L29.05 38.6841C28.6865 38.8919 28.3109 39.0733 27.9286 39.2546C27.5481 39.435 27.1594 39.6158 26.7799 39.8189L26.8693 39.986L26.9588 40.1532C27.3282 39.9555 27.7065 39.7794 28.091 39.5972C28.4736 39.4158 28.8609 39.2289 29.2382 39.0132L29.1441 38.8487ZM26.8693 39.986L26.7799 39.8189C25.7568 40.3664 24.609 41.0258 23.7138 41.7844L23.8363 41.9291L23.9589 42.0737C24.8211 41.3431 25.938 40.6994 26.9588 40.1532L26.8693 39.986ZM23.8363 41.9291L23.7138 41.7844C23.234 42.191 22.8489 42.7671 22.4994 43.2378L22.6516 43.3508L22.8038 43.4638C23.1719 42.968 23.5221 42.4438 23.9589 42.0737L23.8363 41.9291ZM31.1345 37.5691L31.0062 37.4296C30.4481 37.9425 29.7528 38.3235 29.0576 38.68L29.1441 38.8487L29.2306 39.0174C29.9258 38.6609 30.663 38.26 31.2628 37.7087L31.1345 37.5691Z" fill="#280F0B"/>
<path d="M35.0957 32.6221L35.0794 32.4333V32.4333L35.0957 32.6221ZM36.0893 32.4694L36.0316 32.2888L36.0316 32.2888L36.0893 32.4694ZM37.032 31.9854L37.1417 32.14L37.1417 32.14L37.032 31.9854ZM37.8769 31.2181L38.0178 31.3449V31.3449L37.8769 31.2181ZM43.568 22.6742L43.6826 22.8252L43.6826 22.8252L43.568 22.6742ZM44.2737 22.1927L44.3754 22.3527C44.4307 22.3175 44.464 22.2563 44.4633 22.1907C44.4626 22.1252 44.4281 22.0646 44.372 22.0306L44.2737 22.1927ZM32.7243 32.4578C32.6196 32.4589 32.5356 32.5447 32.5367 32.6494C32.5378 32.7541 32.6236 32.838 32.7283 32.8369L32.7263 32.6473L32.7243 32.4578ZM39.1352 29.2142L38.9695 29.1218L38.9656 29.1295L39.1352 29.2142ZM40.2483 26.9275L40.4164 27.0152L40.4164 27.0152L40.2483 26.9275ZM42.1589 23.874L42.3048 23.995V23.995L42.1589 23.874ZM34.8758 11.9611L34.8635 12.1502V12.1502L34.8758 11.9611ZM35.8724 12.0926L35.8186 12.2744V12.2744L35.8724 12.0926ZM36.8252 12.5564L36.9316 12.3995V12.3995L36.8252 12.5564ZM37.6863 13.3055L37.8245 13.1758V13.1758L37.6863 13.3055ZM43.5579 21.7264L43.6693 21.573L43.6693 21.573L43.5579 21.7264ZM32.5044 11.7967C32.3997 11.7978 32.3157 11.8836 32.3168 11.9883C32.3179 12.093 32.4037 12.1769 32.5084 12.1758L32.5064 11.9863L32.5044 11.7967ZM38.9869 15.2822L38.819 15.3706L38.8234 15.378L38.9869 15.2822ZM40.1484 17.5447L40.3146 17.4535V17.4535L40.1484 17.5447ZM42.1236 20.5569L42.2669 20.4328V20.4328L42.1236 20.5569ZM35.0957 32.6221L35.112 32.811C35.4924 32.7782 35.7476 32.7775 36.147 32.65L36.0893 32.4694L36.0316 32.2888C35.683 32.4001 35.4812 32.3986 35.0794 32.4333L35.0957 32.6221ZM36.0893 32.4694L36.147 32.65C36.564 32.5168 36.7923 32.3878 37.1417 32.14L37.032 31.9854L36.9224 31.8308C36.5966 32.0618 36.4031 32.1702 36.0316 32.2888L36.0893 32.4694ZM37.032 31.9854L37.1417 32.14C37.5085 31.8799 37.7224 31.6733 38.0178 31.3449L37.8769 31.2181L37.736 31.0913C37.4535 31.4053 37.2603 31.5911 36.9224 31.8308L37.032 31.9854ZM43.568 22.6742L43.6826 22.8252C43.8105 22.7281 43.9828 22.6104 44.1254 22.5157C44.1962 22.4686 44.2589 22.4278 44.3038 22.3987C44.3262 22.3842 44.3442 22.3727 44.3566 22.3648C44.3627 22.3608 44.3675 22.3578 44.3707 22.3557C44.3723 22.3547 44.3735 22.3539 44.3743 22.3534C44.3747 22.3532 44.375 22.353 44.3752 22.3529C44.3753 22.3528 44.3753 22.3528 44.3754 22.3527C44.3754 22.3527 44.3754 22.3527 44.3754 22.3527C44.3754 22.3527 44.3754 22.3527 44.3754 22.3527C44.3754 22.3527 44.3754 22.3527 44.2737 22.1927C44.172 22.0328 44.172 22.0328 44.172 22.0328C44.172 22.0328 44.172 22.0328 44.172 22.0328C44.172 22.0328 44.172 22.0328 44.1719 22.0328C44.1719 22.0329 44.1718 22.0329 44.1717 22.033C44.1714 22.0332 44.1711 22.0334 44.1706 22.0336C44.1697 22.0342 44.1684 22.035 44.1668 22.0361C44.1634 22.0383 44.1584 22.0414 44.152 22.0455C44.1393 22.0537 44.1208 22.0656 44.0979 22.0804C44.052 22.1101 43.988 22.1518 43.9156 22.1999C43.7718 22.2955 43.5912 22.4185 43.4533 22.5232L43.568 22.6742ZM32.7263 32.6473L32.7283 32.8369C33.4924 32.8288 34.3221 32.8791 35.112 32.811L35.0957 32.6221L35.0794 32.4333C34.3062 32.4999 33.5286 32.4492 32.7243 32.4578L32.7263 32.6473ZM39.1352 29.2142L39.3008 29.3065C39.5124 28.927 39.6952 28.5377 39.8725 28.1532C40.0506 27.7669 40.2227 27.3866 40.4164 27.0152L40.2483 26.9275L40.0802 26.8398C39.8812 27.2215 39.7045 27.6121 39.5282 27.9945C39.351 28.3787 39.1736 28.7563 38.9697 29.1219L39.1352 29.2142ZM40.2483 26.9275L40.4164 27.0152C40.9518 25.9886 41.5835 24.8649 42.3048 23.995L42.1589 23.874L42.013 23.753C41.264 24.6562 40.6168 25.811 40.0802 26.8398L40.2483 26.9275ZM42.1589 23.874L42.3048 23.995C42.6703 23.5543 43.1907 23.1986 43.6826 22.8252L43.568 22.6742L43.4533 22.5232C42.9864 22.8777 42.4145 23.2689 42.013 23.753L42.1589 23.874ZM37.8769 31.2181L38.0178 31.3449C38.5627 30.7393 38.9558 29.9979 39.3048 29.2989L39.1352 29.2142L38.9656 29.1295C38.6166 29.8286 38.243 30.5279 37.736 31.0913L37.8769 31.2181ZM34.8758 11.9611L34.8635 12.1502C35.266 12.1763 35.4677 12.1705 35.8186 12.2744L35.8724 12.0926L35.9262 11.9109C35.5242 11.7918 35.2691 11.7966 34.888 11.7719L34.8758 11.9611ZM35.8724 12.0926L35.8186 12.2744C36.1925 12.3851 36.3883 12.4893 36.7189 12.7133L36.8252 12.5564L36.9316 12.3995C36.577 12.1592 36.346 12.0351 35.9262 11.9109L35.8724 12.0926ZM36.8252 12.5564L36.7189 12.7133C37.0619 12.9458 37.259 13.1274 37.5481 13.4353L37.6863 13.3055L37.8245 13.1758C37.5221 12.8537 37.3039 12.6518 36.9316 12.3995L36.8252 12.5564ZM43.5579 21.7264L43.4465 21.8798C43.5865 21.9815 43.7697 22.1007 43.9155 22.1932C43.9889 22.2397 44.0538 22.2801 44.1003 22.3088C44.1236 22.3231 44.1423 22.3346 44.1552 22.3425C44.1617 22.3464 44.1667 22.3495 44.1701 22.3516C44.1718 22.3526 44.1731 22.3534 44.174 22.354C44.1745 22.3543 44.1748 22.3545 44.1751 22.3546C44.1752 22.3547 44.1753 22.3547 44.1754 22.3548C44.1754 22.3548 44.1754 22.3548 44.1754 22.3548C44.1754 22.3548 44.1755 22.3548 44.1755 22.3548C44.1755 22.3548 44.1755 22.3548 44.2737 22.1927C44.372 22.0306 44.372 22.0306 44.372 22.0306C44.372 22.0306 44.372 22.0306 44.372 22.0306C44.372 22.0306 44.372 22.0306 44.3719 22.0306C44.3719 22.0306 44.3718 22.0305 44.3717 22.0305C44.3715 22.0304 44.3712 22.0302 44.3708 22.0299C44.37 22.0294 44.3688 22.0287 44.3672 22.0277C44.364 22.0257 44.3591 22.0228 44.3529 22.019C44.3404 22.0113 44.3221 22.0002 44.2994 21.9861C44.2539 21.958 44.1904 21.9185 44.1185 21.873C43.9739 21.7813 43.7992 21.6674 43.6693 21.573L43.5579 21.7264ZM32.5064 11.9863L32.5084 12.1758C33.3127 12.1673 34.0891 12.1001 34.8635 12.1502L34.8758 11.9611L34.888 11.7719C34.0969 11.7206 33.2685 11.7886 32.5044 11.7967L32.5064 11.9863ZM38.9869 15.2822L38.8234 15.378C39.035 15.7393 39.2204 16.1129 39.4058 16.4933C39.5902 16.8719 39.7751 17.2586 39.9823 17.6359L40.1484 17.5447L40.3146 17.4535C40.113 17.0862 39.9329 16.7098 39.7466 16.3273C39.5612 15.9467 39.3702 15.5614 39.1505 15.1864L38.9869 15.2822ZM40.1484 17.5447L39.9823 17.6359C40.5406 18.6531 41.2122 19.7939 41.9803 20.6809L42.1236 20.5569L42.2669 20.4328C41.5272 19.5784 40.8717 18.4684 40.3146 17.4535L40.1484 17.5447ZM42.1236 20.5569L41.9803 20.6809C42.392 21.1564 42.9721 21.5354 43.4465 21.8798L43.5579 21.7264L43.6693 21.573C43.1695 21.2102 42.6417 20.8656 42.2669 20.4328L42.1236 20.5569ZM37.6863 13.3055L37.5481 13.4353C38.067 13.9879 38.4553 14.6791 38.8192 15.3705L38.9869 15.2822L39.1547 15.1939C38.7909 14.5025 38.3821 13.7696 37.8245 13.1758L37.6863 13.3055Z" fill="#280F0B"/>
<path d="M32.5519 9.47813L32.3629 9.4924V9.4924L32.5519 9.47813ZM32.4097 8.48293L32.2285 8.53868L32.2285 8.53868L32.4097 8.48293ZM31.9358 7.53512L32.0916 7.42712L32.0916 7.42712L31.9358 7.53512ZM31.1776 6.68209L31.3059 6.54253V6.54253L31.1776 6.68209ZM22.6947 0.900456L22.8469 0.787446L22.8469 0.787445L22.6947 0.900456ZM22.2208 0.189599L22.3818 0.0896215C22.3472 0.0339174 22.2863 3.71394e-05 22.2208 3.71451e-05C22.1552 3.71508e-05 22.0943 0.0339174 22.0597 0.0896215L22.2208 0.189599ZM32.3623 11.8477C32.3623 11.9523 32.4472 12.0372 32.5519 12.0372C32.6566 12.0372 32.7415 11.9523 32.7415 11.8477L32.5519 11.8477L32.3623 11.8477ZM29.1872 5.40255L29.093 5.56729L29.1007 5.57124L29.1872 5.40255ZM26.9124 4.26518L27.0019 4.09804L27.0019 4.09804L26.9124 4.26518ZM23.8794 2.32217L24.002 2.17755V2.17755L23.8794 2.32217ZM11.8896 9.47813L12.0787 9.4924V9.4924L11.8896 9.47813ZM12.0318 8.48293L12.213 8.53868V8.53868L12.0318 8.48293ZM12.5057 7.53512L12.3499 7.42712V7.42712L12.5057 7.53512ZM13.264 6.6821L13.1357 6.54254V6.54254L13.264 6.6821ZM21.7469 0.900456L21.5947 0.787445L21.5947 0.787446L21.7469 0.900456ZM11.7001 11.8477C11.7001 11.9524 11.7849 12.0372 11.8896 12.0372C11.9943 12.0372 12.0792 11.9524 12.0792 11.8477L11.8896 11.8477L11.7001 11.8477ZM15.2544 5.40255L15.3409 5.57141L15.3484 5.56712L15.2544 5.40255ZM17.5291 4.26518L17.4397 4.09805V4.09805L17.5291 4.26518ZM20.5621 2.32217L20.4395 2.17755V2.17755L20.5621 2.32217ZM32.5519 9.47813L32.7409 9.46387C32.7122 9.08306 32.7142 8.82791 32.5909 8.42718L32.4097 8.48293L32.2285 8.53868C32.3362 8.88843 32.3325 9.09024 32.3629 9.4924L32.5519 9.47813ZM32.4097 8.48293L32.5909 8.42718C32.4622 8.0088 32.3356 7.77913 32.0916 7.42712L31.9358 7.53512L31.78 7.64313C32.0076 7.9713 32.1139 8.166 32.2285 8.53868L32.4097 8.48293ZM31.9358 7.53512L32.0916 7.42712C31.8353 7.0575 31.6311 6.8415 31.3059 6.54253L31.1776 6.68209L31.0493 6.82165C31.3602 7.10747 31.544 7.30261 31.78 7.64313L31.9358 7.53512ZM22.6947 0.900456L22.8469 0.787445C22.7511 0.658543 22.6353 0.484985 22.5421 0.341375C22.4958 0.270041 22.4557 0.206962 22.4271 0.161737C22.4128 0.139135 22.4014 0.12102 22.3937 0.108595C22.3898 0.102383 22.3868 0.0975952 22.3848 0.0943822C22.3838 0.0927762 22.383 0.0915632 22.3825 0.090763C22.3823 0.0903634 22.3821 0.0900668 22.382 0.0898752C22.3819 0.0897798 22.3819 0.0897111 22.3818 0.0896682C22.3818 0.0896472 22.3818 0.0896329 22.3818 0.0896243C22.3818 0.0896205 22.3818 0.0896196 22.3818 0.0896177C22.3818 0.0896186 22.3818 0.0896215 22.2208 0.189599C22.0597 0.289577 22.0597 0.289583 22.0597 0.289591C22.0597 0.289596 22.0597 0.289605 22.0597 0.289615C22.0597 0.289634 22.0598 0.289659 22.0598 0.289692C22.0598 0.289757 22.0599 0.289848 22.06 0.289967C22.0601 0.290204 22.0603 0.290546 22.0606 0.290993C22.0611 0.291885 22.062 0.293194 22.063 0.294897C22.0651 0.298304 22.0683 0.303295 22.0723 0.309719C22.0803 0.322567 22.092 0.341152 22.1066 0.364266C22.1358 0.410474 22.1768 0.474882 22.2241 0.54778C22.3181 0.692632 22.4393 0.874503 22.5425 1.01347L22.6947 0.900456ZM32.5519 11.8477L32.7415 11.8477C32.7415 11.0835 32.8006 10.2544 32.7409 9.46387L32.5519 9.47813L32.3629 9.4924C32.4213 10.2662 32.3623 11.0433 32.3623 11.8477L32.5519 11.8477ZM29.1872 5.40255L29.2812 5.23798C28.9039 5.02228 28.5166 4.83542 28.1341 4.65406C27.7496 4.47182 27.3712 4.29572 27.0019 4.09804L26.9124 4.26518L26.823 4.43232C27.2025 4.63543 27.5911 4.81626 27.9717 4.99664C28.354 5.1779 28.7296 5.35933 29.0931 5.56712L29.1872 5.40255ZM26.9124 4.26518L27.0019 4.09804C25.9811 3.55178 24.8642 2.90815 24.002 2.17755L23.8794 2.32217L23.7569 2.46679C24.6521 3.22538 25.7999 3.88485 26.823 4.43232L26.9124 4.26518ZM23.8794 2.32217L24.002 2.17755C23.5652 1.80744 23.215 1.28326 22.8469 0.787446L22.6947 0.900456L22.5425 1.01347C22.892 1.48411 23.2771 2.06023 23.7569 2.46679L23.8794 2.32217ZM31.1776 6.68209L31.3059 6.54253C30.7061 5.99123 29.9689 5.59031 29.2736 5.23387L29.1872 5.40255L29.1007 5.57124C29.7959 5.92769 30.4912 6.30869 31.0493 6.82165L31.1776 6.68209ZM11.8896 9.47813L12.0787 9.4924C12.109 9.09025 12.1054 8.88843 12.213 8.53868L12.0318 8.48293L11.8506 8.42719C11.7273 8.82791 11.7294 9.08306 11.7006 9.46387L11.8896 9.47813ZM12.0318 8.48293L12.213 8.53868C12.3277 8.166 12.434 7.9713 12.6615 7.64313L12.5057 7.53512L12.3499 7.42712C12.1059 7.77913 11.9794 8.00881 11.8506 8.42719L12.0318 8.48293ZM12.5057 7.53512L12.6615 7.64313C12.8976 7.30262 13.0813 7.10747 13.3922 6.82165L13.264 6.6821L13.1357 6.54254C12.8104 6.8415 12.6062 7.0575 12.3499 7.42712L12.5057 7.53512ZM21.7469 0.900456L21.8991 1.01347C22.0022 0.874502 22.1234 0.692631 22.2174 0.54778C22.2647 0.474882 22.3057 0.410473 22.3349 0.364265C22.3495 0.341152 22.3612 0.322566 22.3692 0.309719C22.3733 0.303294 22.3764 0.298304 22.3785 0.294896C22.3796 0.293193 22.3804 0.291885 22.3809 0.290992C22.3812 0.290545 22.3814 0.290203 22.3816 0.289967C22.3816 0.289848 22.3817 0.289756 22.3817 0.289691C22.3818 0.289658 22.3818 0.289633 22.3818 0.289614C22.3818 0.289604 22.3818 0.289595 22.3818 0.28959C22.3818 0.289582 22.3818 0.289576 22.2208 0.189599C22.0597 0.0896215 22.0597 0.0896196 22.0597 0.0896186C22.0597 0.0896206 22.0597 0.0896215 22.0597 0.0896253C22.0597 0.089633 22.0597 0.0896482 22.0597 0.0896692C22.0597 0.0897112 22.0596 0.0897808 22.0596 0.0898761C22.0594 0.0900678 22.0592 0.0903644 22.059 0.090764C22.0585 0.0915641 22.0577 0.0927763 22.0567 0.0943832C22.0547 0.0975961 22.0518 0.102384 22.0479 0.108596C22.0401 0.121021 22.0287 0.139136 22.0144 0.161738C21.9859 0.206962 21.9457 0.270042 21.8994 0.341375C21.8062 0.484985 21.6904 0.658543 21.5947 0.787445L21.7469 0.900456ZM11.8896 11.8477L12.0792 11.8477C12.0792 11.0433 12.0203 10.2662 12.0787 9.4924L11.8896 9.47813L11.7006 9.46387C11.641 10.2544 11.7001 11.0835 11.7001 11.8477L11.8896 11.8477ZM15.2544 5.40255L15.3484 5.56712C15.7119 5.35934 16.0875 5.1779 16.4699 4.99664C16.8504 4.81626 17.239 4.63543 17.6185 4.43232L17.5291 4.26518L17.4397 4.09805C17.0703 4.29572 16.6919 4.47183 16.3075 4.65406C15.9249 4.83542 15.5376 5.02228 15.1603 5.23799L15.2544 5.40255ZM17.5291 4.26518L17.6185 4.43232C18.6416 3.88485 19.7894 3.22538 20.6846 2.46679L20.5621 2.32217L20.4395 2.17755C19.5774 2.90815 18.4605 3.55178 17.4397 4.09805L17.5291 4.26518ZM20.5621 2.32217L20.6846 2.46679C21.1644 2.06023 21.5496 1.48411 21.8991 1.01347L21.7469 0.900456L21.5947 0.787446C21.2265 1.28326 20.8763 1.80744 20.4395 2.17755L20.5621 2.32217ZM13.264 6.6821L13.3922 6.82166C13.9503 6.30869 14.6456 5.92769 15.3408 5.57124L15.2544 5.40255L15.1679 5.23387C14.4726 5.59031 13.7354 5.99124 13.1357 6.54254L13.264 6.6821Z" fill="#280F0B"/>
<path d="M9.47423 11.8622L9.48849 12.0512V12.0512L9.47423 11.8622ZM8.47903 12.0043L8.53477 12.1855V12.1855L8.47903 12.0043ZM7.53122 12.4782L7.42321 12.3225L7.42321 12.3225L7.53122 12.4782ZM6.67819 13.2365L6.53863 13.1082V13.1082L6.67819 13.2365ZM0.896549 21.7194L0.783538 21.5672L0.783537 21.5672L0.896549 21.7194ZM0.185691 22.1933L0.0857139 22.0322C0.0300098 22.0668 -0.00387046 22.1277 -0.00387046 22.1933C-0.00387047 22.2589 0.0300098 22.3198 0.0857139 22.3544L0.185691 22.1933ZM11.8437 12.0517C11.9484 12.0517 12.0333 11.9669 12.0333 11.8622C12.0333 11.7575 11.9484 11.6726 11.8438 11.6726L11.8437 11.8622L11.8437 12.0517ZM5.39864 15.2269L5.56338 15.3211L5.56733 15.3134L5.39864 15.2269ZM4.26127 17.5016L4.09414 17.4122L4.09414 17.4122L4.26127 17.5016ZM2.31826 20.5346L2.17364 20.4121V20.4121L2.31826 20.5346ZM9.47423 32.5244L9.48849 32.3354V32.3354L9.47423 32.5244ZM8.47902 32.3822L8.53477 32.2011V32.2011L8.47902 32.3822ZM7.53122 31.9083L7.42321 32.0641V32.0641L7.53122 31.9083ZM6.67819 31.1501L6.53863 31.2784V31.2784L6.67819 31.1501ZM0.896549 22.6672L0.783537 22.8194L0.783538 22.8194L0.896549 22.6672ZM11.8437 32.714C11.9484 32.714 12.0333 32.6291 12.0333 32.5244C12.0333 32.4197 11.9484 32.3349 11.8437 32.3349L11.8437 32.5244L11.8437 32.714ZM5.39864 29.1597L5.5675 29.0731L5.56321 29.0656L5.39864 29.1597ZM4.26127 26.885L4.09414 26.9744V26.9744L4.26127 26.885ZM2.31826 23.852L2.17364 23.9745V23.9745L2.31826 23.852ZM9.47423 11.8622L9.45996 11.6731C9.07915 11.7019 8.824 11.6999 8.42328 11.8232L8.47903 12.0043L8.53477 12.1855C8.88452 12.0779 9.08634 12.0815 9.48849 12.0512L9.47423 11.8622ZM8.47903 12.0043L8.42328 11.8232C8.0049 11.9519 7.77522 12.0784 7.42321 12.3225L7.53122 12.4782L7.63922 12.634C7.9674 12.4065 8.16209 12.3002 8.53477 12.1855L8.47903 12.0043ZM7.53122 12.4782L7.42321 12.3225C7.05359 12.5787 6.83759 12.783 6.53863 13.1082L6.67819 13.2365L6.81775 13.3648C7.10356 13.0538 7.29871 12.8701 7.63922 12.634L7.53122 12.4782ZM0.896549 21.7194L0.783537 21.5672C0.654635 21.6629 0.481078 21.7787 0.337468 21.8719C0.266134 21.9182 0.203054 21.9584 0.15783 21.987C0.135228 22.0013 0.117113 22.0126 0.104687 22.0204C0.098475 22.0243 0.0936876 22.0273 0.0904746 22.0293C0.0888686 22.0303 0.0876556 22.031 0.0868554 22.0315C0.0864559 22.0318 0.0861593 22.032 0.0859676 22.0321C0.0858722 22.0321 0.0858035 22.0322 0.0857606 22.0322C0.0857396 22.0322 0.0857253 22.0322 0.0857168 22.0322C0.0857129 22.0322 0.085712 22.0322 0.0857101 22.0322C0.085711 22.0322 0.0857139 22.0322 0.185691 22.1933C0.28567 22.3544 0.285676 22.3543 0.285683 22.3543C0.285688 22.3543 0.285697 22.3543 0.285707 22.3543C0.285726 22.3543 0.285752 22.3543 0.285784 22.3543C0.285849 22.3542 0.285941 22.3542 0.286059 22.3541C0.286296 22.354 0.286639 22.3537 0.287085 22.3535C0.287978 22.3529 0.289286 22.3521 0.290989 22.351C0.294396 22.3489 0.299387 22.3458 0.305811 22.3418C0.318659 22.3337 0.337245 22.3221 0.360359 22.3075C0.406566 22.2783 0.470974 22.2373 0.543872 22.1899C0.688724 22.0959 0.870595 21.9748 1.00956 21.8716L0.896549 21.7194ZM11.8437 11.8622L11.8438 11.6726C11.0796 11.6726 10.2505 11.6135 9.45996 11.6731L9.47423 11.8622L9.48849 12.0512C10.2623 11.9928 11.0394 12.0517 11.8437 12.0517L11.8437 11.8622ZM5.39864 15.2269L5.23408 15.1328C5.01837 15.5101 4.83152 15.8974 4.65015 16.28C4.46792 16.6644 4.29181 17.0428 4.09414 17.4122L4.26127 17.5016L4.42841 17.5911C4.63152 17.2115 4.81235 16.8229 4.99274 16.4424C5.17399 16.06 5.35543 15.6844 5.56321 15.321L5.39864 15.2269ZM4.26127 17.5016L4.09414 17.4122C3.54787 18.433 2.90424 19.5499 2.17364 20.4121L2.31826 20.5346L2.46288 20.6572C3.22147 19.762 3.88094 18.6141 4.42841 17.5911L4.26127 17.5016ZM2.31826 20.5346L2.17364 20.4121C1.80353 20.8489 1.27936 21.199 0.783538 21.5672L0.896549 21.7194L1.00956 21.8716C1.4802 21.5221 2.05632 21.137 2.46288 20.6572L2.31826 20.5346ZM6.67819 13.2365L6.53863 13.1082C5.98733 13.708 5.5864 14.4452 5.22996 15.1404L5.39864 15.2269L5.56733 15.3134C5.92378 14.6181 6.30478 13.9228 6.81775 13.3648L6.67819 13.2365ZM9.47423 32.5244L9.48849 32.3354C9.08634 32.305 8.88452 32.3087 8.53477 32.2011L8.47902 32.3822L8.42328 32.5634C8.824 32.6867 9.07915 32.6847 9.45996 32.7134L9.47423 32.5244ZM8.47902 32.3822L8.53477 32.2011C8.16209 32.0864 7.96739 31.9801 7.63922 31.7526L7.53122 31.9083L7.42321 32.0641C7.77522 32.3082 8.0049 32.4347 8.42328 32.5634L8.47902 32.3822ZM7.53122 31.9083L7.63922 31.7526C7.29871 31.5165 7.10356 31.3327 6.81775 31.0218L6.67819 31.1501L6.53863 31.2784C6.83759 31.6036 7.05359 31.8079 7.42321 32.0641L7.53122 31.9083ZM0.896549 22.6672L1.00956 22.515C0.870595 22.4118 0.688723 22.2907 0.543872 22.1967C0.470974 22.1493 0.406565 22.1083 0.360358 22.0791C0.337245 22.0645 0.318658 22.0529 0.305811 22.0448C0.299387 22.0408 0.294396 22.0377 0.290988 22.0356C0.289285 22.0345 0.287978 22.0337 0.287084 22.0331C0.286638 22.0328 0.286295 22.0326 0.286059 22.0325C0.285941 22.0324 0.285848 22.0324 0.285783 22.0323C0.285751 22.0323 0.285725 22.0323 0.285706 22.0323C0.285697 22.0323 0.285687 22.0323 0.285682 22.0323C0.285675 22.0322 0.285669 22.0322 0.185691 22.1933C0.0857139 22.3544 0.085712 22.3544 0.085711 22.3544C0.0857129 22.3544 0.0857139 22.3544 0.0857177 22.3544C0.0857253 22.3544 0.0857406 22.3544 0.0857616 22.3544C0.0858035 22.3544 0.0858731 22.3545 0.0859685 22.3545C0.0861602 22.3546 0.0864568 22.3548 0.0868564 22.3551C0.0876565 22.3556 0.0888686 22.3563 0.0904756 22.3573C0.0936885 22.3593 0.0984759 22.3623 0.104688 22.3662C0.117114 22.374 0.135229 22.3853 0.157831 22.3996C0.203054 22.4282 0.266135 22.4684 0.337468 22.5147C0.481078 22.6079 0.654635 22.7237 0.783537 22.8194L0.896549 22.6672ZM11.8437 32.5244L11.8437 32.3349C11.0394 32.3349 10.2623 32.3938 9.48849 32.3354L9.47423 32.5244L9.45996 32.7134C10.2505 32.7731 11.0796 32.714 11.8437 32.714L11.8437 32.5244ZM5.39864 29.1597L5.56321 29.0656C5.35543 28.7022 5.17399 28.3266 4.99274 27.9442C4.81235 27.5637 4.63152 27.1751 4.42841 26.7955L4.26127 26.885L4.09414 26.9744C4.29181 27.3438 4.46792 27.7222 4.65015 28.1066C4.83152 28.4892 5.01837 28.8765 5.23408 29.2538L5.39864 29.1597ZM4.26127 26.885L4.42841 26.7955C3.88094 25.7725 3.22147 24.6246 2.46288 23.7294L2.31826 23.852L2.17364 23.9745C2.90424 24.8367 3.54787 25.9536 4.09414 26.9744L4.26127 26.885ZM2.31826 23.852L2.46288 23.7294C2.05632 23.2496 1.4802 22.8645 1.00956 22.515L0.896549 22.6672L0.783538 22.8194C1.27936 23.1876 1.80353 23.5377 2.17364 23.9745L2.31826 23.852ZM6.67819 31.1501L6.81775 31.0218C6.30478 30.4638 5.92378 29.7685 5.56733 29.0732L5.39864 29.1597L5.22996 29.2462C5.5864 29.9414 5.98733 30.6786 6.53863 31.2784L6.67819 31.1501Z" fill="#280F0B"/>
</svg>
