<svg width="47" height="45" viewBox="0 0 47 45" fill="none" xmlns="http://www.w3.org/2000/svg">
<circle cx="22.9758" cy="22.3684" r="15.5441" stroke="#280F0B" stroke-width="0.379124"/>
<circle cx="22.9308" cy="22.4159" r="12.8428" stroke="#280F0B" stroke-width="0.379124"/>
<path d="M22.9324 44.405C22.6439 43.7487 22.1194 43.3641 21.6055 42.8885C20.7342 42.0821 19.6884 41.4165 18.6199 40.8981L18.5961 40.8865C18.0548 40.6239 17.5602 40.384 17.056 40.045C16.6597 39.7786 16.2331 39.5108 15.9186 39.1446C15.7179 38.9109 15.6132 38.7644 15.4921 38.4812C15.1638 37.7134 15.3026 36.8255 15.3026 36.0168M22.9798 44.405C23.2684 43.7487 23.7929 43.3641 24.3067 42.8885C25.178 42.0821 26.2238 41.4165 27.2923 40.8981L27.3162 40.8865C27.8575 40.6239 28.352 40.384 28.8562 40.045C29.2526 39.7786 29.6791 39.5108 29.9936 39.1446C30.1943 38.9109 30.299 38.7644 30.4201 38.4812C30.7484 37.7134 30.6097 36.8255 30.6097 36.0168" stroke="#280F0B" stroke-width="0.379124" stroke-linecap="round"/>
<path d="M41.8026 33.6982C41.0921 33.602 40.4904 33.8488 39.8166 34.0391C38.6741 34.3617 37.5607 34.9067 36.5609 35.5479L36.5387 35.5621C36.0322 35.887 35.5696 36.1837 35.0173 36.437C34.5833 36.6362 34.1322 36.8604 33.6558 36.9376C33.3517 36.9869 33.1721 36.9998 32.8673 36.9554C32.041 36.835 31.4828 36.344 30.793 35.9222M41.8273 33.6577C41.4179 33.0692 41.3634 32.4211 41.2258 31.7345C40.9924 30.5705 40.9701 29.3311 41.0852 28.1491L41.0878 28.1227C41.1462 27.5239 41.1995 26.9769 41.1733 26.3698C41.1528 25.8927 41.1469 25.3891 40.9985 24.9298C40.9039 24.6366 40.8334 24.4708 40.655 24.2198C40.1713 23.5392 39.2549 23.0747 38.565 22.6528" stroke="#280F0B" stroke-width="0.379124" stroke-linecap="round"/>
<path d="M42.0682 11.2982C41.6471 11.8784 41.5796 12.5253 41.4283 13.2089C41.1716 14.368 41.1245 15.6068 41.2159 16.7909L41.218 16.8173C41.2643 17.4171 41.3067 17.9651 41.2684 18.5715C41.2383 19.0481 41.2223 19.5516 41.0648 20.0078C40.9642 20.299 40.8905 20.4633 40.7071 20.7108C40.2099 21.3816 39.3608 21.8183 38.6626 22.2263M42.0443 11.2573C41.3321 11.3392 40.7354 11.0804 40.0655 10.8766C38.9297 10.5312 37.8274 9.96403 36.8407 9.30297L36.8187 9.28824C36.3189 8.95334 35.8623 8.6474 35.3152 8.38303C34.8853 8.17525 34.4388 7.94205 33.964 7.85527C33.661 7.79988 33.4816 7.78342 33.176 7.82172C32.3475 7.92555 31.6508 8.49333 30.9526 8.90128" stroke="#280F0B" stroke-width="0.379124" stroke-linecap="round"/>
<path d="M22.997 0.189686C23.2855 0.845974 23.81 1.23059 24.3239 1.70618C25.1952 2.51255 26.2409 3.17816 27.3095 3.69658L27.3333 3.70813C27.8746 3.97074 28.3691 4.21064 28.8734 4.54961C29.2697 4.81604 29.6963 5.08387 30.0108 5.45003C30.2114 5.6837 30.3162 5.83029 30.4373 6.11349C30.7656 6.8812 30.5977 7.91133 30.5977 8.71997M22.9496 0.189686C22.661 0.845974 22.1365 1.23059 21.6226 1.70618C20.7513 2.51256 19.7056 3.17816 18.637 3.69658L18.6132 3.70813C18.0719 3.97074 17.5774 4.21064 17.0732 4.54961C16.6768 4.81604 16.2502 5.08387 15.9358 5.45003C15.7351 5.6837 15.6304 5.83029 15.5093 6.1135C15.1809 6.8812 15.3854 7.91133 15.3854 8.71997" stroke="#280F0B" stroke-width="0.379124" stroke-linecap="round"/>
<path d="M3.94998 11.2456C4.66196 11.3297 5.25941 11.0726 5.92989 10.8708C7.06671 10.5287 8.17065 9.96483 9.15929 9.30669L9.18132 9.29203C9.68214 8.95861 10.1396 8.65402 10.6875 8.39127C11.1181 8.18476 11.5652 7.95288 12.0403 7.8675C12.3434 7.81301 12.5229 7.79708 12.8284 7.83628C13.6566 7.94256 14.3516 8.51239 15.0485 8.92241M3.92595 11.2864C4.34531 11.8679 4.41087 12.515 4.56023 13.1991C4.81348 14.3589 4.85694 15.5978 4.76197 16.7817L4.75985 16.808C4.71173 17.4078 4.66776 17.9556 4.70425 18.5621C4.73293 19.0388 4.74749 19.5423 4.90364 19.999C5.0033 20.2905 5.07655 20.455 5.25924 20.703C5.75446 21.3753 6.64366 21.8634 7.34065 22.2734" stroke="#280F0B" stroke-width="0.379124" stroke-linecap="round"/>
<path d="M3.99527 33.7331C4.40817 33.147 4.46659 32.4993 4.60838 31.8136C4.84879 30.651 4.87856 29.4117 4.77052 28.229L4.76811 28.2026C4.71336 27.6035 4.66335 27.0561 4.69313 26.4493C4.71655 25.9723 4.72554 25.4687 4.87664 25.0103C4.97307 24.7177 5.04449 24.5524 5.22443 24.3024C5.7122 23.6247 6.69224 23.1651 7.38465 22.7474M4.01975 33.7737C4.73075 33.6818 5.33101 33.9322 6.00368 34.1266C7.1442 34.4561 8.25431 35.0077 9.25016 35.6549L9.27235 35.6693C9.77682 35.9972 10.2377 36.2967 10.7884 36.5534C11.2212 36.7551 11.6709 36.9821 12.1469 37.0622C12.4506 37.1133 12.6302 37.1273 12.9353 37.0847C13.7622 36.9693 14.4509 36.3918 15.1433 35.9741" stroke="#280F0B" stroke-width="0.379124" stroke-linecap="round"/>
<circle cx="22.9687" cy="19.4303" r="9.85722" stroke="#280F0B" stroke-width="0.379124"/>
</svg>
