<svg width="45" height="28" viewBox="0 0 45 28" fill="none" xmlns="http://www.w3.org/2000/svg">
<path d="M29.375 24.9258C29.375 24.9258 30.2778 25.3743 30.8963 25.5431C31.4764 25.7014 31.8184 25.7316 32.4177 25.7805C33.0838 25.8349 33.4792 25.9361 34.1292 25.7805C34.8236 25.6143 35.7456 24.9258 35.7456 24.9258C35.7456 24.9258 36.6342 24.0402 37.1243 23.4064C37.5996 22.7918 37.8385 22.4225 38.2178 21.7444C38.5783 21.1 39.026 20.0351 39.026 20.0351L39.9293 18.2782C40.3378 17.5921 40.5668 17.2074 40.9752 16.5213C41.3837 15.8352 41.5326 15.7226 41.9736 15.2867C42.3487 14.9159 43.0195 14.432 43.0195 14.432L44.2556 13.6248C44.2556 13.6248 43.4923 13.0882 43.0195 12.7226C42.4669 12.2953 42.0937 12.1149 41.6408 11.583C41.3373 11.2266 40.7013 10.3312 40.7013 10.3312L40.1195 9.35133L39.4539 8.11677C39.4539 8.11677 39.0517 7.3047 38.7883 6.78724C38.5136 6.24754 38.3775 5.93493 38.0752 5.41022C37.7335 4.81728 37.5327 4.48736 37.1243 3.93824C36.7784 3.47317 36.6002 3.19086 36.1735 2.79865C35.8018 2.45702 35.5711 2.28012 35.1276 2.03892C34.5911 1.74717 34.2564 1.61533 33.6538 1.5166C33.1041 1.42655 32.7816 1.45935 32.2275 1.5166C31.8146 1.55927 31.587 1.61703 31.1816 1.70653C30.5227 1.85201 30.2006 2.10479 29.612 2.41702" stroke="#280F0B" stroke-width="0.379124" stroke-linecap="round" stroke-linejoin="round"/>
<path d="M15.0703 24.9815C15.0703 24.9815 14.1675 25.43 13.549 25.5988C12.9689 25.7571 12.6269 25.7872 12.0276 25.8362C11.3615 25.8906 10.9661 25.9918 10.3161 25.8362C9.62168 25.6699 8.6997 24.9815 8.6997 24.9815C8.6997 24.9815 7.81111 24.0959 7.32098 23.462C6.84575 22.8474 6.6068 22.4781 6.22752 21.8001C5.86703 21.1557 5.41931 20.0907 5.41931 20.0907L4.51601 18.3338C4.10756 17.6477 3.87855 17.2631 3.47009 16.577C3.06163 15.8909 2.91268 15.7783 2.47171 15.3424C2.09657 14.9716 1.42579 14.4877 1.42579 14.4877L0.189702 13.6805C0.189702 13.6805 0.953039 13.1439 1.42579 12.7783C1.97837 12.351 2.35164 12.1706 2.80451 11.6387C3.10803 11.2822 3.74399 10.3869 3.74399 10.3869L4.32585 9.40699L4.99143 8.17243C4.99143 8.17243 5.39361 7.36036 5.65702 6.8429C5.93174 6.30321 6.06779 5.9906 6.37015 5.46589C6.71183 4.87294 6.91258 4.54303 7.32098 3.99391C7.66689 3.52883 7.84508 3.24653 8.27182 2.85431C8.64352 2.51269 8.87425 2.33579 9.31774 2.09458C9.85417 1.80283 10.1889 1.67099 10.7915 1.57226C11.3412 1.48221 11.6638 1.51502 12.2178 1.57226C12.6307 1.61493 12.8583 1.67269 13.2637 1.7622C13.9226 1.90767 14.4817 2.10454 15.0703 2.41678" stroke="#280F0B" stroke-width="0.379124" stroke-linecap="round" stroke-linejoin="round"/>
<path d="M33.4069 7.10864H11.0859L22.3175 26.7283L33.4069 7.10864Z" stroke="#280F0B" stroke-width="0.379124" stroke-linejoin="round"/>
<path d="M22.2695 0.189453C29.4887 0.189563 35.3484 6.18947 35.3486 13.6006C35.3486 21.0119 29.4888 27.0126 22.2695 27.0127C15.0502 27.0127 9.18945 21.012 9.18945 13.6006C9.18971 6.1894 15.0503 0.189453 22.2695 0.189453Z" stroke="#280F0B" stroke-width="0.379124"/>
</svg>
