<svg width="45" height="45" viewBox="0 0 45 45" fill="none" xmlns="http://www.w3.org/2000/svg">
<path d="M17.6057 38.3201C17.6057 38.9438 17.403 39.7713 17.6057 40.3579C17.7234 40.6983 18.0079 40.8921 18.2692 41.1161C18.2692 41.1161 18.9387 41.5829 19.3118 41.7322L20.1174 42.1587C20.1174 42.1587 20.57 42.39 20.8283 42.5852C21.0478 42.7511 21.3496 43.0591 21.3496 43.0591L21.6339 43.3908L21.8709 43.7226L22.1078 44.0069L22.3448 43.6752L22.5817 43.3435L22.8661 43.0117C22.8661 43.0117 23.1679 42.7037 23.3874 42.5378C23.6457 42.3426 24.0982 42.1113 24.0982 42.1113L24.9039 41.6848C25.277 41.5355 25.9465 41.0687 25.9465 41.0687C26.2078 40.8447 26.4923 40.6509 26.6099 40.3105C26.8127 39.7239 26.6099 39.1731 26.5151 38.4622" stroke="#280F0B" stroke-width="0.379124" stroke-linecap="round" stroke-linejoin="round"/>
<path d="M26.4168 38.5548C26.7509 39.0816 27.0688 40.0207 27.5542 40.4075C27.8359 40.6319 28.0655 40.7868 28.4061 40.836C28.4061 40.836 29.2215 40.8717 29.6166 40.7979L30.5253 40.7267C30.5253 40.7267 31.0314 40.6797 31.3541 40.7062C31.6283 40.7287 32.0481 40.8272 32.0481 40.8272L32.4659 40.9551L32.8437 41.1084L33.1961 41.2216L33.2185 40.8145L33.241 40.4075L33.3034 39.9751C33.3034 39.9751 33.3933 39.5533 33.4899 39.2957C33.6035 38.9925 33.8618 38.5548 33.8618 38.5548L34.3137 37.7631C34.5489 37.4373 34.8643 36.6845 34.8643 36.6845C34.965 36.3554 35.1014 36.0393 35.0185 35.6888C34.8756 35.0849 34.4281 34.7238 34.0941 34.197" stroke="#280F0B" stroke-width="0.379124" stroke-linecap="round" stroke-linejoin="round"/>
<path d="M34.0909 34.2308C34.6197 34.5617 35.3088 35.2656 35.9136 35.4048C36.2646 35.4856 36.5798 35.3473 36.9083 35.2446C36.9083 35.2446 37.6592 34.9247 37.9836 34.6875L38.7725 34.2308C38.7725 34.2308 39.2087 33.9698 39.5111 33.8544C39.7682 33.7563 40.1894 33.6639 40.1894 33.6639L40.6214 33.5988L41.0283 33.5739L41.3951 33.5238L41.2395 33.147L41.084 32.7702L40.9536 32.3531C40.9536 32.3531 40.8526 31.9339 40.8284 31.6599C40.7999 31.3374 40.8439 30.831 40.8439 30.831L40.9096 29.9218C40.981 29.5263 40.9404 28.7112 40.9404 28.7112C40.8891 28.3708 40.8757 28.0269 40.6495 27.7466C40.2598 27.2635 39.1218 27.0874 38.593 26.7566" stroke="#280F0B" stroke-width="0.379124" stroke-linecap="round" stroke-linejoin="round"/>
<path d="M38.5511 26.7848C39.1672 26.8987 40.1653 27.0008 40.7471 26.7848C41.0848 26.6595 41.2721 26.3707 41.4901 26.1044C41.4901 26.1044 41.9417 25.4245 42.0824 25.0481L42.4906 24.233C42.4906 24.233 42.7116 23.7753 42.9009 23.5126C43.0617 23.2894 43.3628 22.9807 43.3628 22.9807L43.688 22.6889L44.0143 22.4445L44.2932 22.2012L43.9562 21.9718L43.6192 21.7425L43.2811 21.4657C43.2811 21.4657 42.9663 21.171 42.7955 20.9553C42.5945 20.7015 42.353 20.2543 42.353 20.2543L41.9083 19.4585C41.7506 19.0889 41.2688 18.4301 41.2688 18.4301C41.0389 18.174 40.8387 17.894 40.4957 17.784C39.9047 17.5946 39.2715 17.8118 38.6479 17.8259" stroke="#280F0B" stroke-width="0.379124" stroke-linecap="round" stroke-linejoin="round"/>
<path d="M38.5948 17.9955C39.1411 17.6943 39.9636 17.4724 40.3794 17.0117C40.6207 16.7443 40.6531 16.4016 40.7231 16.0646C40.7231 16.0646 40.8088 15.2529 40.7593 14.8541L40.7439 13.9427C40.7439 13.9427 40.728 13.4346 40.7742 13.1142C40.8135 12.8419 40.9376 12.4289 40.9376 12.4289L41.0908 12.0197L41.267 11.6521L41.4016 11.3073L40.9967 11.2599L40.5918 11.2126L40.164 11.1237C40.164 11.1237 39.7485 11.0081 39.4973 10.896C39.2017 10.764 38.7806 10.4794 38.7806 10.4794L38.0181 9.97974C37.7073 9.72504 36.9753 9.36412 36.9753 9.36412C36.6529 9.2434 36.3459 9.08787 35.9909 9.14916C35.3794 9.25476 34.7893 9.86871 34.2431 10.1699" stroke="#280F0B" stroke-width="0.379124" stroke-linecap="round" stroke-linejoin="round"/>
<path d="M34.2876 10.2173C34.6021 9.67864 35.3234 8.98997 35.444 8.38121C35.514 8.0279 35.3661 7.71708 35.2534 7.39187C35.2534 7.39187 34.9106 6.65116 34.6637 6.33415L34.183 5.5596C34.183 5.5596 33.9088 5.13164 33.7842 4.83284C33.6783 4.57892 33.573 4.16074 33.573 4.16074L33.4947 3.7309L33.4573 3.32494L33.396 2.95992L33.0242 3.12692L32.6523 3.29392L32.2394 3.43702C32.2394 3.43702 31.8235 3.55085 31.5503 3.58343C31.2289 3.62176 30.7214 3.59333 30.7214 3.59333L29.8106 3.55544C29.4131 3.49619 28.5996 3.56177 28.5996 3.56177C28.261 3.62344 27.9176 3.6474 27.6443 3.88204C27.1735 4.28634 26.8774 5.22393 26.5629 5.76261" stroke="#280F0B" stroke-width="0.379124" stroke-linecap="round" stroke-linejoin="round"/>
<path d="M26.564 5.90497C26.6624 5.28889 26.8628 4.44443 26.6624 3.85705C26.5462 3.51615 26.2625 3.32116 26.0021 3.09608C26.0021 3.09608 25.3345 2.62651 24.962 2.47574L24.1581 2.04592C24.1581 2.04592 23.7065 1.81275 23.449 1.6165C23.2302 1.44972 22.9297 1.14046 22.9297 1.14046L22.6467 0.807564L22.4111 0.474862L22.1753 0.18955L21.937 0.520309L21.6987 0.851068L21.413 1.18163C21.413 1.18163 21.11 1.48842 20.8898 1.6534C20.6307 1.84753 20.1772 2.07699 20.1772 2.07699L19.3698 2.5002C18.9961 2.64791 18.3247 3.112 18.3247 3.112C18.0624 3.33493 17.7772 3.52759 17.6581 3.86752C17.453 4.45324 17.6581 5.28885 17.8442 5.90493" stroke="#280F0B" stroke-width="0.379124" stroke-linecap="round" stroke-linejoin="round"/>
<path d="M17.8504 5.76151C17.5425 5.219 17.3105 4.39925 16.8447 3.98917C16.5743 3.75118 16.2313 3.72298 15.8934 3.65713C15.8934 3.65713 15.0808 3.58151 14.6826 3.63585L13.7714 3.66249C13.7714 3.66249 13.2636 3.68466 12.9427 3.64236C12.6699 3.60642 12.2554 3.48746 12.2554 3.48746L11.8444 3.33927L11.4746 3.16769L11.1282 3.03733L11.0858 3.44279L11.0434 3.84825L10.9598 4.2771C10.9598 4.2771 10.8494 4.69394 10.7403 4.94654C10.612 5.24377 10.3326 5.66831 10.3326 5.66831L9.84236 6.43687C9.59151 6.75081 9.23963 7.48723 9.23963 7.48723C9.12289 7.81102 8.97114 8.11999 9.0368 8.47414C9.14993 9.08435 9.84236 9.74338 10.2584 10.2173" stroke="#280F0B" stroke-width="0.379124" stroke-linecap="round" stroke-linejoin="round"/>
<path d="M10.2382 10.1845C9.70953 9.85344 9.11589 9.24237 8.51117 9.10286C8.1602 9.02189 7.84494 9.16008 7.51638 9.26265C7.51638 9.26265 6.76538 9.58223 6.44084 9.81922L5.65174 10.2756C5.65174 10.2756 5.21546 10.5363 4.91294 10.6516C4.65584 10.7496 4.2346 10.8419 4.2346 10.8419L3.80252 10.9068L3.39561 10.9315L3.02885 10.9814L3.18422 11.3583L3.33958 11.7352L3.46979 12.1522C3.46979 12.1522 3.57064 12.5715 3.59471 12.8456C3.62303 13.1681 3.57884 13.6744 3.57884 13.6744L3.51266 14.5836C3.44109 14.979 3.48136 15.7942 3.48136 15.7942C3.53248 16.1346 3.54576 16.4785 3.77179 16.759C4.16126 17.2422 5.37768 17.705 5.94637 17.8945" stroke="#280F0B" stroke-width="0.379124" stroke-linecap="round" stroke-linejoin="round"/>
<path d="M6.0354 17.8471C5.41932 17.7049 4.51172 17.4392 3.9215 17.631C3.57896 17.7424 3.37989 18.0232 3.15107 18.2803C3.15107 18.2803 2.6719 18.941 2.51576 19.3113L2.07437 20.1089C2.07437 20.1089 1.83469 20.5571 1.63474 20.8117C1.46481 21.0281 1.15124 21.3241 1.15124 21.3241L0.81429 21.6023L0.478217 21.833L0.189527 22.0646L0.516806 22.3077L0.844086 22.5508L1.17049 22.8412C1.17049 22.8412 1.47286 23.1487 1.63464 23.3712C1.825 23.6331 2.04789 24.0899 2.04789 24.0899L2.45938 24.9033C2.60168 25.2791 3.05601 25.9571 3.05601 25.9571C3.27512 26.2226 3.46364 26.5106 3.80181 26.6346C4.3845 26.8482 5.41933 26.7565 6.0354 26.6346" stroke="#280F0B" stroke-width="0.379124" stroke-linecap="round" stroke-linejoin="round"/>
<path d="M5.94946 26.5671C5.33339 26.7093 4.54264 26.8511 4.1123 27.3185C3.86254 27.5898 3.8251 27.9358 3.74936 28.2762C3.74936 28.2762 3.65166 29.0956 3.69707 29.4977L3.70126 30.4172C3.70126 30.4172 3.71107 30.9296 3.65979 31.2532C3.61621 31.5281 3.48433 31.9456 3.48433 31.9456L3.32269 32.3594L3.13821 32.7314L2.9964 33.0801L3.4092 33.1254L3.822 33.1706L4.25763 33.2576C4.25763 33.2576 4.68032 33.3716 4.93541 33.4831C5.23556 33.6144 5.66185 33.8989 5.66185 33.8989L6.43396 34.3982C6.74808 34.6532 7.49089 35.0128 7.49089 35.0128C7.81845 35.1325 8.12999 35.2875 8.49313 35.2234C9.11886 35.1131 9.7407 34.5287 10.262 34.0074" stroke="#280F0B" stroke-width="0.379124" stroke-linecap="round" stroke-linejoin="round"/>
<path d="M10.2184 33.8651C9.74067 34.3864 9.09102 35.1058 8.96807 35.7141C8.89671 36.0671 9.04345 36.3785 9.15496 36.7041C9.15496 36.7041 9.49491 37.4461 9.74067 37.7641L10.2184 38.5404C10.2184 38.5404 10.491 38.9694 10.6145 39.2687C10.7194 39.523 10.8232 39.9416 10.8232 39.9416L10.8998 40.3717L10.9356 40.7778L10.9955 41.1431L11.368 40.9775L11.7406 40.8119L12.1539 40.6704C12.1539 40.6704 12.5703 40.5581 12.8436 40.5266C13.1652 40.4894 13.6726 40.5198 13.6726 40.5198L14.5832 40.5611C14.9804 40.6219 15.7942 40.5594 15.7942 40.5594C16.1331 40.499 16.4765 40.4763 16.7507 40.2427C17.2231 39.8402 17.4645 39.078 17.654 38.4146" stroke="#280F0B" stroke-width="0.379124" stroke-linecap="round" stroke-linejoin="round"/>
<circle cx="22.3017" cy="22.1596" r="16.7762" stroke="#280F0B" stroke-width="0.379124" stroke-linejoin="round"/>
<path d="M36.6621 30.5007H8.03125L22.3467 5.76147L36.6621 30.5007Z" stroke="#280F0B" stroke-width="0.379124" stroke-linejoin="round"/>
<path d="M36.4548 13.8864L22.2582 38.5594L7.98858 13.9286L36.4548 13.8864Z" stroke="#280F0B" stroke-width="0.379124" stroke-linejoin="round"/>
</svg>
