<svg width="47" height="45" viewBox="0 0 47 45" fill="none" xmlns="http://www.w3.org/2000/svg">
<circle cx="22.3273" cy="22.3212" r="16.2549" stroke="#280F0B" stroke-width="0.379124"/>
<path d="M8.4082 14.2878L36.2344 14.2878L22.3213 38.3875L8.4082 14.2878Z" stroke="#280F0B" stroke-width="0.379124" stroke-linejoin="round"/>
<path d="M17.3542 37.8176C17.3542 37.8176 17.3014 38.339 17.2594 38.6233C17.1963 39.0498 17.1172 39.1446 17.1172 39.5711C17.1172 39.9458 17.2436 40.158 17.4489 40.4715C17.9548 41.244 19.008 41.7434 19.8184 42.0828C20.3989 42.373 20.8506 42.6414 21.3349 43.078C21.5682 43.2882 21.9036 43.6467 21.9036 43.6467L22.3301 44.2153M27.5431 37.8176L27.5905 38.5759C27.5905 38.5759 27.6551 39.1592 27.5905 39.5237C27.5251 39.8927 27.464 40.1106 27.2587 40.4241C26.7529 41.1966 25.6997 41.696 24.8892 42.0354C24.3087 42.3256 23.8571 42.5941 23.3727 43.0306C23.1394 43.2408 22.804 43.5993 22.804 43.5993L22.3775 44.168" stroke="#280F0B" stroke-width="0.379124" stroke-linecap="round"/>
<path d="M27.54 37.8651C27.6926 38.2453 27.6799 38.4356 27.8833 38.7912C28.0672 39.1124 28.1821 39.2963 28.4527 39.5489C28.7267 39.8046 28.9064 39.9421 29.2589 40.0694C30.1274 40.383 31.2694 40.1496 32.1211 39.9339C32.7596 39.8172 33.2819 39.7605 33.9313 39.8184C34.2442 39.8464 34.7276 39.9314 34.7276 39.9314L35.4102 40.1298M35.6392 31.8362L36.2274 32.4612C36.2274 32.4612 36.6295 32.8888 36.7968 33.2189C36.9662 33.5532 37.0484 33.7641 37.0726 34.138C37.1323 35.0595 36.5904 36.0915 36.1463 36.8497C35.8567 37.4304 35.6569 37.9164 35.5319 38.5563C35.4717 38.8646 35.419 39.3526 35.419 39.3526L35.4196 40.0634" stroke="#280F0B" stroke-width="0.379124" stroke-linecap="round"/>
<path d="M35.5897 31.8465L36.4045 32.321C36.4045 32.321 36.9364 32.5691 37.3023 32.6246C37.6728 32.6809 37.8988 32.6929 38.2616 32.5988C39.1554 32.3671 39.9659 31.5294 40.547 30.8704C41.0079 30.4134 41.4069 30.0716 41.9755 29.7526C42.2495 29.5989 42.6964 29.396 42.6964 29.396L43.3718 29.1742M38.7175 22.2736L39.7146 22.3845C39.7146 22.3845 40.2879 22.5102 40.6125 22.6881C40.9411 22.8683 41.128 22.9959 41.3592 23.2908C41.9289 24.0175 42.0647 25.1752 42.1265 26.0516C42.2155 26.6945 42.3251 27.2083 42.5834 27.807C42.7079 28.0954 42.94 28.5279 42.94 28.5279L43.3421 29.1141" stroke="#280F0B" stroke-width="0.379124" stroke-linecap="round"/>
<path d="M38.7645 22.1927C38.7645 22.1927 39.2407 22.2328 39.5414 22.1927C39.9083 22.1439 40.1185 22.0855 40.4486 21.9181C40.7828 21.7486 40.9737 21.627 41.2143 21.3397C41.8071 20.6317 41.9799 19.479 42.0699 18.605C42.1795 17.9653 42.3055 17.4553 42.583 16.8652C42.7166 16.581 42.9625 16.1561 42.9625 16.1561L43.3832 15.5831M35.6367 12.7483C35.4472 12.8905 36.4615 12.1824 36.4615 12.1824C36.4615 12.1824 37.0011 11.9516 37.3686 11.9078C37.7407 11.8635 37.967 11.8588 38.3265 11.9644C39.2125 12.2248 39.9957 13.0881 40.5553 13.7654C41.0012 14.2369 41.389 14.5914 41.9472 14.9285C42.216 15.0909 42.6562 15.3081 42.6562 15.3081L43.3241 15.5515" stroke="#280F0B" stroke-width="0.379124" stroke-linecap="round"/>
<path d="M35.6423 12.843L36.3522 12.173C36.3522 12.173 36.76 11.7509 36.9317 11.423C37.1055 11.091 37.1905 10.8812 37.2197 10.5076C37.2916 9.58701 36.7636 8.54791 36.3297 7.78389C36.0478 7.19931 35.8545 6.71076 35.7381 6.06919C35.682 5.76016 35.6357 5.27149 35.6357 5.27149L35.6459 4.5607M27.6333 6.77698L28.0354 5.80734C28.0354 5.80734 28.3409 5.30623 28.6148 5.05731C28.8922 4.80529 29.0737 4.67015 29.4278 4.54759C30.3005 4.24556 31.4392 4.49425 32.288 4.72121C32.9248 4.84643 33.4464 4.91013 34.0965 4.86083C34.4097 4.83708 34.8942 4.75849 34.8942 4.75849L35.5794 4.56923" stroke="#280F0B" stroke-width="0.379124" stroke-linecap="round"/>
<path d="M27.7692 6.87158L27.94 5.7816C27.94 5.7816 28.0046 5.19826 27.94 4.83379C27.8747 4.4648 27.8136 4.24687 27.6083 3.93337C27.1024 3.16085 26.0492 2.66144 25.2388 2.3221C24.6583 2.03186 24.2067 1.76342 23.7223 1.3269C23.489 1.11663 23.1536 0.758211 23.1536 0.758211L22.7271 0.189525M17.5615 6.68202L17.4667 5.82899C17.4667 5.82899 17.4022 5.24565 17.4667 4.88118C17.5321 4.51219 17.5932 4.29426 17.7985 3.98076C18.3044 3.20825 19.3576 2.70883 20.168 2.36949C20.7485 2.07925 21.2001 1.81081 21.6845 1.37429C21.9178 1.16402 22.2532 0.805602 22.2532 0.805602L22.6797 0.236916" stroke="#280F0B" stroke-width="0.379124" stroke-linecap="round"/>
<path d="M17.6282 6.63485L17.2354 5.78652C17.2354 5.78652 16.9323 5.28391 16.6596 5.03364C16.3835 4.78027 16.2026 4.64424 15.8491 4.51994C14.978 4.21362 13.838 4.45672 12.9881 4.67949C12.3507 4.80158 11.8289 4.86272 11.1789 4.81022C10.8659 4.78493 10.3817 4.70396 10.3817 4.70396L9.69747 4.51134M9.28747 12.5587L8.94489 12.1865C8.94489 12.1865 8.53922 11.7624 8.36912 11.4336C8.1969 11.1008 8.113 10.8906 8.08563 10.5169C8.01819 9.59593 8.55138 8.55943 8.989 7.79755C9.27378 7.21437 9.46947 6.72678 9.58903 6.08579C9.64662 5.77704 9.69529 5.2886 9.69529 5.2886L9.68861 4.57777" stroke="#280F0B" stroke-width="0.379124" stroke-linecap="round"/>
<path d="M9.27532 12.5789L8.4904 12.2318C8.4904 12.2318 7.95356 11.9946 7.58656 11.9464C7.215 11.8977 6.98881 11.8903 6.62805 11.9917C5.73907 12.2416 4.94576 13.0955 4.37818 13.7662C3.92665 14.2324 3.53471 14.5823 2.97262 14.9128C2.70187 15.072 2.25911 15.2839 2.25911 15.2839L1.58841 15.5194M5.96736 22.3685L5.38266 22.2335C5.38266 22.2335 4.80693 22.1194 4.47882 21.9481C4.14663 21.7747 3.95719 21.6509 3.72004 21.3607C3.13565 20.6457 2.97646 19.491 2.89684 18.616C2.79482 17.9751 2.6748 17.4636 2.40434 16.8703C2.27407 16.5845 2.03324 16.1568 2.03324 16.1568L1.61933 15.5789" stroke="#280F0B" stroke-width="0.379124" stroke-linecap="round"/>
<path d="M6.06609 22.416L5.3445 22.5706C5.3445 22.5706 4.76856 22.6836 4.44013 22.8543C4.10761 23.0271 3.91794 23.1506 3.68025 23.4403C3.09452 24.1542 2.93316 25.3085 2.8519 26.1834C2.74867 26.8241 2.6277 27.3354 2.35613 27.9282C2.22532 28.2137 1.98369 28.641 1.98369 28.641L1.5687 29.2182M9.33603 32.1784L8.52391 32.5498C8.52391 32.5498 7.98663 32.786 7.61954 32.8334C7.24789 32.8815 7.02168 32.8884 6.66111 32.7864C5.7726 32.5348 4.9809 31.6794 4.41458 31.0076C3.96393 30.5406 3.57264 30.19 3.01117 29.8584C2.74072 29.6987 2.29836 29.486 2.29836 29.486L1.6281 29.2492" stroke="#280F0B" stroke-width="0.379124" stroke-linecap="round"/>
<path d="M9.34344 32.2256L8.8766 32.6796C8.8766 32.6796 8.47554 33.1081 8.30901 33.4387C8.14041 33.7733 8.05879 33.9844 8.03547 34.3584C7.978 35.2801 8.52239 36.3107 8.96822 37.0678C9.2593 37.6479 9.46026 38.1333 9.58676 38.773C9.64769 39.0811 9.70164 39.569 9.70164 39.569L9.70267 40.2799M17.3524 37.8651C17.3524 37.8651 17.305 38.2916 17.2103 38.7655C17.1377 39.1285 16.9951 39.4194 16.7251 39.6726C16.4517 39.929 16.2723 40.0669 15.9202 40.1951C15.0524 40.5108 13.9099 40.2801 13.0576 40.0665C12.4189 39.9513 11.8965 39.8958 11.2471 39.9554C10.9344 39.984 10.4511 40.0703 10.4511 40.0703L9.769 40.2703" stroke="#280F0B" stroke-width="0.379124" stroke-linecap="round"/>
</svg>
