<svg width="47" height="44" viewBox="0 0 47 44" fill="none" xmlns="http://www.w3.org/2000/svg">
<circle cx="21.7705" cy="21.5659" r="7.12147" stroke="#280F0B" stroke-width="0.360581" stroke-linejoin="round"/>
<path d="M14.6443 20.6646C14.6443 20.6646 14.0308 20.7357 13.6527 20.8448C13.2507 20.9608 13.0264 21.0466 12.6611 21.2505C12.3412 21.429 11.8948 21.7914 11.8948 21.7914C11.8948 21.7914 11.4708 22.2175 11.3089 22.5576C11.1456 22.9007 11.1383 23.1281 11.0835 23.5041C10.9947 24.1138 11.0835 25.0817 11.0835 25.0817C11.0835 25.0817 11.1399 26.1005 11.0835 26.7493C11.059 27.0321 11.0621 27.1951 10.9934 27.4705C10.9055 27.8226 10.6328 28.3269 10.6328 28.3269M19.3262 28.2858C19.3262 28.2858 18.9846 28.8003 18.7158 29.0878C18.4302 29.3935 18.252 29.5545 17.9046 29.7877C17.6005 29.9918 17.0751 30.2253 17.0751 30.2253C17.0751 30.2253 16.5031 30.4101 16.1265 30.4001C15.7467 30.3901 15.5407 30.2934 15.1807 30.1718C14.5971 29.9745 13.7747 29.4564 13.7747 29.4564C13.7747 29.4564 12.8921 28.9442 12.2883 28.7002C12.0251 28.5938 11.8813 28.5171 11.6047 28.4535C11.251 28.3722 10.6779 28.3865 10.6779 28.3865" stroke="#280F0B" stroke-width="0.360581" stroke-linecap="round"/>
<path d="M11.348 40.1372C11.348 40.1372 11.3559 39.564 11.2705 39.2113C11.2038 38.9354 11.1255 38.7924 11.0162 38.5305C10.7654 37.9294 10.2432 37.0527 10.2432 37.0527C10.2432 37.0527 10.1124 36.8502 9.95593 36.575M11.4155 40.1692C11.4155 40.1692 11.9167 39.8908 12.2678 39.799C12.5424 39.7272 12.7054 39.7285 12.9879 39.7007C13.6361 39.637 14.6555 39.6819 14.6555 39.6819C14.6555 39.6819 14.8399 39.6967 15.0983 39.7055" stroke="#280F0B" stroke-width="0.360581" stroke-linecap="round"/>
<path d="M21.826 42.9797C21.826 42.9797 21.5447 42.4802 21.2936 42.2182C21.0972 42.0132 20.9576 41.929 20.7315 41.7575C20.2125 41.364 19.3204 40.8686 19.3204 40.8686C19.3204 40.8686 19.1055 40.7593 18.8319 40.6001M21.9005 42.9734C21.9005 42.9734 22.1938 42.4808 22.4511 42.2249C22.6524 42.0248 22.794 41.9439 23.0242 41.778C23.5525 41.3971 24.4563 40.9234 24.4563 40.9234C24.4563 40.9234 24.7819 40.7224 25.0097 40.6001" stroke="#280F0B" stroke-width="0.360581" stroke-linecap="round"/>
<path d="M32.6058 40.0404C32.6058 40.0404 32.1149 39.7442 31.7674 39.6398C31.4956 39.5581 31.3326 39.5535 31.0513 39.5156C30.4058 39.4287 29.3855 39.4368 29.3855 39.4368C29.3855 39.4368 29.2941 39.5195 28.9776 39.5156M32.6675 39.9982C32.6675 39.9982 32.6802 39.4251 32.7782 39.0757C32.8548 38.8024 32.9382 38.6623 33.0569 38.4044C33.3292 37.8128 33.8826 36.9555 33.8826 36.9555C33.8826 36.9555 34.068 36.6132 34.206 36.3946" stroke="#280F0B" stroke-width="0.360581" stroke-linecap="round"/>
<path d="M39.8628 32.1899C39.8628 32.1899 39.2919 32.2432 38.9503 32.3657C38.6832 32.4614 38.5493 32.5546 38.3005 32.6912C37.7297 33.0047 36.9137 33.6173 36.9137 33.6173C36.9137 33.6173 36.5339 33.866 36.277 34.0509M39.8874 32.1193C39.8874 32.1193 39.5571 31.6507 39.4284 31.3114C39.3276 31.0461 39.3116 30.8838 39.2538 30.6059C39.1214 29.9682 39.0573 28.9498 39.0573 28.9498C39.0573 28.9498 39.0761 28.7198 39.0573 28.4619" stroke="#280F0B" stroke-width="0.360581" stroke-linecap="round"/>
<path d="M42.6531 21.7436C42.6531 21.7436 42.1404 22.0002 41.8665 22.2382C41.6522 22.4243 41.5613 22.5597 41.379 22.7772C40.9606 23.2763 40.4223 24.1432 40.4223 24.1432C40.4223 24.1432 40.4632 24.1398 40.2908 24.4054M42.6504 21.6689C42.6504 21.6689 42.1727 21.3519 41.9297 21.0824C41.7396 20.8716 41.6658 20.7262 41.5113 20.4882C41.1566 19.9419 40.7276 19.0161 40.7276 19.0161C40.7276 19.0161 40.5333 18.6893 40.4223 18.4558" stroke="#280F0B" stroke-width="0.360581" stroke-linecap="round"/>
<path d="M39.8212 11.1124C39.8212 11.1124 39.5564 11.6209 39.474 11.9743C39.4096 12.2507 39.4152 12.4137 39.3951 12.6968C39.3488 13.3464 39.4211 14.3643 39.4211 14.3643C39.4211 14.3643 39.4579 14.7593 39.474 15.0755M39.7752 11.0535C39.7752 11.0535 39.2023 11.0768 38.8475 11.001C38.5699 10.9417 38.4249 10.8672 38.1601 10.765C37.5525 10.5304 36.6621 10.032 36.6621 10.032C36.6621 10.032 36.4139 9.83586 36.187 9.71182" stroke="#280F0B" stroke-width="0.360581" stroke-linecap="round"/>
<path d="M32.2229 3.54374C32.2229 3.54374 32.2237 4.11706 32.3144 4.46842C32.3853 4.74324 32.4658 4.88503 32.579 5.14528C32.8389 5.74244 33.3744 6.6111 33.3744 6.6111C33.3744 6.6111 33.4178 6.64458 33.5785 6.91731M32.1548 3.51279C32.1548 3.51279 31.6579 3.79877 31.3083 3.89593C31.0348 3.97192 30.8718 3.9731 30.5898 4.00514C29.9426 4.07865 28.9227 4.0493 28.9227 4.0493C28.9227 4.0493 28.738 4.03728 28.4795 4.03244" stroke="#280F0B" stroke-width="0.360581" stroke-linecap="round"/>
<path d="M21.8383 0.707072C21.8383 0.707072 22.1353 1.19748 22.3945 1.45142C22.5973 1.65004 22.7395 1.72982 22.9709 1.89408C23.5021 2.271 24.4094 2.73794 24.4094 2.73794C24.4094 2.73794 24.6925 2.89049 24.971 3.04095M21.7641 0.71576C21.7641 0.71576 21.4865 1.21739 21.2374 1.48125C21.0425 1.68764 20.9035 1.77291 20.6787 1.94609C20.1627 2.34345 19.2743 2.84546 19.2743 2.84546C19.2743 2.84546 19.0199 3.00162 18.796 3.13109" stroke="#280F0B" stroke-width="0.360581" stroke-linecap="round"/>
<path d="M11.2617 3.58483C11.2617 3.58483 11.756 3.87526 12.1048 3.97556C12.3775 4.05401 12.5406 4.05665 12.8223 4.09122C13.4687 4.17056 14.4889 4.15038 14.4889 4.15038C14.4889 4.15038 14.5586 4.1503 14.8751 4.15038M11.2005 3.62775C11.2005 3.62775 11.1946 4.20104 11.1007 4.55158C11.0273 4.82575 10.9456 4.96681 10.83 5.22603C10.5647 5.82083 10.0215 6.68464 10.0215 6.68464C10.0215 6.68464 9.91738 6.83757 9.78193 7.05784" stroke="#280F0B" stroke-width="0.360581" stroke-linecap="round"/>
<path d="M3.22533 11.5496C3.22533 11.5496 3.79864 11.5523 4.15054 11.4637C4.42578 11.3944 4.56805 11.3148 4.82897 11.2031C5.42768 10.9467 6.29952 10.4165 6.29952 10.4165C6.29952 10.4165 6.30853 10.4115 6.58222 10.2524M3.19398 11.6175C3.19398 11.6175 3.47697 12.1161 3.57204 12.4663C3.6464 12.7402 3.6466 12.9033 3.67695 13.1855C3.7466 13.833 3.71115 14.8528 3.71115 14.8528C3.71115 14.8528 3.69802 15.0374 3.69164 15.2959" stroke="#280F0B" stroke-width="0.360581" stroke-linecap="round"/>
<path d="M0.609443 21.9246C0.609443 21.9246 1.09106 21.6136 1.3374 21.3471C1.53007 21.1387 1.60571 20.9943 1.76321 20.7582C2.12461 20.2164 2.56513 19.2959 2.56513 19.2959C2.56513 19.2959 2.66126 19.0748 2.8036 18.7921M0.620274 21.9986C0.620274 21.9986 1.12972 22.2616 1.40068 22.5029C1.61261 22.6917 1.70187 22.8282 1.88147 23.048C2.29359 23.5523 2.82107 24.4258 2.82107 24.4258C2.82107 24.4258 2.84152 24.4561 2.97741 24.6761" stroke="#280F0B" stroke-width="0.360581" stroke-linecap="round"/>
<path d="M3.30335 32.0514C3.30335 32.0514 3.57417 31.5461 3.66071 31.1937C3.7284 30.918 3.72465 30.755 3.74814 30.4722C3.80206 29.8231 3.74188 28.8045 3.74188 28.8045C3.74188 28.8045 3.71894 28.5645 3.7066 28.2482M3.34865 32.1109C3.34865 32.1109 3.92173 32.0944 4.27567 32.1744C4.55251 32.2369 4.69668 32.3131 4.96023 32.4185C5.56498 32.6602 6.44942 33.1691 6.44942 33.1691C6.44942 33.1691 6.84974 33.4284 7.07516 33.5551" stroke="#280F0B" stroke-width="0.360581" stroke-linecap="round"/>
<path d="M12.8251 36.4736C12.8251 36.4736 12.8464 35.9007 12.7693 35.5461C12.7091 35.2687 12.6341 35.1239 12.531 34.8595C12.2943 34.2528 11.7928 33.3641 11.7928 33.3641C11.7928 33.3641 11.2847 32.5355 11.0945 31.9495C10.9772 31.5881 10.8831 31.3809 10.8776 31.001C10.8722 30.6244 11.0639 30.0546 11.0639 30.0546C11.0639 30.0546 11.3038 29.532 11.5116 29.2304C11.6951 28.9639 11.8343 28.7982 12.0309 28.6063M12.8919 36.5072C12.8919 36.5072 13.3995 36.2406 13.7526 36.157C14.0288 36.0916 14.1917 36.0967 14.4748 36.0756C15.1242 36.0271 16.1423 36.0958 16.1423 36.0958C16.1423 36.0958 17.1091 36.1963 17.7198 36.1149C18.0964 36.0647 18.3239 36.0601 18.6689 35.901C19.011 35.7432 19.4422 35.3244 19.4422 35.3244C19.4422 35.3244 19.81 34.8824 19.9923 34.5648C20.1223 34.3384 20.2056 34.1664 20.2792 33.9718" stroke="#280F0B" stroke-width="0.360581" stroke-linecap="round"/>
<path d="M15.4378 40.073L15.5846 39.9682V39.9682L15.4378 40.073ZM15.8376 40.6799L15.999 40.5995V40.5995L15.8376 40.6799ZM16.1196 41.5653L15.9433 41.6031C15.9561 41.6629 15.9984 41.7121 16.0556 41.7338C16.1128 41.7555 16.1771 41.7468 16.2264 41.7106L16.1196 41.5653ZM14.3548 38.8048L14.2182 38.9229L14.2244 38.9293L14.3548 38.8048ZM21.469 38.9001C21.5216 38.8156 21.4958 38.7044 21.4112 38.6518C21.3267 38.5992 21.2155 38.625 21.1629 38.7095L21.3159 38.8048L21.469 38.9001ZM20.6398 39.574L20.7439 39.7213L20.7527 39.715L20.7607 39.7078L20.6398 39.574ZM17.6209 40.774L17.6781 40.945V40.945L17.6209 40.774ZM16.9409 41.0304L16.8575 40.8706L16.8575 40.8706L16.9409 41.0304ZM19.2423 40.3838L19.3097 40.551V40.551L19.2423 40.3838ZM13.2868 36.3931C13.261 36.297 13.1621 36.24 13.0659 36.2658C12.9698 36.2917 12.9128 36.3906 12.9386 36.4867L13.1127 36.4399L13.2868 36.3931ZM15.4378 40.073L15.2911 40.1778C15.4641 40.4199 15.5581 40.5231 15.6763 40.7603L15.8376 40.6799L15.999 40.5995C15.864 40.3286 15.7415 40.188 15.5846 39.9682L15.4378 40.073ZM15.8376 40.6799L15.6763 40.7603C15.7491 40.9065 15.8159 41.1139 15.8656 41.2927C15.89 41.3805 15.9096 41.4585 15.923 41.5146C15.9297 41.5425 15.9348 41.5649 15.9383 41.5802C15.94 41.5879 15.9413 41.5937 15.9421 41.5976C15.9426 41.5995 15.9429 41.601 15.9431 41.6019C15.9432 41.6023 15.9432 41.6027 15.9433 41.6029C15.9433 41.603 15.9433 41.603 15.9433 41.6031C15.9433 41.6031 15.9433 41.6031 15.9433 41.6031C15.9433 41.6031 15.9433 41.6031 15.9433 41.6031C15.9433 41.6031 15.9433 41.6031 16.1196 41.5653C16.2959 41.5275 16.2959 41.5275 16.2959 41.5275C16.2959 41.5275 16.2959 41.5274 16.2959 41.5274C16.2959 41.5274 16.2959 41.5273 16.2959 41.5273C16.2958 41.5272 16.2958 41.527 16.2958 41.5269C16.2957 41.5265 16.2956 41.526 16.2955 41.5254C16.2952 41.5242 16.2948 41.5225 16.2943 41.5202C16.2933 41.5157 16.2919 41.5092 16.29 41.5009C16.2862 41.4842 16.2807 41.4603 16.2736 41.4306C16.2595 41.3714 16.2389 41.289 16.213 41.1961C16.1622 41.0134 16.088 40.7781 15.999 40.5995L15.8376 40.6799ZM14.3548 38.8048C14.2244 38.9293 14.2244 38.9293 14.2244 38.9293C14.2244 38.9293 14.2244 38.9293 14.2244 38.9293C14.2244 38.9293 14.2244 38.9294 14.2245 38.9294C14.2245 38.9295 14.2246 38.9296 14.2248 38.9298C14.2251 38.9301 14.2256 38.9306 14.2262 38.9313C14.2275 38.9326 14.2294 38.9346 14.232 38.9373C14.2371 38.9427 14.2448 38.9508 14.2546 38.9613C14.2743 38.9822 14.303 39.0128 14.3387 39.0511C14.41 39.1279 14.509 39.2358 14.6198 39.3601C14.8424 39.61 15.1078 39.9211 15.2911 40.1778L15.4378 40.073L15.5846 39.9682C15.3894 39.6949 15.1132 39.3719 14.889 39.1202C14.7763 38.9937 14.6755 38.8839 14.6029 38.8058C14.5666 38.7667 14.5373 38.7354 14.517 38.7139C14.5068 38.7032 14.499 38.6948 14.4936 38.6892C14.4909 38.6863 14.4888 38.6841 14.4874 38.6827C14.4867 38.6819 14.4862 38.6814 14.4858 38.681C14.4856 38.6808 14.4855 38.6806 14.4854 38.6805C14.4853 38.6805 14.4853 38.6804 14.4853 38.6804C14.4853 38.6804 14.4852 38.6804 14.4852 38.6804C14.4852 38.6804 14.4852 38.6804 14.3548 38.8048ZM21.3159 38.8048L21.1629 38.7095C21.0603 38.8743 20.9017 39.0558 20.7632 39.2004C20.6949 39.2717 20.6334 39.3321 20.5891 39.3745C20.567 39.3957 20.5492 39.4124 20.537 39.4236C20.531 39.4293 20.5263 39.4335 20.5233 39.4363C20.5217 39.4377 20.5206 39.4388 20.5199 39.4394C20.5195 39.4398 20.5193 39.44 20.5191 39.4401C20.519 39.4402 20.519 39.4402 20.519 39.4403C20.519 39.4403 20.5189 39.4403 20.519 39.4403C20.519 39.4403 20.519 39.4403 20.519 39.4403C20.519 39.4402 20.519 39.4402 20.6398 39.574C20.7607 39.7078 20.7607 39.7078 20.7607 39.7078C20.7608 39.7078 20.7608 39.7077 20.7608 39.7077C20.7608 39.7077 20.7609 39.7077 20.7609 39.7076C20.761 39.7075 20.7611 39.7074 20.7612 39.7073C20.7615 39.707 20.7619 39.7067 20.7624 39.7062C20.7634 39.7053 20.7649 39.704 20.7667 39.7024C20.7703 39.699 20.7756 39.6942 20.7823 39.688C20.7957 39.6756 20.8149 39.6576 20.8385 39.6349C20.8857 39.5897 20.951 39.5257 21.0236 39.4499C21.1668 39.3004 21.3462 39.0973 21.469 38.9001L21.3159 38.8048ZM17.6209 40.774L17.5637 40.603C17.3075 40.6887 17.1258 40.7306 16.8575 40.8706L16.9409 41.0304L17.0242 41.1903C17.2592 41.0677 17.3959 41.0394 17.6781 40.945L17.6209 40.774ZM16.9409 41.0304L16.8575 40.8706C16.6864 40.9598 16.4736 41.0987 16.3079 41.2119C16.2241 41.2691 16.1505 41.321 16.0979 41.3586C16.0716 41.3774 16.0504 41.3926 16.0358 41.4032C16.0285 41.4085 16.0228 41.4127 16.019 41.4155C16.017 41.4169 16.0155 41.418 16.0145 41.4188C16.014 41.4192 16.0136 41.4194 16.0133 41.4196C16.0132 41.4198 16.0131 41.4198 16.013 41.4199C16.013 41.4199 16.0129 41.4199 16.0129 41.42C16.0129 41.42 16.0129 41.42 16.0129 41.42C16.0129 41.42 16.0128 41.42 16.1196 41.5653C16.2264 41.7106 16.2264 41.7106 16.2264 41.7106C16.2264 41.7106 16.2264 41.7106 16.2264 41.7106C16.2264 41.7106 16.2264 41.7105 16.2264 41.7105C16.2265 41.7105 16.2265 41.7104 16.2266 41.7104C16.2268 41.7102 16.2272 41.71 16.2276 41.7097C16.2285 41.709 16.2298 41.708 16.2316 41.7067C16.2352 41.7041 16.2406 41.7002 16.2476 41.6951C16.2615 41.685 16.2819 41.6702 16.3075 41.652C16.3586 41.6155 16.43 41.5652 16.5113 41.5097C16.6757 41.3973 16.8735 41.2689 17.0242 41.1903L16.9409 41.0304ZM19.2423 40.3838L19.1749 40.2165C18.8919 40.3305 18.657 40.3739 18.4076 40.4147C18.1578 40.4556 17.8887 40.4943 17.5637 40.603L17.6209 40.774L17.6781 40.945C17.9707 40.8471 18.2103 40.8124 18.4658 40.7706C18.7216 40.7288 18.9885 40.6804 19.3097 40.551L19.2423 40.3838ZM20.6398 39.574C20.5358 39.4268 20.5358 39.4268 20.5358 39.4268C20.5358 39.4268 20.5358 39.4268 20.5358 39.4268C20.5358 39.4268 20.5358 39.4268 20.5358 39.4268C20.5357 39.4269 20.5356 39.4269 20.5354 39.4271C20.5351 39.4273 20.5345 39.4277 20.5338 39.4282C20.5324 39.4292 20.5302 39.4307 20.5273 39.4328C20.5214 39.4369 20.5126 39.443 20.5012 39.4509C20.4784 39.4666 20.445 39.4896 20.403 39.5179C20.3189 39.5745 20.2008 39.6525 20.0648 39.7377C19.7901 39.9096 19.4519 40.1049 19.1749 40.2165L19.2423 40.3838L19.3097 40.551C19.6177 40.4269 19.9783 40.2173 20.2561 40.0433C20.3964 39.9555 20.5179 39.8752 20.6045 39.8169C20.6478 39.7877 20.6825 39.7639 20.7064 39.7474C20.7183 39.7392 20.7276 39.7327 20.7339 39.7283C20.7371 39.726 20.7395 39.7243 20.7412 39.7232C20.742 39.7226 20.7427 39.7221 20.7431 39.7218C20.7433 39.7216 20.7435 39.7215 20.7436 39.7214C20.7437 39.7214 20.7438 39.7213 20.7438 39.7213C20.7438 39.7213 20.7438 39.7213 20.7439 39.7213C20.7439 39.7213 20.7439 39.7213 20.6398 39.574ZM13.1127 36.4399L12.9386 36.4867C13.076 36.9978 13.2124 37.3968 13.4083 37.7751C13.6045 38.1537 13.8566 38.5041 14.2184 38.9227L14.3548 38.8048L14.4912 38.6869C14.1405 38.2812 13.9073 37.9544 13.7285 37.6092C13.5495 37.2636 13.4211 36.8924 13.2868 36.3931L13.1127 36.4399Z" fill="#280F0B"/>
<path d="M26.0086 40.8587L26.0703 40.6893V40.6893L26.0086 40.8587ZM26.6815 41.1332L26.7692 40.9756V40.9756L26.6815 41.1332ZM27.4148 41.7039L27.2908 41.8348C27.3352 41.8769 27.3979 41.8936 27.4573 41.8791C27.5168 41.8647 27.5648 41.8211 27.585 41.7634L27.4148 41.7039ZM24.3982 40.4253L24.3523 40.5999L24.361 40.6017L24.3982 40.4253ZM30.3194 36.4807C30.315 36.3812 30.2308 36.3042 30.1314 36.3086C30.0319 36.313 29.9548 36.3972 29.9592 36.4966L30.1393 36.4887L30.3194 36.4807ZM30.0167 37.5054L30.1858 37.568L30.1895 37.5579L30.192 37.5474L30.0167 37.5054ZM28.2055 40.2023L28.3493 40.311V40.311L28.2055 40.2023ZM27.7896 40.7984L27.6305 40.7137L27.6305 40.7137L27.7896 40.7984ZM29.322 38.9636L29.4721 39.0634V39.0634L29.322 38.9636ZM22.1536 39.0403C22.0779 38.9756 21.9641 38.9845 21.8994 39.0602C21.8347 39.1359 21.8436 39.2497 21.9193 39.3144L22.0364 39.1773L22.1536 39.0403ZM26.0086 40.8587L25.9468 41.0281C26.2264 41.13 26.3623 41.162 26.5939 41.2908L26.6815 41.1332L26.7692 40.9756C26.5047 40.8285 26.3241 40.7818 26.0703 40.6893L26.0086 40.8587ZM26.6815 41.1332L26.5939 41.2908C26.7366 41.3701 26.909 41.5034 27.0512 41.6228C27.1209 41.6814 27.1812 41.7347 27.2239 41.7733C27.2453 41.7926 27.2622 41.8082 27.2737 41.8188C27.2794 41.8241 27.2838 41.8282 27.2867 41.8309C27.2881 41.8323 27.2892 41.8333 27.2899 41.834C27.2902 41.8343 27.2905 41.8345 27.2906 41.8347C27.2907 41.8347 27.2907 41.8348 27.2908 41.8348C27.2908 41.8348 27.2908 41.8348 27.2908 41.8348C27.2908 41.8348 27.2908 41.8348 27.2908 41.8348C27.2908 41.8348 27.2908 41.8348 27.4148 41.7039C27.5388 41.5731 27.5388 41.5731 27.5388 41.5731C27.5388 41.5731 27.5388 41.573 27.5388 41.573C27.5387 41.573 27.5387 41.573 27.5387 41.5729C27.5386 41.5729 27.5385 41.5728 27.5383 41.5726C27.5381 41.5724 27.5377 41.5721 27.5373 41.5716C27.5364 41.5708 27.5351 41.5696 27.5334 41.568C27.53 41.5648 27.5252 41.5603 27.5189 41.5545C27.5064 41.5429 27.4883 41.5262 27.4657 41.5058C27.4205 41.465 27.3569 41.4087 27.283 41.3466C27.1378 41.2247 26.9436 41.0726 26.7692 40.9756L26.6815 41.1332ZM24.3982 40.4253C24.361 40.6017 24.361 40.6017 24.361 40.6017C24.361 40.6017 24.361 40.6017 24.361 40.6017C24.3611 40.6018 24.3611 40.6018 24.3612 40.6018C24.3613 40.6018 24.3614 40.6018 24.3616 40.6019C24.3621 40.602 24.3628 40.6021 24.3637 40.6023C24.3655 40.6027 24.3682 40.6033 24.3719 40.6041C24.3792 40.6056 24.39 40.6079 24.404 40.611C24.4321 40.6171 24.4731 40.6261 24.5242 40.6376C24.6265 40.6606 24.7692 40.6936 24.9307 40.7334C25.2557 40.8136 25.6505 40.9201 25.9468 41.0281L26.0086 40.8587L26.0703 40.6893C25.7548 40.5743 25.3444 40.4641 25.0171 40.3833C24.8526 40.3428 24.7074 40.3092 24.6033 40.2858C24.5513 40.2741 24.5094 40.2649 24.4806 40.2586C24.4661 40.2555 24.4549 40.2531 24.4473 40.2514C24.4434 40.2506 24.4405 40.25 24.4385 40.2496C24.4375 40.2494 24.4367 40.2492 24.4362 40.2491C24.436 40.249 24.4358 40.249 24.4356 40.249C24.4355 40.2489 24.4355 40.2489 24.4354 40.2489C24.4354 40.2489 24.4354 40.2489 24.4354 40.2489C24.4354 40.2489 24.4354 40.2489 24.3982 40.4253ZM30.1393 36.4887L29.9592 36.4966C29.9678 36.6906 29.9396 36.93 29.9072 37.1276C29.8912 37.2249 29.8746 37.3095 29.862 37.3696C29.8558 37.3996 29.8505 37.4234 29.8469 37.4395C29.8451 37.4476 29.8436 37.4537 29.8427 37.4578C29.8422 37.4598 29.8419 37.4613 29.8416 37.4623C29.8415 37.4627 29.8415 37.4631 29.8414 37.4633C29.8414 37.4634 29.8414 37.4634 29.8414 37.4634C29.8414 37.4635 29.8414 37.4635 29.8414 37.4635C29.8414 37.4635 29.8414 37.4634 29.8414 37.4634C29.8414 37.4634 29.8414 37.4634 30.0167 37.5054C30.192 37.5474 30.192 37.5474 30.1921 37.5473C30.1921 37.5473 30.1921 37.5473 30.1921 37.5473C30.1921 37.5472 30.1921 37.5472 30.1921 37.5471C30.1921 37.547 30.1922 37.5469 30.1922 37.5467C30.1923 37.5463 30.1924 37.5458 30.1926 37.5451C30.1929 37.5438 30.1933 37.5419 30.1939 37.5395C30.195 37.5347 30.1966 37.5278 30.1986 37.5188C30.2026 37.501 30.2083 37.4754 30.215 37.4433C30.2284 37.3793 30.246 37.2896 30.263 37.186C30.2965 36.9817 30.3297 36.7128 30.3194 36.4807L30.1393 36.4887ZM28.2055 40.2023L28.0616 40.0937C27.8988 40.3092 27.7726 40.4465 27.6305 40.7137L27.7896 40.7984L27.9488 40.8831C28.0733 40.6491 28.17 40.5484 28.3493 40.311L28.2055 40.2023ZM27.7896 40.7984L27.6305 40.7137C27.5398 40.884 27.4429 41.119 27.3702 41.306C27.3335 41.4006 27.3021 41.485 27.28 41.5457C27.2689 41.5761 27.2601 41.6007 27.2541 41.6177C27.251 41.6262 27.2487 41.6328 27.2471 41.6373C27.2463 41.6396 27.2457 41.6414 27.2453 41.6426C27.245 41.6432 27.2449 41.6436 27.2448 41.6439C27.2447 41.6441 27.2447 41.6442 27.2446 41.6443C27.2446 41.6444 27.2446 41.6444 27.2446 41.6444C27.2446 41.6444 27.2446 41.6445 27.2446 41.6445C27.2446 41.6445 27.2446 41.6445 27.4148 41.7039C27.585 41.7634 27.585 41.7634 27.585 41.7634C27.585 41.7634 27.585 41.7634 27.585 41.7634C27.585 41.7634 27.585 41.7634 27.585 41.7633C27.585 41.7633 27.5851 41.7632 27.5851 41.7631C27.5852 41.7628 27.5853 41.7625 27.5855 41.7619C27.5859 41.7609 27.5864 41.7593 27.5872 41.7572C27.5886 41.753 27.5908 41.7468 27.5937 41.7386C27.5995 41.7224 27.608 41.6987 27.6188 41.6692C27.6403 41.6103 27.6707 41.5283 27.7063 41.4366C27.7785 41.2509 27.8689 41.0331 27.9488 40.8831L27.7896 40.7984ZM29.322 38.9636L29.1719 38.8638C29.003 39.1178 28.8338 39.2864 28.6511 39.4612C28.4682 39.6361 28.2682 39.8202 28.0616 40.0937L28.2055 40.2023L28.3493 40.311C28.5353 40.0648 28.7133 39.9007 28.9003 39.7217C29.0877 39.5426 29.2805 39.3517 29.4721 39.0634L29.322 38.9636ZM30.0167 37.5054C29.8476 37.4428 29.8476 37.4428 29.8476 37.4428C29.8476 37.4428 29.8476 37.4428 29.8476 37.4428C29.8476 37.4428 29.8476 37.4428 29.8476 37.4429C29.8476 37.4429 29.8475 37.4431 29.8475 37.4433C29.8473 37.4437 29.8471 37.4443 29.8468 37.4451C29.8462 37.4467 29.8452 37.4492 29.844 37.4526C29.8415 37.4593 29.8377 37.4693 29.8327 37.4822C29.8228 37.5081 29.8083 37.546 29.7896 37.5931C29.7523 37.6873 29.699 37.8184 29.635 37.9656C29.5057 38.2627 29.3372 38.6151 29.1719 38.8638L29.322 38.9636L29.4721 39.0634C29.656 38.7868 29.8349 38.4101 29.9656 38.1094C30.0316 37.9577 30.0865 37.8228 30.1249 37.7257C30.1441 37.6771 30.1593 37.6379 30.1696 37.6108C30.1748 37.5972 30.1788 37.5867 30.1815 37.5794C30.1829 37.5758 30.1839 37.573 30.1846 37.5711C30.185 37.5701 30.1853 37.5694 30.1855 37.5689C30.1855 37.5686 30.1856 37.5684 30.1857 37.5683C30.1857 37.5682 30.1857 37.5681 30.1857 37.5681C30.1858 37.5681 30.1858 37.5681 30.1858 37.568C30.1858 37.568 30.1858 37.568 30.0167 37.5054ZM22.0364 39.1773L21.9193 39.3144C22.3216 39.6581 22.6598 39.9102 23.0353 40.1113C23.4111 40.3126 23.8172 40.4591 24.3524 40.5997L24.3982 40.4253L24.444 40.251C23.9253 40.1147 23.5482 39.977 23.2055 39.7934C22.8624 39.6097 22.5466 39.3761 22.1536 39.0403L22.0364 39.1773Z" fill="#280F0B"/>
<path d="M34.3545 36.2948L34.3769 36.4737V36.4737L34.3545 36.2948ZM35.0785 36.2316L35.0845 36.0515L35.0845 36.0515L35.0785 36.2316ZM35.9914 36.4046L35.9408 36.5776C35.9996 36.5948 36.063 36.581 36.1093 36.541C36.1556 36.5011 36.1784 36.4403 36.17 36.3798L35.9914 36.4046ZM32.7239 36.6445L32.7628 36.8208L32.7714 36.8185L32.7239 36.6445ZM36.2546 30.536C36.2052 30.4495 36.0951 30.4194 36.0086 30.4687C35.9221 30.5181 35.892 30.6282 35.9414 30.7147L36.098 30.6254L36.2546 30.536ZM36.3891 31.4812L36.5682 31.4597L36.567 31.452L36.3891 31.4812ZM36.0092 34.7076L35.8316 34.6767L35.8316 34.6767L36.0092 34.7076ZM35.9114 35.4278L35.7311 35.4251L35.7311 35.4251L35.9114 35.4278ZM36.4369 33.0957L36.616 33.116V33.116L36.4369 33.0957ZM30.8088 36.4976C30.7106 36.4814 30.6178 36.5478 30.6015 36.6461C30.5853 36.7443 30.6517 36.8371 30.75 36.8533L30.7794 36.6755L30.8088 36.4976ZM34.3545 36.2948L34.3769 36.4737C34.6721 36.4367 34.8076 36.403 35.0725 36.4118L35.0785 36.2316L35.0845 36.0515C34.782 36.0414 34.6 36.0823 34.332 36.1159L34.3545 36.2948ZM35.0785 36.2316L35.0725 36.4118C35.2357 36.4173 35.4499 36.4571 35.6309 36.4984C35.7197 36.5187 35.7977 36.5386 35.8533 36.5535C35.8811 36.5609 35.9033 36.567 35.9184 36.5712C35.9259 36.5734 35.9317 36.575 35.9355 36.5761C35.9374 36.5766 35.9388 36.577 35.9397 36.5773C35.9401 36.5774 35.9405 36.5775 35.9407 36.5776C35.9408 36.5776 35.9408 36.5776 35.9409 36.5776C35.9409 36.5776 35.9409 36.5776 35.9409 36.5776C35.9409 36.5776 35.9409 36.5776 35.9409 36.5776C35.9409 36.5776 35.9408 36.5776 35.9914 36.4046C36.042 36.2315 36.042 36.2315 36.042 36.2315C36.042 36.2315 36.042 36.2315 36.042 36.2315C36.0419 36.2315 36.0419 36.2315 36.0418 36.2315C36.0417 36.2315 36.0416 36.2314 36.0414 36.2314C36.0411 36.2313 36.0406 36.2311 36.04 36.231C36.0388 36.2306 36.0371 36.2301 36.0349 36.2295C36.0304 36.2282 36.024 36.2264 36.0158 36.2241C35.9994 36.2195 35.9757 36.2129 35.9463 36.2051C35.8874 36.1894 35.8051 36.1683 35.7111 36.1469C35.5262 36.1047 35.2839 36.0581 35.0845 36.0515L35.0785 36.2316ZM32.7239 36.6445C32.7714 36.8185 32.7713 36.8185 32.7713 36.8185C32.7714 36.8185 32.7714 36.8185 32.7714 36.8185C32.7714 36.8184 32.7714 36.8184 32.7715 36.8184C32.7716 36.8184 32.7717 36.8184 32.7719 36.8183C32.7724 36.8182 32.773 36.818 32.7739 36.8178C32.7757 36.8173 32.7785 36.8165 32.7821 36.8156C32.7892 36.8136 32.7999 36.8107 32.8138 36.807C32.8416 36.7996 32.8822 36.7889 32.9329 36.7758C33.0344 36.7496 33.1764 36.7138 33.3383 36.6755C33.664 36.5984 34.0639 36.5129 34.3769 36.4737L34.3545 36.2948L34.332 36.1159C33.9988 36.1576 33.5834 36.247 33.2553 36.3246C33.0904 36.3636 32.9459 36.4 32.8426 36.4267C32.791 36.4401 32.7496 36.451 32.721 36.4586C32.7067 36.4624 32.6956 36.4654 32.6881 36.4674C32.6843 36.4685 32.6814 36.4692 32.6795 36.4698C32.6785 36.47 32.6777 36.4702 32.6772 36.4704C32.677 36.4705 32.6768 36.4705 32.6766 36.4705C32.6765 36.4706 32.6765 36.4706 32.6764 36.4706C32.6764 36.4706 32.6764 36.4706 32.6764 36.4706C32.6764 36.4706 32.6764 36.4706 32.7239 36.6445ZM36.098 30.6254L35.9414 30.7147C36.0364 30.8813 36.1044 31.0791 36.149 31.2402C36.171 31.3198 36.1867 31.3883 36.1969 31.4367C36.2019 31.4608 36.2056 31.4798 36.208 31.4925C36.2091 31.4989 36.21 31.5036 36.2105 31.5067C36.2108 31.5082 36.211 31.5093 36.2111 31.5099C36.2111 31.5103 36.2112 31.5105 36.2112 31.5106C36.2112 31.5106 36.2112 31.5106 36.2112 31.5106C36.2112 31.5106 36.2112 31.5106 36.2112 31.5106C36.2112 31.5106 36.2112 31.5105 36.2112 31.5105C36.2112 31.5105 36.2112 31.5105 36.3891 31.4812C36.567 31.452 36.567 31.4519 36.567 31.4519C36.567 31.4519 36.567 31.4519 36.567 31.4518C36.5669 31.4518 36.5669 31.4517 36.5669 31.4517C36.5669 31.4515 36.5669 31.4514 36.5668 31.4512C36.5668 31.4508 36.5667 31.4503 36.5666 31.4497C36.5664 31.4485 36.5661 31.4468 36.5657 31.4447C36.565 31.4404 36.5639 31.4344 36.5625 31.4268C36.5597 31.4115 36.5554 31.3896 36.5497 31.3625C36.5383 31.3082 36.5209 31.2322 36.4965 31.1441C36.4483 30.9699 36.3708 30.7398 36.2546 30.536L36.098 30.6254ZM36.0092 34.7076L35.8316 34.6767C35.7852 34.9427 35.7356 35.1225 35.7311 35.4251L35.9114 35.4278L36.0917 35.4305C36.0956 35.1655 36.1357 35.0317 36.1868 34.7386L36.0092 34.7076ZM35.9114 35.4278L35.7311 35.4251C35.7283 35.618 35.7493 35.8713 35.7701 36.0709C35.7806 36.1719 35.7913 36.2612 35.7993 36.3254C35.8033 36.3575 35.8067 36.3834 35.8091 36.4012C35.8102 36.4102 35.8112 36.4172 35.8118 36.4219C35.8122 36.4243 35.8124 36.4261 35.8126 36.4274C35.8127 36.428 35.8127 36.4285 35.8128 36.4289C35.8128 36.429 35.8128 36.4292 35.8128 36.4293C35.8129 36.4293 35.8129 36.4293 35.8129 36.4294C35.8129 36.4294 35.8129 36.4294 35.8129 36.4294C35.8129 36.4294 35.8129 36.4294 35.9914 36.4046C36.17 36.3798 36.17 36.3798 36.17 36.3798C36.17 36.3798 36.17 36.3798 36.17 36.3798C36.17 36.3798 36.17 36.3797 36.17 36.3797C36.17 36.3797 36.17 36.3796 36.17 36.3794C36.1699 36.3792 36.1699 36.3788 36.1698 36.3782C36.1697 36.3772 36.1694 36.3755 36.1691 36.3733C36.1685 36.3689 36.1676 36.3623 36.1665 36.3538C36.1642 36.3367 36.161 36.3117 36.1571 36.2806C36.1493 36.2183 36.1389 36.1315 36.1287 36.0336C36.1081 35.8355 36.0892 35.6004 36.0917 35.4305L35.9114 35.4278ZM36.4369 33.0957L36.2577 33.0755C36.2235 33.3786 36.15 33.6059 36.0672 33.8448C35.9844 34.0839 35.8905 34.339 35.8316 34.6767L36.0092 34.7076L36.1868 34.7386C36.2398 34.4347 36.3232 34.2074 36.4079 33.9628C36.4928 33.7179 36.5771 33.46 36.616 33.116L36.4369 33.0957ZM36.3891 31.4812C36.2101 31.5027 36.2101 31.5027 36.2101 31.5027C36.2101 31.5027 36.2101 31.5027 36.2101 31.5027C36.2101 31.5027 36.2101 31.5028 36.2101 31.5028C36.2101 31.5029 36.2101 31.503 36.2101 31.5032C36.2102 31.5036 36.2103 31.5043 36.2104 31.5052C36.2106 31.5069 36.2109 31.5096 36.2113 31.5131C36.2121 31.5202 36.2133 31.5308 36.2148 31.5446C36.2179 31.5722 36.2221 31.6125 36.2271 31.6629C36.2369 31.7638 36.2494 31.9048 36.2596 32.0649C36.2803 32.3883 36.2913 32.7787 36.2577 33.0755L36.4369 33.0957L36.616 33.116C36.6533 32.7859 36.6404 32.3691 36.6195 32.0419C36.6089 31.8768 36.5961 31.7317 36.5859 31.6278C36.5809 31.5758 36.5764 31.5341 36.5732 31.5052C36.5717 31.4907 36.5704 31.4795 36.5695 31.4718C36.5691 31.468 36.5687 31.465 36.5685 31.463C36.5683 31.462 36.5683 31.4612 36.5682 31.4606C36.5682 31.4604 36.5681 31.4602 36.5681 31.46C36.5681 31.4599 36.5681 31.4599 36.5681 31.4598C36.5681 31.4598 36.5681 31.4598 36.5681 31.4598C36.5681 31.4597 36.5681 31.4597 36.3891 31.4812ZM30.7794 36.6755L30.75 36.8533C31.3968 36.9604 31.9479 37.0004 32.7627 36.8206L32.7239 36.6445L32.685 36.4685C31.9281 36.6356 31.4257 36.5996 30.8088 36.4976L30.7794 36.6755Z" fill="#280F0B"/>
<path d="M39.9728 27.53L39.8577 27.3912V27.3912L39.9728 27.53ZM40.5494 27.0876L40.6412 27.2428V27.2428L40.5494 27.0876ZM41.4122 26.7427L41.4626 26.9158C41.5213 26.8988 41.5674 26.8531 41.5849 26.7945C41.6025 26.7359 41.5891 26.6724 41.5495 26.6258L41.4122 26.7427ZM38.7858 28.7014L38.9133 28.8291L38.9193 28.8225L38.7858 28.7014ZM38.7826 21.8778C38.706 21.8141 38.5924 21.8245 38.5287 21.9011C38.465 21.9776 38.4755 22.0913 38.552 22.155L38.6673 22.0164L38.7826 21.8778ZM39.1013 22.3773L39.2407 22.2629L39.2298 22.2496L39.2166 22.2387L39.1013 22.3773ZM40.5151 25.3022L40.6815 25.2328V25.2328L40.5151 25.3022ZM40.8197 25.962L40.6663 26.0567L40.6663 26.0567L40.8197 25.962ZM40.0094 23.713L40.1713 23.6338V23.6338L40.0094 23.713ZM36.67 29.8239C36.5759 29.8566 36.5262 29.9594 36.5589 30.0534C36.5916 30.1475 36.6943 30.1972 36.7884 30.1645L36.7292 29.9942L36.67 29.8239ZM39.9728 27.53L40.0878 27.6688C40.3169 27.4789 40.4131 27.3777 40.6412 27.2428L40.5494 27.0876L40.4576 26.9324C40.1971 27.0865 40.0657 27.2188 39.8577 27.3912L39.9728 27.53ZM40.5494 27.0876L40.6412 27.2428C40.7818 27.1596 40.9839 27.0781 41.1586 27.0157C41.2444 26.985 41.3209 26.9599 41.3758 26.9425C41.4032 26.9338 41.4252 26.9271 41.4402 26.9225C41.4477 26.9203 41.4534 26.9185 41.4572 26.9174C41.4591 26.9169 41.4605 26.9164 41.4614 26.9162C41.4619 26.916 41.4622 26.916 41.4624 26.9159C41.4625 26.9159 41.4626 26.9158 41.4626 26.9158C41.4626 26.9158 41.4626 26.9158 41.4626 26.9158C41.4626 26.9158 41.4626 26.9158 41.4626 26.9158C41.4626 26.9158 41.4626 26.9158 41.4122 26.7427C41.3619 26.5696 41.3619 26.5696 41.3619 26.5696C41.3618 26.5696 41.3618 26.5696 41.3618 26.5696C41.3618 26.5696 41.3617 26.5697 41.3617 26.5697C41.3616 26.5697 41.3614 26.5697 41.3613 26.5698C41.3609 26.5699 41.3605 26.57 41.3599 26.5702C41.3587 26.5706 41.3569 26.5711 41.3547 26.5717C41.3503 26.573 41.3439 26.5749 41.3358 26.5774C41.3194 26.5823 41.296 26.5895 41.2669 26.5988C41.2088 26.6172 41.1281 26.6436 41.0373 26.6761C40.8587 26.7399 40.6294 26.8308 40.4576 26.9324L40.5494 27.0876ZM38.7858 28.7014C38.9193 28.8225 38.9193 28.8225 38.9193 28.8225C38.9193 28.8225 38.9193 28.8225 38.9193 28.8225C38.9193 28.8225 38.9193 28.8224 38.9194 28.8224C38.9194 28.8223 38.9196 28.8222 38.9197 28.822C38.92 28.8217 38.9205 28.8212 38.9211 28.8205C38.9224 28.8191 38.9242 28.8171 38.9268 28.8143C38.9318 28.8088 38.9393 28.8006 38.949 28.79C38.9684 28.7689 38.9969 28.738 39.0326 28.6997C39.1041 28.6231 39.2046 28.5165 39.3205 28.3972C39.5538 28.1571 39.845 27.8701 40.0878 27.6688L39.9728 27.53L39.8577 27.3912C39.5992 27.6055 39.2969 27.9041 39.0619 28.1459C38.9439 28.2674 38.8416 28.3758 38.7689 28.4538C38.7325 28.4929 38.7034 28.5243 38.6834 28.5461C38.6734 28.557 38.6657 28.5655 38.6604 28.5712C38.6578 28.5741 38.6558 28.5763 38.6544 28.5779C38.6537 28.5786 38.6532 28.5792 38.6528 28.5796C38.6526 28.5798 38.6525 28.5799 38.6524 28.58C38.6524 28.5801 38.6523 28.5801 38.6523 28.5802C38.6523 28.5802 38.6523 28.5802 38.6523 28.5802C38.6522 28.5802 38.6522 28.5802 38.7858 28.7014ZM38.6673 22.0164L38.552 22.155L38.986 22.5159L39.1013 22.3773L39.2166 22.2387L38.7826 21.8778L38.6673 22.0164ZM40.5151 25.3022L40.3487 25.3715C40.4526 25.6209 40.5074 25.7991 40.6663 26.0567L40.8197 25.962L40.9732 25.8674C40.8341 25.6418 40.796 25.5075 40.6815 25.2328L40.5151 25.3022ZM40.8197 25.962L40.6663 26.0567C40.7676 26.2209 40.9214 26.4232 41.0462 26.5803C41.1093 26.6598 41.1664 26.7294 41.2076 26.7792C41.2283 26.8041 41.245 26.8241 41.2566 26.8379C41.2625 26.8448 41.267 26.8502 41.2701 26.8539C41.2717 26.8557 41.2729 26.8571 41.2737 26.8581C41.2741 26.8586 41.2744 26.8589 41.2746 26.8592C41.2747 26.8593 41.2748 26.8594 41.2749 26.8595C41.2749 26.8595 41.2749 26.8596 41.275 26.8596C41.275 26.8596 41.275 26.8596 41.275 26.8596C41.275 26.8596 41.275 26.8596 41.4122 26.7427C41.5495 26.6258 41.5495 26.6258 41.5495 26.6258C41.5495 26.6258 41.5495 26.6258 41.5495 26.6258C41.5495 26.6258 41.5495 26.6258 41.5494 26.6258C41.5494 26.6257 41.5493 26.6257 41.5493 26.6256C41.5491 26.6254 41.5488 26.625 41.5485 26.6246C41.5478 26.6238 41.5467 26.6225 41.5453 26.6208C41.5424 26.6174 41.5381 26.6124 41.5325 26.6058C41.5214 26.5926 41.5053 26.5733 41.4853 26.5491C41.4452 26.5008 41.3898 26.4332 41.3286 26.3561C41.2048 26.2001 41.0624 26.0121 40.9732 25.8674L40.8197 25.962ZM40.0094 23.713L39.8474 23.7923C39.9815 24.0663 40.0416 24.2975 40.1003 24.5434C40.1589 24.7896 40.2169 25.0552 40.3487 25.3715L40.5151 25.3022L40.6815 25.2328C40.5629 24.948 40.511 24.7116 40.451 24.4597C40.3909 24.2076 40.3234 23.9448 40.1713 23.6338L40.0094 23.713ZM39.1013 22.3773C38.9619 22.4916 38.9619 22.4916 38.9619 22.4916C38.9619 22.4916 38.9619 22.4916 38.9619 22.4916C38.9619 22.4916 38.9619 22.4916 38.9619 22.4917C38.962 22.4917 38.9621 22.4919 38.9622 22.492C38.9625 22.4923 38.9629 22.4928 38.9634 22.4935C38.9645 22.4949 38.9662 22.497 38.9685 22.4997C38.973 22.5053 38.9797 22.5136 38.9884 22.5244C39.0058 22.546 39.0311 22.5777 39.0623 22.6176C39.1248 22.6973 39.2111 22.8095 39.3058 22.9391C39.4971 23.2007 39.7162 23.524 39.8474 23.7923L40.0094 23.713L40.1713 23.6338C40.0254 23.3355 39.7904 22.9909 39.5969 22.7263C39.4993 22.5927 39.4105 22.4772 39.3461 22.3951C39.3138 22.354 39.2877 22.3211 39.2694 22.2985C39.2603 22.2872 39.2532 22.2784 39.2484 22.2724C39.2459 22.2694 39.244 22.2671 39.2427 22.2655C39.2421 22.2647 39.2416 22.2641 39.2413 22.2637C39.2411 22.2634 39.2409 22.2633 39.2408 22.2632C39.2408 22.2631 39.2408 22.263 39.2407 22.263C39.2407 22.263 39.2407 22.263 39.2407 22.263C39.2407 22.2629 39.2407 22.2629 39.1013 22.3773ZM36.7292 29.9942L36.7884 30.1645C37.2846 29.992 37.6222 29.8559 37.9345 29.6606C38.2468 29.4652 38.5257 29.2159 38.9132 28.8289L38.7858 28.7014L38.6584 28.5738C38.2748 28.9568 38.0195 29.1821 37.7433 29.3548C37.4672 29.5275 37.162 29.6529 36.67 29.8239L36.7292 29.9942Z" fill="#280F0B"/>
<path d="M40.4846 17.9694L40.648 18.0457V18.0457L40.4846 17.9694ZM40.8168 17.323L40.6675 17.222V17.222L40.8168 17.323ZM41.4494 16.6424L41.5689 16.7774C41.6147 16.7368 41.6369 16.6758 41.6277 16.6154C41.6185 16.5549 41.5793 16.5032 41.5235 16.4781L41.4494 16.6424ZM39.9123 19.5358L40.0822 19.5968L40.0848 19.5883L39.9123 19.5358ZM36.4998 13.2927C36.4004 13.2884 36.3162 13.3656 36.3119 13.4651C36.3076 13.5645 36.3848 13.6487 36.4842 13.653L36.492 13.4729L36.4998 13.2927ZM37.4942 13.6838L37.5713 13.5208L37.5615 13.5162L37.5513 13.5128L37.4942 13.6838ZM40.0226 15.7236L40.1434 15.5898L40.1434 15.5898L40.0226 15.7236ZM40.5801 16.1899L40.4818 16.3411V16.3411L40.5801 16.1899ZM38.8861 14.5032L38.9986 14.3623L38.8861 14.5032ZM38.7561 21.1802C38.6924 21.2567 38.7027 21.3703 38.7792 21.4341C38.8557 21.4978 38.9694 21.4875 39.0331 21.411L38.8946 21.2956L38.7561 21.1802ZM40.4846 17.9694L40.648 18.0457C40.7739 17.7762 40.8176 17.6435 40.9661 17.4241L40.8168 17.323L40.6675 17.222C40.4979 17.4726 40.4356 17.6484 40.3213 17.8931L40.4846 17.9694ZM40.8168 17.323L40.9661 17.4241C41.0577 17.2888 41.2055 17.1287 41.3368 16.9976C41.4013 16.9332 41.4597 16.8778 41.5019 16.8386C41.523 16.819 41.5399 16.8035 41.5515 16.793C41.5574 16.7878 41.5618 16.7838 41.5648 16.7811C41.5662 16.7798 41.5673 16.7788 41.568 16.7782C41.5684 16.7779 41.5686 16.7777 41.5688 16.7775C41.5689 16.7775 41.5689 16.7774 41.5689 16.7774C41.569 16.7774 41.569 16.7774 41.569 16.7774C41.569 16.7774 41.569 16.7774 41.569 16.7774C41.569 16.7774 41.5689 16.7774 41.4494 16.6424C41.3299 16.5074 41.3299 16.5075 41.3299 16.5075C41.3299 16.5075 41.3299 16.5075 41.3298 16.5075C41.3298 16.5075 41.3298 16.5075 41.3297 16.5076C41.3297 16.5077 41.3296 16.5077 41.3294 16.5079C41.3292 16.5081 41.3288 16.5084 41.3283 16.5088C41.3274 16.5097 41.3261 16.5109 41.3243 16.5124C41.3209 16.5155 41.3159 16.5199 41.3096 16.5257C41.297 16.5371 41.2788 16.5537 41.2565 16.5744C41.2119 16.6159 41.1502 16.6743 41.082 16.7425C40.9478 16.8765 40.7794 17.0567 40.6675 17.222L40.8168 17.323ZM39.9123 19.5358C40.0848 19.5883 40.0848 19.5883 40.0848 19.5883C40.0848 19.5883 40.0848 19.5882 40.0848 19.5882C40.0848 19.5882 40.0848 19.5882 40.0848 19.5881C40.0848 19.588 40.0849 19.5879 40.0849 19.5877C40.0851 19.5872 40.0853 19.5866 40.0855 19.5857C40.0861 19.5839 40.0869 19.5812 40.088 19.5777C40.0902 19.5705 40.0935 19.5599 40.0977 19.5462C40.1063 19.5187 40.1188 19.4787 40.1347 19.4288C40.1665 19.329 40.2119 19.1897 40.2657 19.0322C40.3739 18.7155 40.5145 18.3315 40.648 18.0457L40.4846 17.9694L40.3213 17.8931C40.1792 18.1974 40.0335 18.5966 39.9245 18.9156C39.8697 19.0759 39.8236 19.2176 39.7912 19.3193C39.775 19.3701 39.7622 19.411 39.7534 19.4392C39.749 19.4533 39.7456 19.4643 39.7433 19.4718C39.7422 19.4755 39.7413 19.4784 39.7407 19.4803C39.7404 19.4813 39.7402 19.482 39.74 19.4826C39.7399 19.4828 39.7399 19.483 39.7398 19.4831C39.7398 19.4832 39.7398 19.4833 39.7398 19.4833C39.7398 19.4833 39.7398 19.4834 39.7398 19.4834C39.7398 19.4834 39.7398 19.4834 39.9123 19.5358ZM36.492 13.4729L36.4842 13.653C36.6782 13.6614 36.9142 13.7103 37.1082 13.7599C37.2038 13.7843 37.2866 13.8082 37.3453 13.826C37.3747 13.8349 37.3979 13.8422 37.4137 13.8472C37.4216 13.8497 37.4276 13.8517 37.4315 13.853C37.4335 13.8536 37.435 13.8541 37.4359 13.8544C37.4364 13.8546 37.4367 13.8547 37.4369 13.8547C37.437 13.8548 37.437 13.8548 37.4371 13.8548C37.4371 13.8548 37.4371 13.8548 37.4371 13.8548C37.4371 13.8548 37.4371 13.8548 37.4371 13.8548C37.437 13.8548 37.437 13.8548 37.4942 13.6838C37.5513 13.5128 37.5513 13.5128 37.5512 13.5128C37.5512 13.5128 37.5512 13.5128 37.5512 13.5128C37.5512 13.5127 37.5511 13.5127 37.551 13.5127C37.5509 13.5127 37.5508 13.5126 37.5506 13.5126C37.5502 13.5124 37.5497 13.5123 37.5491 13.5121C37.5478 13.5116 37.546 13.511 37.5436 13.5103C37.5389 13.5087 37.5321 13.5065 37.5234 13.5037C37.506 13.4982 37.481 13.4903 37.4496 13.4808C37.387 13.4619 37.2992 13.4365 37.1975 13.4106C36.9969 13.3593 36.7319 13.3028 36.4998 13.2927L36.492 13.4729ZM40.0226 15.7236L39.9018 15.8574C40.1023 16.0384 40.2281 16.1762 40.4818 16.3411L40.5801 16.1899L40.6783 16.0388C40.4561 15.8943 40.3643 15.7892 40.1434 15.5898L40.0226 15.7236ZM40.5801 16.1899L40.4818 16.3411C40.6435 16.4462 40.8691 16.5633 41.0491 16.6521C41.1402 16.6969 41.2215 16.7355 41.2801 16.7629C41.3094 16.7766 41.333 16.7875 41.3495 16.795C41.3577 16.7988 41.3641 16.8017 41.3684 16.8037C41.3706 16.8047 41.3723 16.8054 41.3735 16.8059C41.3741 16.8062 41.3745 16.8064 41.3748 16.8065C41.375 16.8066 41.3751 16.8067 41.3752 16.8067C41.3752 16.8067 41.3753 16.8068 41.3753 16.8068C41.3753 16.8068 41.3753 16.8068 41.3753 16.8068C41.3753 16.8068 41.3753 16.8068 41.4494 16.6424C41.5235 16.4781 41.5235 16.4781 41.5235 16.4781C41.5235 16.4781 41.5235 16.4781 41.5235 16.4781C41.5235 16.4781 41.5235 16.478 41.5235 16.478C41.5234 16.478 41.5233 16.478 41.5232 16.4779C41.523 16.4778 41.5226 16.4776 41.5221 16.4774C41.5211 16.477 41.5196 16.4763 41.5176 16.4754C41.5135 16.4735 41.5075 16.4708 41.4996 16.4672C41.484 16.46 41.4611 16.4495 41.4327 16.4362C41.3758 16.4096 41.2968 16.3722 41.2086 16.3286C41.0299 16.2406 40.8208 16.1314 40.6783 16.0388L40.5801 16.1899ZM38.8861 14.5032L38.7735 14.644C39.0119 14.8345 39.1651 15.0177 39.3232 15.215C39.4815 15.4124 39.6474 15.6278 39.9018 15.8574L40.0226 15.7236L40.1434 15.5898C39.9144 15.383 39.7665 15.1914 39.6045 14.9894C39.4424 14.7872 39.2691 14.5784 38.9986 14.3623L38.8861 14.5032ZM37.4942 13.6838C37.417 13.8467 37.417 13.8467 37.417 13.8467C37.417 13.8467 37.417 13.8467 37.417 13.8467C37.417 13.8467 37.4171 13.8468 37.4171 13.8468C37.4172 13.8468 37.4173 13.8469 37.4175 13.847C37.4179 13.8471 37.4184 13.8474 37.4192 13.8478C37.4208 13.8485 37.4232 13.8497 37.4265 13.8512C37.4329 13.8543 37.4425 13.859 37.455 13.865C37.48 13.8771 37.5164 13.895 37.5616 13.9177C37.6523 13.963 37.7782 14.0276 37.9193 14.1042C38.204 14.2589 38.5402 14.4576 38.7735 14.644L38.8861 14.5032L38.9986 14.3623C38.7392 14.155 38.3795 13.9439 38.0914 13.7874C37.9461 13.7084 37.8164 13.642 37.7231 13.5952C37.6763 13.5718 37.6386 13.5534 37.6125 13.5407C37.5994 13.5343 37.5893 13.5294 37.5823 13.5261C37.5788 13.5244 37.5761 13.5231 37.5743 13.5222C37.5733 13.5218 37.5726 13.5215 37.5721 13.5212C37.5719 13.5211 37.5717 13.521 37.5715 13.5209C37.5715 13.5209 37.5714 13.5209 37.5714 13.5209C37.5714 13.5209 37.5713 13.5208 37.5713 13.5208C37.5713 13.5208 37.5713 13.5208 37.4942 13.6838ZM38.8946 21.2956L39.0331 21.411C39.3644 21.0135 39.5408 20.8143 39.6744 20.5876C39.8089 20.3592 39.9004 20.1029 40.082 19.5967L39.9123 19.5358L39.7426 19.4749C39.5562 19.9944 39.4769 20.2123 39.3637 20.4046C39.2494 20.5985 39.101 20.7664 38.7561 21.1802L38.8946 21.2956Z" fill="#280F0B"/>
<path d="M35.9037 8.72194L35.7254 8.74851V8.74851L35.9037 8.72194ZM35.8238 7.99958L35.6435 7.99776V7.99776L35.8238 7.99958ZM35.9755 7.08285L36.1497 7.1294C36.1655 7.07031 36.1503 7.00724 36.1092 6.96188C36.0682 6.91652 36.0069 6.89507 35.9465 6.9049L35.9755 7.08285ZM36.2913 10.344L36.4666 10.301L36.4641 10.2925L36.2913 10.344ZM30.3435 6.84374C30.253 6.88543 30.2135 6.99253 30.2552 7.08295C30.2969 7.17338 30.404 7.21289 30.4944 7.1712L30.4189 7.00747L30.3435 6.84374ZM31.0442 6.79967L31.0442 6.97996L31.0571 6.97996L31.0699 6.97813L31.0442 6.79967ZM34.2786 7.10449L34.2518 7.28277L34.2518 7.28277L34.2786 7.10449ZM35.0009 7.18554L35.0024 7.36583L35.0024 7.36583L35.0009 7.18554ZM32.6572 6.71438L32.6733 6.53481V6.53481L32.6572 6.71438ZM36.115 12.9195C36.0942 13.0169 36.1564 13.1127 36.2538 13.1334C36.3512 13.1541 36.4469 13.092 36.4676 12.9946L36.2913 12.957L36.115 12.9195ZM35.9037 8.72194L36.0821 8.69537C36.0382 8.40108 36.0015 8.26637 36.0041 8.00139L35.8238 7.99958L35.6435 7.99776C35.6405 8.3004 35.6856 8.48135 35.7254 8.74851L35.9037 8.72194ZM35.8238 7.99958L36.0041 8.00139C36.0058 7.8381 36.0406 7.62298 36.0777 7.44115C36.0959 7.35185 36.114 7.27346 36.1276 7.21746C36.1343 7.1895 36.1399 7.16721 36.1438 7.15204C36.1458 7.14445 36.1473 7.13865 36.1483 7.13482C36.1488 7.1329 36.1492 7.13148 36.1494 7.13057C36.1495 7.13011 36.1496 7.12979 36.1497 7.12959C36.1497 7.12949 36.1497 7.12943 36.1497 7.1294C36.1497 7.12938 36.1497 7.12938 36.1497 7.12938C36.1497 7.12938 36.1497 7.12938 36.1497 7.12938C36.1497 7.12939 36.1497 7.1294 35.9755 7.08285C35.8013 7.03629 35.8013 7.03631 35.8013 7.03632C35.8013 7.03633 35.8013 7.03635 35.8013 7.03637C35.8013 7.0364 35.8013 7.03645 35.8013 7.0365C35.8013 7.0366 35.8012 7.03674 35.8012 7.03691C35.8011 7.03725 35.801 7.03772 35.8008 7.03833C35.8005 7.03954 35.8 7.04127 35.7994 7.04349C35.7983 7.04795 35.7966 7.05441 35.7945 7.06268C35.7903 7.07921 35.7843 7.10303 35.7771 7.13266C35.7628 7.19185 35.7437 7.27461 35.7244 7.36913C35.6865 7.55496 35.6456 7.7982 35.6435 7.99776L35.8238 7.99958ZM36.2913 10.344C36.4641 10.2925 36.4641 10.2925 36.4641 10.2925C36.4641 10.2925 36.4641 10.2924 36.4641 10.2924C36.4641 10.2924 36.4641 10.2924 36.464 10.2923C36.464 10.2922 36.464 10.2921 36.4639 10.2919C36.4638 10.2914 36.4636 10.2908 36.4633 10.2899C36.4628 10.2881 36.462 10.2854 36.4609 10.2818C36.4588 10.2747 36.4557 10.264 36.4517 10.2502C36.4436 10.2226 36.432 10.1824 36.4177 10.132C36.3891 10.0311 36.35 9.88998 36.3079 9.72895C36.2234 9.40511 36.1286 9.00738 36.0821 8.69537L35.9037 8.72194L35.7254 8.74851C35.7749 9.08067 35.8739 9.49395 35.9591 9.82008C36.0019 9.98404 36.0417 10.1276 36.0708 10.2303C36.0853 10.2816 36.0972 10.3228 36.1055 10.3511C36.1096 10.3653 36.1129 10.3763 36.1151 10.3838C36.1162 10.3876 36.117 10.3905 36.1176 10.3924C36.1179 10.3934 36.1181 10.3941 36.1183 10.3947C36.1184 10.3949 36.1184 10.3951 36.1185 10.3952C36.1185 10.3953 36.1185 10.3954 36.1185 10.3954C36.1185 10.3954 36.1185 10.3955 36.1185 10.3955C36.1185 10.3955 36.1185 10.3955 36.2913 10.344ZM30.4189 7.00747L30.4944 7.1712C30.7119 7.07092 30.8581 7.02296 30.9459 7.00014C30.9898 6.98876 31.0188 6.9837 31.0347 6.9815C31.0426 6.9804 31.0472 6.98001 31.0488 6.9799C31.0495 6.97985 31.0495 6.97986 31.0488 6.97989C31.0484 6.97991 31.0478 6.97992 31.0471 6.97994C31.0467 6.97994 31.0463 6.97995 31.0458 6.97995C31.0456 6.97996 31.0453 6.97996 31.0451 6.97996C31.0449 6.97996 31.0448 6.97996 31.0447 6.97996C31.0446 6.97996 31.0445 6.97996 31.0445 6.97996C31.0444 6.97996 31.0442 6.97996 31.0442 6.79967C31.0442 6.61938 31.0441 6.61938 31.044 6.61938C31.044 6.61938 31.0439 6.61938 31.0438 6.61938C31.0437 6.61938 31.0435 6.61938 31.0434 6.61938C31.0431 6.61938 31.0428 6.61939 31.0425 6.61939C31.0418 6.61939 31.0411 6.6194 31.0404 6.61942C31.039 6.61944 31.0374 6.61949 31.0356 6.61955C31.0321 6.61968 31.0279 6.6199 31.023 6.62025C31.0132 6.62095 31.0006 6.62219 30.9852 6.62434C30.9542 6.62863 30.9114 6.63656 30.8553 6.65115C30.7431 6.68028 30.5767 6.73623 30.3435 6.84374L30.4189 7.00747ZM34.2786 7.10449L34.2518 7.28277C34.5189 7.323 34.6997 7.36839 35.0024 7.36583L35.0009 7.18554L34.9993 7.00526C34.7343 7.0075 34.5997 6.97052 34.3055 6.92621L34.2786 7.10449ZM35.0009 7.18554L35.0024 7.36583C35.1953 7.3642 35.448 7.33727 35.6471 7.31189C35.7478 7.29904 35.8369 7.28631 35.9008 7.27678C35.9328 7.27202 35.9586 7.26805 35.9764 7.26525C35.9853 7.26386 35.9923 7.26276 35.997 7.262C35.9994 7.26162 36.0012 7.26132 36.0025 7.26112C36.0031 7.26102 36.0036 7.26094 36.0039 7.26089C36.0041 7.26086 36.0042 7.26084 36.0043 7.26082C36.0044 7.26081 36.0044 7.26081 36.0044 7.2608C36.0045 7.2608 36.0045 7.2608 36.0045 7.2608C36.0045 7.2608 36.0045 7.26079 35.9755 7.08285C35.9465 6.9049 35.9466 6.9049 35.9466 6.9049C35.9466 6.9049 35.9466 6.9049 35.9466 6.9049C35.9465 6.9049 35.9465 6.9049 35.9465 6.90491C35.9464 6.90492 35.9464 6.90493 35.9462 6.90495C35.946 6.90499 35.9456 6.90506 35.945 6.90515C35.944 6.90532 35.9423 6.90559 35.9401 6.90594C35.9357 6.90664 35.9292 6.90768 35.9206 6.90901C35.9036 6.91168 35.8787 6.91552 35.8477 6.92014C35.7856 6.92939 35.6991 6.94175 35.6015 6.9542C35.4039 6.9794 35.1693 7.00382 34.9993 7.00526L35.0009 7.18554ZM32.6572 6.71438L32.6411 6.89395C32.945 6.92117 33.1739 6.98937 33.4146 7.06654C33.6556 7.1438 33.9129 7.23174 34.2518 7.28277L34.2786 7.10449L34.3055 6.92621C34.0004 6.88026 33.7712 6.8022 33.5247 6.72317C33.2779 6.64405 33.0181 6.56569 32.6733 6.53481L32.6572 6.71438ZM31.0442 6.79967C31.0699 6.97813 31.0699 6.97813 31.0699 6.97813C31.0699 6.97813 31.0699 6.97813 31.0699 6.97813C31.0699 6.97813 31.0699 6.97812 31.07 6.97812C31.0701 6.9781 31.0702 6.97808 31.0704 6.97805C31.0708 6.978 31.0715 6.9779 31.0723 6.97778C31.0741 6.97754 31.0767 6.97716 31.0803 6.97667C31.0873 6.97569 31.0979 6.97424 31.1117 6.9724C31.1392 6.96873 31.1794 6.96351 31.2296 6.95741C31.3303 6.9452 31.4709 6.9295 31.6308 6.91553C31.9536 6.88735 32.3437 6.86732 32.6411 6.89395L32.6572 6.71438L32.6733 6.53481C32.3425 6.50519 31.926 6.5278 31.5994 6.55632C31.4346 6.57071 31.2899 6.58688 31.1862 6.59945C31.1344 6.60575 31.0927 6.61115 31.0639 6.615C31.0495 6.61692 31.0383 6.61845 31.0307 6.61952C31.0268 6.62005 31.0239 6.62047 31.0219 6.62075C31.0208 6.62089 31.0201 6.62101 31.0195 6.62108C31.0192 6.62112 31.019 6.62115 31.0189 6.62117C31.0188 6.62119 31.0187 6.62119 31.0187 6.6212C31.0187 6.6212 31.0186 6.62121 31.0186 6.62121C31.0186 6.62121 31.0186 6.62122 31.0442 6.79967ZM36.2913 12.957L36.4676 12.9946C36.5771 12.4803 36.6451 12.0775 36.6505 11.666C36.656 11.2529 36.5984 10.8395 36.4664 10.301L36.2913 10.344L36.1162 10.3869C36.2437 10.9067 36.295 11.2882 36.29 11.6612C36.285 12.0359 36.2233 12.4105 36.115 12.9195L36.2913 12.957Z" fill="#280F0B"/>
<path d="M28.0938 3.57356L27.9479 3.67946L28.0938 3.57356ZM27.6894 2.96969L27.8502 2.88806L27.8502 2.88806L27.6894 2.96969ZM27.4007 2.08648L27.5767 2.04736C27.5634 1.98765 27.5208 1.93874 27.4635 1.91745C27.4061 1.89617 27.3419 1.90542 27.2929 1.94201L27.4007 2.08648ZM29.1865 4.83343L29.3221 4.71436L29.3159 4.70797L29.1865 4.83343ZM22.0717 4.7922C22.0198 4.87712 22.0465 4.98811 22.1314 5.0401C22.2163 5.09208 22.3273 5.06538 22.3793 4.98046L22.2255 4.88633L22.0717 4.7922ZM22.8957 4.11203L22.7906 3.96557L22.7818 3.97187L22.7739 3.97917L22.8957 4.11203ZM25.9055 2.88913L25.847 2.71859V2.71859L25.9055 2.88913ZM26.5836 2.62757L26.6682 2.78679V2.78679L26.5836 2.62757ZM24.2871 3.29168L24.2185 3.12497L24.2871 3.29168ZM30.2496 7.10052C30.2762 7.19648 30.3755 7.25272 30.4715 7.22614C30.5674 7.19956 30.6237 7.10022 30.5971 7.00426L30.4233 7.05239L30.2496 7.10052ZM28.0938 3.57356L28.2397 3.46767C28.065 3.22686 27.9701 3.12434 27.8502 2.88806L27.6894 2.96969L27.5287 3.05132C27.6657 3.32117 27.7892 3.46086 27.9479 3.67946L28.0938 3.57356ZM27.6894 2.96969L27.8502 2.88806C27.7762 2.74246 27.7079 2.53553 27.6568 2.35713C27.6317 2.26951 27.6116 2.19162 27.5977 2.13569C27.5908 2.10776 27.5855 2.0854 27.5819 2.07015C27.5802 2.06253 27.5788 2.05669 27.5779 2.05282C27.5775 2.05089 27.5772 2.04945 27.577 2.04854C27.5769 2.04808 27.5768 2.04775 27.5768 2.04755C27.5767 2.04745 27.5767 2.04739 27.5767 2.04736C27.5767 2.04734 27.5767 2.04733 27.5767 2.04733C27.5767 2.04733 27.5767 2.04734 27.5767 2.04734C27.5767 2.04735 27.5767 2.04736 27.4007 2.08648C27.2247 2.1256 27.2247 2.12561 27.2247 2.12563C27.2247 2.12564 27.2247 2.12566 27.2247 2.12568C27.2247 2.12571 27.2248 2.12576 27.2248 2.12581C27.2248 2.12591 27.2248 2.12605 27.2249 2.12622C27.2249 2.12657 27.225 2.12704 27.2252 2.12765C27.2255 2.12887 27.2259 2.13062 27.2264 2.13287C27.2274 2.13736 27.2289 2.14386 27.2308 2.15217C27.2347 2.16879 27.2404 2.19268 27.2477 2.22227C27.2623 2.2814 27.2836 2.36364 27.3101 2.45638C27.3623 2.63869 27.4383 2.87337 27.5287 3.05132L27.6894 2.96969ZM29.1865 4.83343C29.3159 4.70797 29.3159 4.70797 29.3159 4.70797C29.3159 4.70797 29.3159 4.70796 29.3159 4.70796C29.3159 4.70794 29.3159 4.70792 29.3158 4.70788C29.3158 4.70781 29.3157 4.70769 29.3155 4.70753C29.3152 4.7072 29.3147 4.70671 29.3141 4.70604C29.3128 4.7047 29.3108 4.70267 29.3082 4.69999C29.3031 4.69463 29.2954 4.68664 29.2854 4.67625C29.2656 4.65548 29.2366 4.62512 29.2007 4.58701C29.1288 4.51076 29.0289 4.40362 28.9173 4.2802C28.6927 4.032 28.425 3.72297 28.2397 3.46767L28.0938 3.57356L27.9479 3.67946C28.1451 3.95125 28.4237 4.27215 28.6499 4.52211C28.7636 4.64777 28.8652 4.75678 28.9384 4.83439C28.975 4.87322 29.0045 4.90423 29.025 4.92558C29.0352 4.93626 29.0431 4.94453 29.0486 4.95016C29.0513 4.95298 29.0533 4.95513 29.0548 4.9566C29.0555 4.95733 29.056 4.95789 29.0564 4.95828C29.0566 4.95847 29.0567 4.95862 29.0568 4.95872C29.0569 4.95877 29.0569 4.95881 29.0569 4.95884C29.0569 4.95886 29.057 4.95887 29.057 4.95888C29.057 4.95889 29.057 4.9589 29.1865 4.83343ZM22.2255 4.88633L22.3793 4.98046C22.4806 4.81489 22.6378 4.63219 22.7752 4.48653C22.843 4.41475 22.904 4.35393 22.948 4.31114C22.97 4.28977 22.9876 4.27297 22.9997 4.26162C23.0057 4.25594 23.0103 4.25164 23.0134 4.24881C23.0149 4.2474 23.016 4.24635 23.0167 4.24569C23.0171 4.24536 23.0173 4.24513 23.0175 4.24499C23.0176 4.24493 23.0176 4.24488 23.0176 4.24486C23.0176 4.24485 23.0177 4.24485 23.0176 4.24485C23.0176 4.24485 23.0176 4.24486 23.0176 4.24486C23.0176 4.24487 23.0176 4.24488 22.8957 4.11203C22.7739 3.97917 22.7738 3.97919 22.7738 3.9792C22.7738 3.97921 22.7738 3.97923 22.7738 3.97924C22.7738 3.97927 22.7737 3.9793 22.7737 3.97934C22.7736 3.97942 22.7735 3.97953 22.7733 3.97966C22.773 3.97992 22.7727 3.98028 22.7722 3.98074C22.7712 3.98166 22.7698 3.98296 22.7679 3.98465C22.7643 3.98801 22.7591 3.99288 22.7525 3.99915C22.7392 4.01167 22.7201 4.02979 22.6966 4.05261C22.6498 4.09818 22.585 4.16275 22.513 4.23909C22.3709 4.38967 22.193 4.59411 22.0717 4.7922L22.2255 4.88633ZM25.9055 2.88913L25.964 3.05967C26.2195 2.97203 26.4009 2.92879 26.6682 2.78679L26.5836 2.62757L26.499 2.46836C26.265 2.59269 26.1284 2.62206 25.847 2.71859L25.9055 2.88913ZM26.5836 2.62757L26.6682 2.78679C26.8385 2.69628 27.0503 2.55571 27.2151 2.44129C27.2985 2.38341 27.3717 2.33098 27.424 2.293C27.4502 2.274 27.4712 2.25858 27.4857 2.24787C27.493 2.24252 27.4986 2.23833 27.5025 2.23547C27.5044 2.23403 27.5059 2.23293 27.5069 2.23217C27.5074 2.23179 27.5078 2.2315 27.5081 2.23129C27.5083 2.23119 27.5084 2.23111 27.5084 2.23105C27.5085 2.23102 27.5085 2.231 27.5085 2.23098C27.5085 2.23097 27.5086 2.23097 27.5086 2.23096C27.5086 2.23095 27.5086 2.23095 27.4007 2.08648C27.2929 1.94201 27.2929 1.94201 27.2929 1.94201C27.2929 1.94201 27.2929 1.94201 27.2929 1.94201C27.2929 1.94202 27.2928 1.94203 27.2928 1.94204C27.2928 1.94207 27.2927 1.94213 27.2926 1.94221C27.2924 1.94236 27.2921 1.9426 27.2916 1.94293C27.2908 1.94358 27.2894 1.94458 27.2876 1.9459C27.2841 1.94855 27.2787 1.95251 27.2718 1.95762C27.2579 1.96786 27.2376 1.98274 27.2122 2.00117C27.1614 2.03804 27.0904 2.08896 27.0095 2.14507C26.8459 2.25864 26.6491 2.38861 26.499 2.46836L26.5836 2.62757ZM24.2871 3.29168L24.3558 3.4584C24.6379 3.34225 24.8724 3.29705 25.1216 3.25436C25.371 3.21162 25.6398 3.17086 25.964 3.05967L25.9055 2.88913L25.847 2.71859C25.5551 2.8187 25.3158 2.85524 25.0607 2.89896C24.8052 2.94273 24.5386 2.99316 24.2185 3.12497L24.2871 3.29168ZM22.8957 4.11203C23.0009 4.25848 23.0009 4.25849 23.0009 4.25849C23.0009 4.25849 23.0009 4.25849 23.0009 4.25848C23.0009 4.25848 23.0009 4.25846 23.001 4.25843C23.001 4.25839 23.0011 4.2583 23.0013 4.25818C23.0016 4.25794 23.0022 4.25756 23.0029 4.25705C23.0043 4.25603 23.0065 4.25447 23.0094 4.25241C23.0152 4.24827 23.0239 4.2421 23.0353 4.23412C23.058 4.21816 23.0912 4.19498 23.133 4.16636C23.2166 4.10907 23.3341 4.0302 23.4695 3.94399C23.7429 3.76995 24.0796 3.5721 24.3558 3.4584L24.2871 3.29168L24.2185 3.12497C23.9114 3.25142 23.5524 3.46375 23.2759 3.63984C23.1363 3.72869 23.0154 3.80988 22.9292 3.86889C22.8861 3.89841 22.8517 3.92243 22.8279 3.93913C22.816 3.94749 22.8068 3.95402 22.8005 3.9585C22.7974 3.96074 22.7949 3.96247 22.7933 3.96366C22.7924 3.96425 22.7918 3.96471 22.7913 3.96503C22.7911 3.96519 22.7909 3.96532 22.7908 3.96541C22.7908 3.96545 22.7907 3.96549 22.7907 3.96552C22.7907 3.96553 22.7906 3.96555 22.7906 3.96555C22.7906 3.96556 22.7906 3.96557 22.8957 4.11203ZM30.4233 7.05239L30.5971 7.00426C30.4556 6.49335 30.3213 6.12763 30.1267 5.78321C29.9327 5.4401 29.6832 5.12607 29.322 4.7145L29.1865 4.83343L29.051 4.95237C29.4085 5.35972 29.6378 5.65105 29.8128 5.96064C29.987 6.26891 30.1118 6.6032 30.2496 7.10052L30.4233 7.05239Z" fill="#280F0B"/>
<path d="M17.4994 2.88151L17.5516 2.70894V2.70894L17.4994 2.88151ZM16.8122 2.64503L16.7335 2.80724L16.7335 2.80724L16.8122 2.64503ZM16.0482 2.11608L16.1648 1.97852C16.1181 1.93898 16.0546 1.9258 15.996 1.94352C15.9375 1.96124 15.8919 2.00744 15.875 2.06623L16.0482 2.11608ZM19.1315 3.22438L19.1675 3.04751L19.1587 3.04617L19.1315 3.22438ZM13.4312 7.09736C13.4312 7.19693 13.5119 7.27765 13.6115 7.27765C13.711 7.27765 13.7918 7.19693 13.7918 7.09736L13.6115 7.09736L13.4312 7.09736ZM13.6846 6.45326L13.8536 6.5172L13.8569 6.50634L13.6846 6.45326ZM15.3426 3.65945L15.1929 3.55898L15.1929 3.55898L15.3426 3.65945ZM15.7245 3.04114L15.8882 3.11681L15.8882 3.11681L15.7245 3.04114ZM14.2969 4.95859L14.1414 4.8673V4.8673L14.2969 4.95859ZM21.4499 4.48205C21.5291 4.54242 21.6422 4.52715 21.7026 4.44796C21.7629 4.36877 21.7477 4.25564 21.6685 4.19528L21.5592 4.33867L21.4499 4.48205ZM17.4994 2.88151L17.5516 2.70894C17.2668 2.62281 17.1293 2.59847 16.8909 2.48282L16.8122 2.64503L16.7335 2.80724C17.0058 2.93933 17.1887 2.97589 17.4472 3.05408L17.4994 2.88151ZM16.8122 2.64503L16.8909 2.48282C16.744 2.41154 16.5644 2.28806 16.4158 2.17684C16.3429 2.12222 16.2798 2.07234 16.2349 2.03616C16.2125 2.01809 16.1948 2.0035 16.1827 1.9935C16.1767 1.98851 16.1721 1.98466 16.1691 1.98212C16.1675 1.98085 16.1664 1.9799 16.1657 1.97929C16.1653 1.97899 16.1651 1.97877 16.1649 1.97864C16.1648 1.97858 16.1648 1.97853 16.1648 1.97851C16.1648 1.9785 16.1648 1.9785 16.1648 1.9785C16.1648 1.9785 16.1648 1.9785 16.1648 1.9785C16.1648 1.97851 16.1648 1.97852 16.0482 2.11608C15.9317 2.25365 15.9317 2.25366 15.9317 2.25367C15.9317 2.25368 15.9318 2.25369 15.9318 2.2537C15.9318 2.25373 15.9318 2.25376 15.9319 2.25379C15.932 2.25386 15.9321 2.25395 15.9322 2.25407C15.9325 2.25429 15.9328 2.25461 15.9333 2.25501C15.9343 2.25582 15.9356 2.25697 15.9374 2.25845C15.9409 2.26141 15.9461 2.26568 15.9526 2.27113C15.9658 2.28202 15.9847 2.29761 16.0085 2.31676C16.0559 2.35501 16.1225 2.40767 16.1997 2.46549C16.3515 2.57915 16.5539 2.72014 16.7335 2.80724L16.8122 2.64503ZM19.1315 3.22438C19.1587 3.04617 19.1587 3.04617 19.1587 3.04617C19.1587 3.04617 19.1587 3.04616 19.1587 3.04616C19.1587 3.04616 19.1587 3.04615 19.1586 3.04615C19.1585 3.04613 19.1584 3.04611 19.1581 3.04607C19.1577 3.046 19.157 3.0459 19.1561 3.04576C19.1542 3.04547 19.1515 3.04504 19.1478 3.04447C19.1404 3.04332 19.1295 3.0416 19.1153 3.03934C19.0869 3.03481 19.0455 3.02812 18.9938 3.01949C18.8904 3.00224 18.7461 2.97727 18.5826 2.94648C18.2536 2.88455 17.8536 2.80027 17.5516 2.70894L17.4994 2.88151L17.4472 3.05408C17.7687 3.15131 18.1846 3.23846 18.5159 3.30083C18.6824 3.33218 18.8292 3.35758 18.9344 3.37515C18.9871 3.38394 19.0294 3.39078 19.0586 3.39543C19.0732 3.39775 19.0845 3.39953 19.0922 3.40074C19.0961 3.40134 19.099 3.4018 19.101 3.40211C19.102 3.40227 19.1028 3.40238 19.1033 3.40247C19.1036 3.40251 19.1038 3.40254 19.104 3.40256C19.104 3.40257 19.1041 3.40258 19.1041 3.40259C19.1042 3.40259 19.1042 3.40259 19.1042 3.40259C19.1042 3.4026 19.1042 3.4026 19.1315 3.22438ZM13.6115 7.09736L13.7918 7.09736C13.7918 6.88178 13.8093 6.73117 13.8257 6.63733C13.8339 6.59039 13.8418 6.5576 13.8472 6.53793C13.8498 6.52809 13.8519 6.52151 13.853 6.51809C13.8535 6.51637 13.8539 6.51544 13.8539 6.51527C13.854 6.51519 13.8539 6.5153 13.8538 6.5156C13.8538 6.51575 13.8537 6.51595 13.8536 6.5162C13.8535 6.51632 13.8535 6.51645 13.8534 6.5166C13.8534 6.51667 13.8534 6.51675 13.8534 6.51683C13.8533 6.51687 13.8533 6.51693 13.8533 6.51695C13.8533 6.51701 13.8533 6.51707 13.6846 6.45326C13.516 6.38944 13.516 6.38951 13.516 6.38957C13.516 6.3896 13.5159 6.38966 13.5159 6.38971C13.5159 6.3898 13.5159 6.38989 13.5158 6.38999C13.5157 6.39018 13.5157 6.39039 13.5156 6.3906C13.5154 6.39104 13.5153 6.39152 13.5151 6.39205C13.5147 6.39311 13.5142 6.39436 13.5137 6.3958C13.5127 6.39869 13.5115 6.40236 13.51 6.40681C13.5071 6.41572 13.5034 6.42777 13.4993 6.4431C13.4909 6.47377 13.4805 6.5175 13.4705 6.57525C13.4503 6.69078 13.4312 6.86222 13.4312 7.09736L13.6115 7.09736ZM15.3426 3.65945L15.4923 3.75992C15.6428 3.53564 15.7611 3.39151 15.8882 3.11681L15.7245 3.04114L15.5609 2.96547C15.4497 3.206 15.3587 3.31193 15.1929 3.55898L15.3426 3.65945ZM15.7245 3.04114L15.8882 3.11681C15.9691 2.94172 16.0528 2.70172 16.1149 2.51092C16.1464 2.4144 16.1729 2.3284 16.1916 2.26651C16.201 2.23554 16.2084 2.21055 16.2135 2.19324C16.2161 2.18458 16.2181 2.17783 16.2194 2.17322C16.2201 2.17091 16.2206 2.16913 16.2209 2.16791C16.2211 2.1673 16.2212 2.16682 16.2213 2.1665C16.2214 2.16633 16.2214 2.1662 16.2215 2.16611C16.2215 2.16606 16.2215 2.16603 16.2215 2.166C16.2215 2.16598 16.2215 2.16597 16.2215 2.16596C16.2215 2.16595 16.2215 2.16594 16.0482 2.11608C15.875 2.06623 15.875 2.06622 15.875 2.06622C15.875 2.06622 15.875 2.06622 15.875 2.06622C15.875 2.06623 15.875 2.06625 15.875 2.06627C15.875 2.06633 15.8749 2.06641 15.8749 2.06654C15.8748 2.06678 15.8747 2.06717 15.8746 2.0677C15.8743 2.06875 15.8738 2.07036 15.8732 2.07249C15.8719 2.07676 15.8701 2.08313 15.8676 2.09141C15.8628 2.10796 15.8556 2.13208 15.8465 2.16211C15.8283 2.2222 15.8025 2.30571 15.7721 2.39929C15.7104 2.58867 15.6322 2.8112 15.5609 2.96547L15.7245 3.04114ZM14.2969 4.95859L14.4524 5.04988C14.6068 4.7868 14.7663 4.60898 14.939 4.42434C15.1118 4.23947 15.3013 4.0445 15.4923 3.75992L15.3426 3.65945L15.1929 3.55898C15.0209 3.81519 14.8524 3.98897 14.6756 4.17807C14.4986 4.3674 14.3167 4.56876 14.1414 4.8673L14.2969 4.95859ZM13.6846 6.45326C13.8569 6.50634 13.8569 6.50635 13.8569 6.50635C13.8569 6.50635 13.8569 6.50635 13.8569 6.50634C13.8569 6.50633 13.857 6.5063 13.857 6.50626C13.857 6.50618 13.857 6.50604 13.8571 6.50584C13.8572 6.50545 13.8574 6.50483 13.8577 6.50399C13.8582 6.50231 13.859 6.49975 13.8601 6.49635C13.8622 6.48954 13.8654 6.47936 13.8696 6.46614C13.878 6.4397 13.8905 6.40113 13.9065 6.35307C13.9385 6.25689 13.9844 6.12301 14.0401 5.97249C14.1526 5.66859 14.3012 5.30741 14.4524 5.04988L14.2969 4.95859L14.1414 4.8673C13.9733 5.15371 13.8157 5.53987 13.7019 5.84732C13.6445 6.00247 13.5972 6.14027 13.5643 6.23935C13.5478 6.28892 13.5349 6.32887 13.5261 6.35655C13.5217 6.37039 13.5183 6.38117 13.516 6.38855C13.5148 6.39224 13.5139 6.39508 13.5133 6.39703C13.513 6.39801 13.5128 6.39876 13.5126 6.39929C13.5125 6.39955 13.5125 6.39976 13.5124 6.39991C13.5124 6.39998 13.5124 6.40004 13.5124 6.40009C13.5124 6.40011 13.5124 6.40013 13.5124 6.40014C13.5124 6.40016 13.5123 6.40018 13.6846 6.45326ZM21.5592 4.33867L21.6685 4.19528C21.2476 3.8745 20.896 3.64175 20.5098 3.4619C20.1233 3.28186 19.7096 3.15827 19.1675 3.04773L19.1315 3.22438L19.0955 3.40104C19.621 3.50818 20.0052 3.62462 20.3576 3.78876C20.7104 3.95308 21.0387 4.16862 21.4499 4.48205L21.5592 4.33867Z" fill="#280F0B"/>
<path d="M8.56416 7.35052L8.53984 7.17188L8.56416 7.35052ZM7.84084 7.42131L7.83676 7.60155L7.83676 7.60155L7.84084 7.42131ZM6.9261 7.25806L6.97485 7.08448C6.91596 7.06794 6.8527 7.08239 6.80683 7.12286C6.76096 7.16333 6.73873 7.22429 6.7478 7.28479L6.9261 7.25806ZM10.1909 6.98347L10.1502 6.80763L10.1416 6.81006L10.1909 6.98347ZM6.77045 13.0928C6.8207 13.1787 6.93112 13.2077 7.01708 13.1575C7.10305 13.1072 7.132 12.9968 7.08175 12.9108L6.9261 13.0018L6.77045 13.0928ZM6.58071 12.1854L6.40194 12.2088L6.40373 12.2224L6.40757 12.2357L6.58071 12.1854ZM6.92633 8.9551L6.7484 8.92601L6.7484 8.92601L6.92633 8.9551ZM7.01649 8.23395L7.19678 8.23469L7.19678 8.23469L7.01649 8.23395ZM6.51578 10.5715L6.33643 10.5531V10.5531L6.51578 10.5715ZM12.8224 7.16284C12.9195 7.18479 13.0161 7.12386 13.038 7.02674C13.06 6.92962 12.999 6.83309 12.9019 6.81113L12.8622 6.98699L12.8224 7.16284ZM8.56416 7.35052L8.53984 7.17188C8.24502 7.212 8.10986 7.24707 7.84493 7.24107L7.84084 7.42131L7.83676 7.60155C8.13932 7.60841 8.32084 7.56559 8.58847 7.52916L8.56416 7.35052ZM7.84084 7.42131L7.84493 7.24107C7.68167 7.23737 7.46701 7.19976 7.28566 7.16041C7.1966 7.14108 7.11844 7.12198 7.06262 7.10773C7.03475 7.10061 7.01253 7.09472 6.99741 7.09065C6.98985 7.08861 6.98407 7.08703 6.98025 7.08598C6.97834 7.08545 6.97692 7.08506 6.97601 7.08481C6.97556 7.08468 6.97523 7.08459 6.97504 7.08454C6.97494 7.08451 6.97488 7.08449 6.97485 7.08448C6.97483 7.08448 6.97482 7.08448 6.97482 7.08448C6.97483 7.08448 6.97483 7.08448 6.97483 7.08448C6.97484 7.08448 6.97485 7.08448 6.9261 7.25806C6.87735 7.43163 6.87736 7.43164 6.87738 7.43164C6.87739 7.43164 6.87741 7.43165 6.87743 7.43165C6.87746 7.43166 6.87751 7.43168 6.87756 7.43169C6.87766 7.43172 6.8778 7.43176 6.87797 7.4318C6.87831 7.4319 6.87878 7.43203 6.87938 7.4322C6.88058 7.43253 6.88231 7.43301 6.88453 7.43362C6.88897 7.43485 6.8954 7.4366 6.90365 7.43882C6.92013 7.44326 6.94386 7.44955 6.9734 7.45709C7.03241 7.47216 7.11492 7.49233 7.20919 7.51279C7.39453 7.55301 7.63723 7.59703 7.83676 7.60155L7.84084 7.42131ZM10.1909 6.98347C10.1416 6.81006 10.1416 6.81006 10.1416 6.81006C10.1416 6.81006 10.1416 6.81006 10.1416 6.81006C10.1416 6.81007 10.1415 6.81008 10.1415 6.81009C10.1414 6.81012 10.1412 6.81017 10.141 6.81023C10.1406 6.81035 10.1399 6.81054 10.139 6.81079C10.1372 6.8113 10.1345 6.81207 10.1309 6.81307C10.1238 6.81509 10.1131 6.81808 10.0993 6.82193C10.0715 6.82963 10.0311 6.84076 9.98054 6.85441C9.87936 6.88171 9.73774 6.91903 9.57619 6.95906C9.25131 7.03956 8.85241 7.12934 8.53984 7.17188L8.56416 7.35052L8.58847 7.52916C8.92123 7.48387 9.33572 7.39013 9.66291 7.30906C9.82739 7.2683 9.97148 7.23033 10.0745 7.20253C10.126 7.18863 10.1673 7.17726 10.1958 7.16935C10.21 7.16539 10.2211 7.1623 10.2286 7.16018C10.2324 7.15912 10.2352 7.15831 10.2372 7.15775C10.2382 7.15748 10.2389 7.15726 10.2394 7.15712C10.2397 7.15704 10.2399 7.15699 10.24 7.15695C10.2401 7.15693 10.2402 7.15691 10.2402 7.1569C10.2402 7.1569 10.2402 7.15689 10.2403 7.15689C10.2403 7.15688 10.2403 7.15688 10.1909 6.98347ZM6.9261 13.0018L7.08175 12.9108C6.98137 12.7391 6.89915 12.5455 6.84147 12.3921C6.81284 12.316 6.79073 12.251 6.77584 12.2053C6.7684 12.1825 6.76279 12.1645 6.75909 12.1525C6.75724 12.1465 6.75587 12.1419 6.75499 12.139C6.75455 12.1375 6.75424 12.1364 6.75404 12.1358C6.75395 12.1354 6.75388 12.1352 6.75385 12.1351C6.75383 12.135 6.75382 12.135 6.75382 12.135C6.75382 12.135 6.75382 12.135 6.75383 12.135C6.75383 12.135 6.75383 12.135 6.75383 12.135C6.75384 12.1351 6.75384 12.1351 6.58071 12.1854C6.40757 12.2357 6.40758 12.2357 6.40759 12.2357C6.40759 12.2357 6.4076 12.2357 6.4076 12.2358C6.40761 12.2358 6.40763 12.2358 6.40764 12.2359C6.40767 12.236 6.40771 12.2361 6.40776 12.2363C6.40785 12.2366 6.40798 12.237 6.40813 12.2376C6.40845 12.2386 6.40889 12.2401 6.40946 12.242C6.41059 12.2458 6.41223 12.2513 6.41436 12.2582C6.41862 12.2721 6.42487 12.2921 6.433 12.317C6.44925 12.3669 6.47313 12.437 6.50396 12.519C6.56518 12.6818 6.65566 12.8964 6.77045 13.0928L6.9261 13.0018ZM6.92633 8.9551L7.10425 8.9842C7.14785 8.71764 7.19552 8.53734 7.19678 8.23469L7.01649 8.23395L6.8362 8.2332C6.8351 8.49819 6.79642 8.63237 6.7484 8.92601L6.92633 8.9551ZM7.01649 8.23395L7.19678 8.23469C7.19758 8.04179 7.17385 7.78873 7.15098 7.58938C7.13941 7.48853 7.1278 7.39927 7.11908 7.3352C7.11472 7.30315 7.11107 7.27734 7.1085 7.25947C7.10722 7.25054 7.10621 7.24358 7.10551 7.23882C7.10516 7.23644 7.10489 7.23461 7.1047 7.23335C7.10461 7.23272 7.10454 7.23224 7.10448 7.2319C7.10446 7.23173 7.10444 7.2316 7.10443 7.2315C7.10442 7.23146 7.10441 7.23142 7.10441 7.23139C7.10441 7.23137 7.1044 7.23136 7.1044 7.23135C7.1044 7.23134 7.1044 7.23133 6.9261 7.25806C6.7478 7.28479 6.7478 7.28478 6.7478 7.28478C6.7478 7.28478 6.7478 7.28478 6.7478 7.28478C6.7478 7.28479 6.74781 7.28481 6.74781 7.28484C6.74782 7.28489 6.74783 7.28498 6.74785 7.28511C6.74789 7.28536 6.74795 7.28576 6.74803 7.2863C6.74819 7.28739 6.74843 7.28904 6.74876 7.29124C6.7494 7.29564 6.75036 7.30221 6.75159 7.31074C6.75404 7.32782 6.75756 7.35274 6.76179 7.38382C6.77026 7.44603 6.78153 7.53271 6.79274 7.63047C6.81544 7.82834 6.83691 8.06323 6.8362 8.2332L7.01649 8.23395ZM6.51578 10.5715L6.69514 10.5898C6.72618 10.2863 6.79727 10.0583 6.87747 9.81855C6.95776 9.57854 7.04894 9.32243 7.10425 8.9842L6.92633 8.9551L6.7484 8.92601C6.6986 9.23051 6.61765 9.45864 6.53552 9.70415C6.45329 9.94996 6.37166 10.2087 6.33643 10.5531L6.51578 10.5715ZM6.58071 12.1854C6.75947 12.162 6.75947 12.162 6.75948 12.162C6.75947 12.162 6.75947 12.162 6.75947 12.162C6.75947 12.162 6.75947 12.1619 6.75946 12.1619C6.75945 12.1618 6.75943 12.1617 6.75941 12.1615C6.75935 12.1611 6.75927 12.1604 6.75916 12.1595C6.75893 12.1578 6.75859 12.1551 6.75815 12.1516C6.75726 12.1445 6.75594 12.1339 6.75427 12.1201C6.75095 12.0926 6.74624 12.0523 6.74077 12.002C6.72984 11.9012 6.71591 11.7604 6.70397 11.6003C6.67985 11.2772 6.66475 10.8869 6.69514 10.5898L6.51578 10.5715L6.33643 10.5531C6.30263 10.8835 6.31999 11.3002 6.34438 11.6271C6.3567 11.7921 6.37103 11.9371 6.3823 12.0409C6.38794 12.0928 6.39281 12.1345 6.3963 12.1634C6.39804 12.1778 6.39943 12.189 6.4004 12.1967C6.40088 12.2005 6.40126 12.2035 6.40152 12.2055C6.40165 12.2065 6.40175 12.2073 6.40182 12.2078C6.40186 12.2081 6.40189 12.2083 6.40191 12.2085C6.40192 12.2086 6.40192 12.2086 6.40193 12.2087C6.40193 12.2087 6.40194 12.2087 6.40194 12.2087C6.40194 12.2088 6.40194 12.2088 6.58071 12.1854ZM12.8622 6.98699L12.9019 6.81113C12.3858 6.69447 11.9691 6.62909 11.5432 6.62615C11.1168 6.6232 10.6892 6.68286 10.1502 6.80784L10.1909 6.98347L10.2317 7.1591C10.7541 7.03795 11.152 6.98404 11.5407 6.98672C11.9299 6.98941 12.3181 7.04885 12.8224 7.16284L12.8622 6.98699Z" fill="#280F0B"/>
<path d="M3.0748 15.9501L2.95581 15.8147V15.8147L3.0748 15.9501ZM2.51109 16.4089L2.60729 16.5613V16.5613L2.51109 16.4089ZM1.6585 16.7783L1.60321 16.6067C1.54499 16.6255 1.50025 16.6725 1.48438 16.7315C1.46851 16.7906 1.48368 16.8537 1.52467 16.8991L1.6585 16.7783ZM4.22777 14.7452L4.09661 14.6212L4.09083 14.6279L4.22777 14.7452ZM4.84735 21.833C4.93674 21.8769 5.04476 21.84 5.08864 21.7506C5.13251 21.6612 5.09562 21.5532 5.00624 21.5093L4.92679 21.6712L4.84735 21.833ZM4.09361 21.0757L3.95755 21.194L3.96463 21.2022L3.97264 21.2094L4.09361 21.0757ZM2.59652 18.1925L2.43215 18.2666V18.2666L2.59652 18.1925ZM2.27313 17.5417L2.4238 17.4427V17.4427L2.27313 17.5417ZM3.14761 19.7665L2.98799 19.8504L3.14761 19.7665ZM6.41898 13.5314C6.51206 13.496 6.55883 13.3918 6.52346 13.2988C6.48808 13.2057 6.38395 13.1589 6.29088 13.1943L6.35493 13.3628L6.41898 13.5314ZM3.0748 15.9501L2.95581 15.8147C2.73228 16.011 2.63901 16.115 2.41489 16.2564L2.51109 16.4089L2.60729 16.5613C2.86325 16.3998 2.99086 16.2638 3.19379 16.0856L3.0748 15.9501ZM2.51109 16.4089L2.41489 16.2564C2.27678 16.3435 2.07709 16.4308 1.90421 16.4982C1.81929 16.5313 1.7436 16.5586 1.6892 16.5776C1.66204 16.587 1.64027 16.5944 1.62541 16.5994C1.61799 16.6019 1.6123 16.6037 1.60853 16.605C1.60665 16.6056 1.60525 16.606 1.60435 16.6063C1.6039 16.6065 1.60358 16.6066 1.60339 16.6066C1.6033 16.6067 1.60323 16.6067 1.6032 16.6067C1.60319 16.6067 1.60318 16.6067 1.60318 16.6067C1.60318 16.6067 1.60319 16.6067 1.60319 16.6067C1.6032 16.6067 1.60321 16.6067 1.6585 16.7783C1.71379 16.9499 1.7138 16.9499 1.71382 16.9499C1.71383 16.9499 1.71385 16.9499 1.71387 16.9499C1.7139 16.9499 1.71394 16.9499 1.714 16.9498C1.7141 16.9498 1.71423 16.9498 1.7144 16.9497C1.71473 16.9496 1.7152 16.9494 1.7158 16.9493C1.71698 16.9489 1.71868 16.9483 1.72087 16.9476C1.72525 16.9462 1.73158 16.9441 1.73968 16.9414C1.75587 16.936 1.77913 16.9281 1.80791 16.918C1.86542 16.898 1.94534 16.8692 2.03521 16.8342C2.21189 16.7653 2.4385 16.6678 2.60729 16.5613L2.51109 16.4089ZM4.22777 14.7452C4.09083 14.6279 4.09083 14.6279 4.09083 14.6279C4.09082 14.6279 4.09082 14.628 4.09082 14.628C4.0908 14.628 4.09078 14.628 4.09075 14.628C4.09068 14.6281 4.09057 14.6282 4.09043 14.6284C4.09013 14.6288 4.08968 14.6293 4.08908 14.63C4.08786 14.6314 4.08603 14.6335 4.0836 14.6364C4.07874 14.642 4.0715 14.6504 4.06208 14.6612C4.04324 14.683 4.0157 14.7146 3.98109 14.7539C3.91184 14.8326 3.81444 14.942 3.70192 15.0646C3.47565 15.3112 3.19281 15.6065 2.95581 15.8147L3.0748 15.9501L3.19379 16.0856C3.44609 15.8639 3.73973 15.5567 3.96762 15.3084C4.08218 15.1835 4.18128 15.0722 4.25176 14.9921C4.28702 14.9521 4.31515 14.9198 4.33452 14.8975C4.3442 14.8863 4.3517 14.8776 4.3568 14.8717C4.35935 14.8687 4.3613 14.8665 4.36263 14.8649C4.36329 14.8641 4.3638 14.8635 4.36415 14.8631C4.36433 14.8629 4.36446 14.8628 4.36456 14.8627C4.3646 14.8626 4.36464 14.8626 4.36467 14.8625C4.36468 14.8625 4.36469 14.8625 4.3647 14.8625C4.36471 14.8625 4.36472 14.8625 4.22777 14.7452ZM4.92679 21.6712L5.00624 21.5093C4.83198 21.4238 4.63547 21.2842 4.47767 21.1609C4.39992 21.1002 4.33369 21.0451 4.28701 21.0052C4.26369 20.9853 4.24532 20.9693 4.2329 20.9583C4.22669 20.9529 4.22197 20.9487 4.21887 20.9459C4.21732 20.9445 4.21618 20.9435 4.21546 20.9428C4.2151 20.9425 4.21484 20.9423 4.21469 20.9422C4.21462 20.9421 4.21457 20.942 4.21455 20.942C4.21454 20.942 4.21453 20.942 4.21454 20.942C4.21454 20.942 4.21455 20.942 4.21455 20.942C4.21456 20.942 4.21457 20.942 4.09361 21.0757C3.97264 21.2094 3.97266 21.2094 3.97267 21.2095C3.97268 21.2095 3.9727 21.2095 3.97271 21.2095C3.97275 21.2095 3.97278 21.2096 3.97283 21.2096C3.97292 21.2097 3.97303 21.2098 3.97318 21.2099C3.97346 21.2102 3.97386 21.2105 3.97436 21.211C3.97537 21.2119 3.9768 21.2132 3.97864 21.2148C3.98233 21.2181 3.98766 21.2228 3.99452 21.2289C4.00823 21.241 4.02804 21.2582 4.05293 21.2795C4.10266 21.3219 4.17297 21.3804 4.25566 21.4451C4.41878 21.5725 4.63886 21.7307 4.84735 21.833L4.92679 21.6712ZM2.59652 18.1925L2.76089 18.1185C2.64991 17.8722 2.59001 17.6956 2.4238 17.4427L2.27313 17.5417L2.12246 17.6407C2.26799 17.8622 2.3099 17.9954 2.43215 18.2666L2.59652 18.1925ZM2.27313 17.5417L2.4238 17.4427C2.31787 17.2815 2.15824 17.0837 2.02901 16.9302C1.96364 16.8525 1.90464 16.7845 1.86197 16.736C1.84061 16.7116 1.82331 16.6922 1.8113 16.6787C1.80529 16.6719 1.8006 16.6667 1.79739 16.6631C1.79579 16.6613 1.79455 16.66 1.7937 16.659C1.79327 16.6585 1.79294 16.6582 1.79271 16.6579C1.7926 16.6578 1.79251 16.6577 1.79244 16.6576C1.79241 16.6576 1.79239 16.6576 1.79237 16.6575C1.79236 16.6575 1.79235 16.6575 1.79234 16.6575C1.79233 16.6575 1.79233 16.6575 1.6585 16.7783C1.52467 16.8991 1.52467 16.8991 1.52466 16.8991C1.52467 16.8991 1.52467 16.8991 1.52467 16.8991C1.52467 16.8991 1.52469 16.8991 1.5247 16.8991C1.52474 16.8992 1.5248 16.8993 1.52489 16.8994C1.52506 16.8995 1.52533 16.8998 1.5257 16.9002C1.52643 16.9011 1.52755 16.9023 1.52903 16.904C1.532 16.9073 1.53643 16.9122 1.54217 16.9187C1.55365 16.9315 1.57036 16.9504 1.59106 16.9739C1.63249 17.0211 1.68979 17.0871 1.75316 17.1624C1.88143 17.3147 2.02912 17.4986 2.12246 17.6407L2.27313 17.5417ZM3.14761 19.7665L3.30723 19.6827C3.16538 19.4126 3.09861 19.1833 3.03297 18.9392C2.96725 18.6948 2.90171 18.4309 2.76089 18.1185L2.59652 18.1925L2.43215 18.2666C2.55893 18.5479 2.61753 18.7828 2.68476 19.0328C2.75206 19.2831 2.82703 19.5439 2.98799 19.8504L3.14761 19.7665ZM4.09361 21.0757C4.22966 20.9574 4.22967 20.9575 4.22967 20.9575C4.22967 20.9575 4.22967 20.9575 4.22967 20.9574C4.22966 20.9574 4.22964 20.9574 4.22961 20.9574C4.22955 20.9573 4.22946 20.9572 4.22932 20.9571C4.22906 20.9567 4.22863 20.9563 4.22806 20.9556C4.22691 20.9543 4.22515 20.9522 4.22282 20.9495C4.21817 20.9441 4.21121 20.936 4.20222 20.9255C4.18422 20.9043 4.15805 20.8734 4.12567 20.8344C4.06087 20.7565 3.97142 20.6468 3.87302 20.52C3.67434 20.264 3.44608 19.9471 3.30723 19.6827L3.14761 19.7665L2.98799 19.8504C3.14242 20.1444 3.38716 20.4821 3.58816 20.7411C3.68959 20.8718 3.78166 20.9847 3.84841 21.065C3.8818 21.1051 3.90891 21.1372 3.92776 21.1593C3.93718 21.1704 3.94454 21.179 3.94958 21.1848C3.95211 21.1877 3.95405 21.19 3.95539 21.1915C3.95606 21.1923 3.95658 21.1929 3.95694 21.1933C3.95712 21.1935 3.95726 21.1937 3.95736 21.1938C3.95741 21.1939 3.95745 21.1939 3.95748 21.194C3.9575 21.194 3.95752 21.194 3.95752 21.194C3.95754 21.194 3.95755 21.194 4.09361 21.0757ZM6.35493 13.3628L6.29088 13.1943C5.80019 13.3808 5.44114 13.5337 5.10888 13.7442C4.77528 13.9555 4.47632 14.2199 4.09677 14.6213L4.22777 14.7452L4.35877 14.8691C4.72786 14.4787 5.00351 14.2378 5.30185 14.0488C5.60152 13.859 5.93173 13.7165 6.41898 13.5314L6.35493 13.3628Z" fill="#280F0B"/>
<path d="M2.70488 25.2816L2.54224 25.2038V25.2038L2.70488 25.2816ZM2.36669 25.9249L2.51506 26.0274L2.51506 26.0274L2.36669 25.9249ZM1.72779 26.5996L1.60953 26.4635C1.56336 26.5037 1.54068 26.5645 1.54929 26.625C1.55791 26.6856 1.59665 26.7376 1.65218 26.7633L1.72779 26.5996ZM3.2918 23.7206L3.12247 23.6581L3.1198 23.6666L3.2918 23.7206ZM6.38658 29.949C6.48602 29.9543 6.57087 29.8779 6.5761 29.7785C6.58134 29.679 6.50497 29.5942 6.40554 29.589L6.39606 29.769L6.38658 29.949ZM5.65536 29.5949L5.57671 29.7572L5.57713 29.7574L5.65536 29.5949ZM3.14598 27.5317L3.02393 27.6644L3.02393 27.6644L3.14598 27.5317ZM2.5929 27.0602L2.69256 26.9099L2.69256 26.9099L2.5929 27.0602ZM4.2711 28.7626L4.15725 28.9024V28.9024L4.2711 28.7626ZM4.89856 21.8308C4.97025 21.7617 4.97236 21.6476 4.90326 21.5759C4.83417 21.5042 4.72003 21.5021 4.64834 21.5712L4.77345 21.701L4.89856 21.8308ZM2.70488 25.2816L2.54224 25.2038C2.41382 25.4722 2.36888 25.6044 2.21832 25.8225L2.36669 25.9249L2.51506 26.0274C2.687 25.7783 2.75093 25.6031 2.86751 25.3595L2.70488 25.2816ZM2.36669 25.9249L2.21832 25.8225C2.12555 25.9569 1.97621 26.1156 1.84371 26.2455C1.77863 26.3093 1.71974 26.3641 1.67716 26.403C1.6559 26.4223 1.63878 26.4377 1.62707 26.4481C1.62121 26.4533 1.61672 26.4572 1.61374 26.4598C1.61225 26.4612 1.61114 26.4621 1.61043 26.4627C1.61008 26.4631 1.60983 26.4633 1.60967 26.4634C1.6096 26.4635 1.60955 26.4635 1.60952 26.4635C1.60951 26.4635 1.60951 26.4636 1.60951 26.4636C1.60951 26.4636 1.60951 26.4635 1.60951 26.4635C1.60952 26.4635 1.60953 26.4635 1.72779 26.5996C1.84605 26.7357 1.84606 26.7357 1.84607 26.7357C1.84608 26.7357 1.84609 26.7357 1.84611 26.7357C1.84614 26.7356 1.84617 26.7356 1.84621 26.7356C1.84629 26.7355 1.8464 26.7354 1.84653 26.7353C1.8468 26.7351 1.84717 26.7347 1.84764 26.7343C1.84858 26.7335 1.84992 26.7323 1.85165 26.7308C1.85512 26.7278 1.86012 26.7234 1.8665 26.7177C1.87926 26.7064 1.89756 26.69 1.92009 26.6694C1.9651 26.6284 2.02727 26.5705 2.09615 26.503C2.23157 26.3702 2.40168 26.1916 2.51506 26.0274L2.36669 25.9249ZM3.2918 23.7206C3.1198 23.6666 3.1198 23.6666 3.1198 23.6666C3.1198 23.6666 3.1198 23.6666 3.11979 23.6666C3.11979 23.6666 3.11978 23.6667 3.11976 23.6667C3.11973 23.6668 3.11968 23.667 3.11961 23.6672C3.11948 23.6676 3.11927 23.6683 3.11899 23.6692C3.11843 23.671 3.11758 23.6736 3.11646 23.6772C3.1142 23.6843 3.11084 23.6948 3.10645 23.7085C3.09766 23.7359 3.08475 23.7758 3.06837 23.8256C3.0356 23.9251 2.989 24.064 2.9337 24.2209C2.8225 24.5366 2.6784 24.9193 2.54224 25.2038L2.70488 25.2816L2.86751 25.3595C3.01245 25.0565 3.16181 24.6587 3.2738 24.3407C3.3301 24.1809 3.37752 24.0396 3.41087 23.9383C3.42756 23.8876 3.44074 23.8469 3.44978 23.8187C3.45429 23.8046 3.45778 23.7937 3.46014 23.7863C3.46132 23.7825 3.46223 23.7797 3.46284 23.7777C3.46315 23.7768 3.46338 23.776 3.46354 23.7755C3.46362 23.7753 3.46369 23.7751 3.46373 23.7749C3.46375 23.7749 3.46377 23.7748 3.46378 23.7748C3.46379 23.7747 3.46379 23.7747 3.4638 23.7747C3.4638 23.7747 3.4638 23.7747 3.2918 23.7206ZM6.39606 29.769L6.40554 29.589C6.21108 29.5787 6.04089 29.5388 5.9192 29.5013C5.85858 29.4826 5.81067 29.4647 5.77856 29.4517C5.76253 29.4453 5.75049 29.4401 5.74285 29.4367C5.73904 29.435 5.73632 29.4338 5.73476 29.433C5.73398 29.4327 5.73348 29.4324 5.73328 29.4323C5.73319 29.4323 5.73316 29.4323 5.73321 29.4323C5.73323 29.4323 5.73328 29.4323 5.73334 29.4324C5.73337 29.4324 5.73341 29.4324 5.73345 29.4324C5.73347 29.4324 5.7335 29.4325 5.73351 29.4325C5.73355 29.4325 5.73358 29.4325 5.65536 29.5949C5.57713 29.7574 5.57717 29.7574 5.57721 29.7574C5.57723 29.7574 5.57727 29.7574 5.5773 29.7574C5.57736 29.7575 5.57742 29.7575 5.57749 29.7575C5.57763 29.7576 5.57779 29.7577 5.57797 29.7578C5.57832 29.7579 5.57875 29.7581 5.57926 29.7584C5.58028 29.7589 5.58161 29.7595 5.58324 29.7602C5.5865 29.7617 5.59096 29.7638 5.59659 29.7663C5.60783 29.7713 5.62373 29.7781 5.64387 29.7862C5.68412 29.8024 5.74154 29.8238 5.81288 29.8458C5.95509 29.8897 6.15526 29.9369 6.38658 29.949L6.39606 29.769ZM3.14598 27.5317L3.26803 27.399C3.06923 27.2161 2.94476 27.0772 2.69256 26.9099L2.5929 27.0602L2.49324 27.2104C2.71407 27.3569 2.80494 27.4629 3.02393 27.6644L3.14598 27.5317ZM2.5929 27.0602L2.69256 26.9099C2.53181 26.8033 2.30732 26.6841 2.12817 26.5937C2.03755 26.548 1.95659 26.5087 1.89826 26.4807C1.86908 26.4668 1.84551 26.4556 1.82917 26.448C1.821 26.4441 1.81463 26.4412 1.81027 26.4391C1.80809 26.4381 1.80641 26.4373 1.80525 26.4368C1.80468 26.4365 1.80423 26.4363 1.80392 26.4362C1.80377 26.4361 1.80364 26.4361 1.80356 26.436C1.80351 26.436 1.80348 26.436 1.80345 26.436C1.80344 26.436 1.80342 26.436 1.80342 26.436C1.80341 26.436 1.8034 26.436 1.72779 26.5996C1.65218 26.7633 1.65217 26.7633 1.65217 26.7633C1.65217 26.7633 1.65217 26.7633 1.65218 26.7633C1.65218 26.7633 1.6522 26.7633 1.65222 26.7633C1.65227 26.7633 1.65236 26.7634 1.65247 26.7634C1.6527 26.7635 1.65307 26.7637 1.65357 26.7639C1.65456 26.7644 1.65608 26.7651 1.65809 26.766C1.66212 26.7679 1.66814 26.7707 1.67595 26.7744C1.69156 26.7817 1.71432 26.7925 1.74262 26.806C1.79925 26.8331 1.87787 26.8713 1.96573 26.9156C2.14354 27.0054 2.3516 27.1165 2.49324 27.2104L2.5929 27.0602ZM4.2711 28.7626L4.38496 28.6228C4.14841 28.4302 3.9969 28.2455 3.84064 28.0468C3.68419 27.8479 3.52028 27.631 3.26803 27.399L3.14598 27.5317L3.02393 27.6644C3.25102 27.8732 3.39718 28.0662 3.55721 28.2697C3.71743 28.4734 3.88882 28.6838 4.15725 28.9024L4.2711 28.7626ZM5.65536 29.5949C5.73401 29.4327 5.73401 29.4327 5.73402 29.4327C5.73402 29.4327 5.73402 29.4327 5.73401 29.4327C5.734 29.4327 5.73397 29.4327 5.73394 29.4327C5.73386 29.4326 5.73373 29.4326 5.73354 29.4325C5.73317 29.4323 5.73259 29.432 5.7318 29.4316C5.73022 29.4309 5.72781 29.4297 5.72461 29.4281C5.7182 29.425 5.70862 29.4202 5.6962 29.4141C5.67135 29.4017 5.63512 29.3835 5.59005 29.3604C5.49984 29.3142 5.3745 29.2485 5.23419 29.1705C4.95092 29.0132 4.61652 28.8114 4.38496 28.6228L4.2711 28.7626L4.15725 28.9024C4.41477 29.1122 4.7725 29.3266 5.05909 29.4858C5.2037 29.5661 5.33272 29.6338 5.42564 29.6814C5.47213 29.7052 5.50966 29.724 5.53568 29.7369C5.54869 29.7434 5.55882 29.7484 5.56577 29.7518C5.56924 29.7535 5.57191 29.7548 5.57375 29.7557C5.57467 29.7562 5.57538 29.7565 5.57587 29.7568C5.57612 29.7569 5.57631 29.757 5.57645 29.757C5.57652 29.7571 5.57658 29.7571 5.57662 29.7571C5.57664 29.7571 5.57667 29.7571 5.57668 29.7571C5.57669 29.7572 5.57671 29.7572 5.65536 29.5949ZM4.77345 21.701L4.64834 21.5712C4.27822 21.9279 3.98943 22.1889 3.75088 22.4871C3.50715 22.7919 3.31648 23.1333 3.12267 23.6582L3.2918 23.7206L3.46093 23.7831C3.64454 23.2858 3.81805 22.9804 4.03246 22.7124C4.25206 22.4378 4.51537 22.2001 4.89856 21.8308L4.77345 21.701Z" fill="#280F0B"/>
<path d="M7.30121 34.5756L7.12217 34.5967V34.5967L7.30121 34.5756ZM7.35919 35.3L7.53933 35.3073L7.53933 35.3073L7.35919 35.3ZM7.17977 36.2117L7.00709 36.1599C6.9895 36.2185 7.00283 36.282 7.04248 36.3286C7.08213 36.3752 7.14269 36.3985 7.20334 36.3905L7.17977 36.2117ZM6.96302 32.9425L6.78648 32.9802L6.78876 32.9888L6.96302 32.9425ZM8.87655 36.2415L8.90879 36.0642L8.90879 36.0642L8.87655 36.2415ZM8.1571 36.1386L8.16104 35.9584L8.16104 35.9584L8.1571 36.1386ZM10.4854 36.6806L10.4639 36.8596V36.8596L10.4854 36.6806ZM12.1002 36.6443L12.1204 36.8234L12.1312 36.8222L12.1417 36.8197L12.1002 36.6443ZM7.13814 30.3978C7.16181 30.3011 7.10259 30.2035 7.00588 30.1798C6.90916 30.1561 6.81157 30.2153 6.7879 30.3121L6.96302 30.3549L7.13814 30.3978ZM12.9152 36.5679C13.0068 36.5288 13.0493 36.4228 13.0102 36.3313C12.9711 36.2397 12.8652 36.1972 12.7736 36.2363L12.8444 36.4021L12.9152 36.5679ZM7.30121 34.5756L7.12217 34.5967C7.15707 34.8922 7.18974 35.028 7.17905 35.2927L7.35919 35.3L7.53933 35.3073C7.55155 35.0049 7.51194 34.8227 7.48026 34.5544L7.30121 34.5756ZM7.35919 35.3L7.17905 35.2927C7.17246 35.4559 7.13106 35.6699 7.0885 35.8505C7.0676 35.9392 7.04712 36.017 7.03188 36.0726C7.02427 36.1003 7.01799 36.1224 7.01365 36.1375C7.01148 36.145 7.00979 36.1507 7.00868 36.1545C7.00812 36.1564 7.0077 36.1579 7.00743 36.1588C7.00729 36.1592 7.0072 36.1595 7.00714 36.1597C7.00711 36.1598 7.00709 36.1599 7.00708 36.1599C7.00708 36.1599 7.00708 36.1599 7.00708 36.1599C7.00708 36.1599 7.00708 36.1599 7.00708 36.1599C7.00708 36.1599 7.00709 36.1599 7.17977 36.2117C7.35245 36.2635 7.35246 36.2635 7.35246 36.2635C7.35246 36.2635 7.35247 36.2635 7.35248 36.2635C7.35249 36.2634 7.3525 36.2634 7.35251 36.2633C7.35254 36.2632 7.35259 36.2631 7.35264 36.2629C7.35274 36.2626 7.35288 36.2621 7.35305 36.2615C7.35341 36.2603 7.35392 36.2586 7.35457 36.2564C7.35587 36.252 7.35774 36.2456 7.36011 36.2374C7.36484 36.221 7.37155 36.1974 7.37961 36.168C7.39572 36.1092 7.41735 36.0271 7.43947 35.9332C7.48296 35.7486 7.53128 35.5067 7.53933 35.3073L7.35919 35.3ZM6.96302 32.9425C6.78876 32.9888 6.78876 32.9888 6.78876 32.9888C6.78876 32.9888 6.78877 32.9888 6.78877 32.9888C6.78877 32.9888 6.78878 32.9889 6.7888 32.9889C6.78882 32.989 6.78886 32.9892 6.78892 32.9894C6.78904 32.9898 6.78921 32.9905 6.78945 32.9914C6.78993 32.9932 6.79064 32.9959 6.79159 32.9995C6.79348 33.0067 6.79628 33.0174 6.79988 33.0313C6.80709 33.0592 6.8175 33.0998 6.83025 33.1506C6.85576 33.2523 6.89057 33.3945 6.92773 33.5568C7.00246 33.883 7.08517 34.2834 7.12217 34.5967L7.30121 34.5756L7.48026 34.5544C7.44087 34.2209 7.35447 33.8048 7.27921 33.4762C7.24137 33.3111 7.20595 33.1663 7.17999 33.0629C7.167 33.0111 7.15636 32.9696 7.14896 32.941C7.14525 32.9267 7.14235 32.9156 7.14037 32.908C7.13938 32.9042 7.13862 32.9013 7.13809 32.8994C7.13783 32.8984 7.13764 32.8976 7.1375 32.8971C7.13743 32.8969 7.13738 32.8967 7.13734 32.8965C7.13732 32.8964 7.13731 32.8964 7.1373 32.8963C7.13729 32.8963 7.13728 32.8963 7.13728 32.8963C7.13728 32.8963 7.13728 32.8963 6.96302 32.9425ZM8.87655 36.2415L8.90879 36.0642C8.64304 36.0159 8.46362 35.965 8.16104 35.9584L8.1571 36.1386L8.15316 36.3189C8.4181 36.3247 8.55157 36.3657 8.84431 36.4189L8.87655 36.2415ZM8.1571 36.1386L8.16104 35.9584C7.96818 35.9542 7.71475 35.9734 7.51502 35.9928C7.41398 36.0025 7.32453 36.0126 7.26032 36.0201C7.22819 36.0239 7.20232 36.0271 7.18441 36.0294C7.17545 36.0305 7.16848 36.0314 7.16371 36.032C7.16133 36.0323 7.15949 36.0326 7.15823 36.0327C7.1576 36.0328 7.15711 36.0329 7.15677 36.0329C7.1566 36.0329 7.15647 36.0329 7.15638 36.033C7.15633 36.033 7.15629 36.033 7.15626 36.033C7.15625 36.033 7.15623 36.033 7.15622 36.033C7.15621 36.033 7.1562 36.033 7.17977 36.2117C7.20334 36.3905 7.20333 36.3905 7.20333 36.3905C7.20333 36.3905 7.20333 36.3905 7.20333 36.3905C7.20334 36.3905 7.20336 36.3905 7.20339 36.3905C7.20344 36.3905 7.20353 36.3904 7.20366 36.3904C7.20391 36.3904 7.20431 36.3903 7.20486 36.3903C7.20594 36.3901 7.2076 36.3899 7.2098 36.3896C7.21421 36.3891 7.2208 36.3882 7.22936 36.3871C7.24647 36.385 7.27145 36.3819 7.3026 36.3782C7.36495 36.3709 7.45182 36.3611 7.54977 36.3517C7.74801 36.3325 7.98324 36.3152 8.15316 36.3189L8.1571 36.1386ZM10.4854 36.6806L10.5069 36.5016C10.204 36.4652 9.97726 36.3901 9.739 36.3057C9.50044 36.2211 9.24599 36.1254 8.90879 36.0642L8.87655 36.2415L8.84431 36.4189C9.14789 36.4741 9.37455 36.5591 9.61857 36.6455C9.86288 36.7321 10.1202 36.8183 10.4639 36.8596L10.4854 36.6806ZM12.1002 36.6443C12.08 36.4651 12.08 36.4651 12.08 36.4651C12.08 36.4651 12.08 36.4651 12.08 36.4651C12.08 36.4651 12.0799 36.4651 12.0799 36.4651C12.0798 36.4652 12.0797 36.4652 12.0794 36.4652C12.079 36.4652 12.0784 36.4653 12.0775 36.4654C12.0758 36.4656 12.0731 36.4659 12.0696 36.4663C12.0625 36.467 12.0519 36.4682 12.0381 36.4696C12.0104 36.4724 11.9701 36.4764 11.9197 36.481C11.8187 36.4902 11.6777 36.5016 11.5174 36.5107C11.1939 36.5291 10.8034 36.5373 10.5069 36.5016L10.4854 36.6806L10.4639 36.8596C10.7936 36.8993 11.2106 36.8893 11.5379 36.8707C11.703 36.8613 11.8482 36.8495 11.9522 36.8401C12.0042 36.8354 12.046 36.8313 12.0749 36.8283C12.0894 36.8268 12.1006 36.8256 12.1083 36.8248C12.1122 36.8244 12.1151 36.824 12.1172 36.8238C12.1182 36.8237 12.119 36.8236 12.1195 36.8235C12.1198 36.8235 12.12 36.8235 12.1201 36.8235C12.1202 36.8235 12.1203 36.8235 12.1203 36.8235C12.1204 36.8234 12.1204 36.8234 12.1204 36.8234C12.1204 36.8234 12.1204 36.8234 12.1002 36.6443ZM6.96302 30.3549L6.7879 30.3121C6.66158 30.8282 6.60142 31.2245 6.60424 31.6314C6.60704 32.0368 6.67234 32.444 6.7867 32.9801L6.96302 32.9425L7.13934 32.9049C7.0264 32.3754 6.96735 31.9969 6.96481 31.6289C6.96228 31.2625 7.01577 30.8978 7.13814 30.3978L6.96302 30.3549ZM12.8444 36.4021L12.7736 36.2363C12.6088 36.3067 12.4301 36.3649 12.291 36.4059C12.2218 36.4263 12.1632 36.4422 12.1221 36.4529C12.1016 36.4582 12.0854 36.4623 12.0746 36.465C12.0691 36.4663 12.065 36.4673 12.0624 36.468C12.061 36.4683 12.06 36.4685 12.0594 36.4687C12.0591 36.4687 12.0589 36.4688 12.0588 36.4688C12.0587 36.4688 12.0587 36.4688 12.0587 36.4688C12.0587 36.4688 12.0587 36.4688 12.0587 36.4688C12.0587 36.4688 12.0587 36.4688 12.0587 36.4688C12.0587 36.4688 12.0587 36.4688 12.1002 36.6443C12.1417 36.8197 12.1417 36.8197 12.1417 36.8197C12.1417 36.8197 12.1417 36.8197 12.1417 36.8197C12.1418 36.8197 12.1418 36.8197 12.1418 36.8197C12.1419 36.8197 12.142 36.8197 12.1422 36.8196C12.1424 36.8196 12.1428 36.8195 12.1433 36.8194C12.1442 36.8191 12.1455 36.8188 12.1471 36.8184C12.1504 36.8176 12.1551 36.8165 12.1612 36.815C12.1734 36.812 12.191 36.8075 12.2131 36.8018C12.2572 36.7903 12.3194 36.7734 12.3928 36.7518C12.5388 36.7088 12.7323 36.646 12.9152 36.5679L12.8444 36.4021Z" fill="#280F0B"/>
<path d="M30.7264 36.7663C30.7264 36.7663 30.2209 36.4958 29.8685 36.4094C29.5928 36.3418 29.4298 36.3456 29.1469 36.3223C28.4979 36.2687 27.4793 36.3293 27.4793 36.3293C27.4793 36.3293 26.5117 36.4222 25.9017 36.336C25.5255 36.2828 25.2981 36.2765 24.9543 36.1146C24.6135 35.9542 24.1856 35.5319 24.1856 35.5319C24.1856 35.5319 23.8213 35.087 23.6415 34.768C23.4826 34.4861 23.3947 34.2883 23.3086 34.0274M30.7858 36.721C30.7858 36.721 30.769 36.1479 30.8489 35.794C30.9113 35.5171 30.9874 35.3729 31.0927 35.1093C31.3341 34.5044 31.8426 33.6197 31.8426 33.6197C31.8426 33.6197 32.3572 32.7952 32.552 32.2107C32.6722 31.8502 32.7679 31.6438 32.7764 31.2639C32.7847 30.8873 32.5976 30.3161 32.5976 30.3161C32.5976 30.3161 32.3618 29.7917 32.1564 29.4884C32.0101 29.2723 31.7779 28.9289 31.6353 28.7773" stroke="#280F0B" stroke-width="0.360581" stroke-linecap="round"/>
<path d="M39.2335 21.641C39.2335 21.641 38.7235 21.9028 38.452 22.1436C38.2396 22.3319 38.15 22.4682 37.9699 22.6875C37.5567 23.1909 37.0272 24.0632 37.0272 24.0632C37.0272 24.0632 36.5533 24.9118 36.1354 25.3645C35.8777 25.6437 35.7431 25.8271 35.4145 26.0179C35.0886 26.2069 34.498 26.3187 34.498 26.3187C34.498 26.3187 33.9249 26.3653 33.5602 26.3317C33.238 26.302 33.0253 26.2618 32.7618 26.1843M39.2301 21.5663C39.2301 21.5663 38.7492 21.2542 38.5034 20.9872C38.3112 20.7783 38.2359 20.6337 38.0789 20.3973C37.7188 19.8546 37.2803 18.9332 37.2803 18.9332C37.2803 18.9332 36.8948 18.041 36.5249 17.5483C36.2968 17.2445 36.1815 17.0483 35.8738 16.8253C35.5688 16.6042 34.9925 16.4332 34.9925 16.4332C34.9925 16.4332 34.4271 16.3288 34.0608 16.3253C33.7998 16.3228 33.6091 16.3343 33.4033 16.3654" stroke="#280F0B" stroke-width="0.360581" stroke-linecap="round"/>
<path d="M30.3785 6.60153C30.3785 6.60153 30.3907 7.17472 30.4884 7.52422C30.5647 7.79757 30.648 7.93774 30.7664 8.19569C31.0381 8.78758 31.5907 9.64544 31.5907 9.64544C31.5907 9.64544 32.1463 10.443 32.3704 11.0168C32.5086 11.3708 32.6147 11.5721 32.6423 11.951C32.6697 12.3267 32.5117 12.9067 32.5117 12.9067C32.5117 12.9067 32.3027 13.4424 32.1129 13.7556C31.9452 14.0324 31.816 14.206 31.6309 14.409M30.3099 6.57195C30.3099 6.57195 29.8187 6.86772 29.4711 6.9718C29.1992 7.05321 29.0362 7.05763 28.7549 7.09525C28.1094 7.1816 27.089 7.1725 27.089 7.1725C27.089 7.1725 26.118 7.12859 25.5132 7.24556C25.1401 7.31771 24.9133 7.33551 24.5781 7.51452C24.2458 7.69199 23.8398 8.13533 23.8398 8.13533C23.8398 8.13533 23.4985 8.59803 23.335 8.92579C23.2185 9.15934 23.1454 9.33592 23.0833 9.5345" stroke="#280F0B" stroke-width="0.360581" stroke-linecap="round"/>
<path d="M13.0897 6.80709C13.0897 6.80709 13.5781 7.10741 13.9247 7.21471C14.1958 7.29864 14.3588 7.30456 14.6398 7.3448C15.2844 7.43713 16.3049 7.4375 16.3049 7.4375C16.3049 7.4375 17.2762 7.40261 17.88 7.52518C18.2523 7.60079 18.479 7.6207 18.8125 7.80281C19.1431 7.98335 19.545 8.43044 19.545 8.43044C19.545 8.43044 19.882 8.89629 20.0424 9.22555C20.1842 9.51643 20.26 9.71912 20.3304 9.98469M13.0276 6.84877C13.0276 6.84877 13.0101 7.42182 12.9093 7.7704C12.8304 8.04303 12.7458 8.18242 12.625 8.43926C12.3478 9.0286 11.7873 9.88129 11.7873 9.88129C11.7873 9.88129 11.2243 10.6736 10.9949 11.2454C10.8534 11.598 10.7455 11.7983 10.7143 12.177C10.6834 12.5525 10.8361 13.1339 10.8361 13.1339C10.8361 13.1339 11.0401 13.6715 11.227 13.9865C11.3602 14.2109 11.4689 14.3681 11.6022 14.5279" stroke="#280F0B" stroke-width="0.360581" stroke-linecap="round"/>
<path d="M4.57623 22.157C4.57623 22.157 5.04502 21.827 5.28051 21.5509C5.4647 21.3349 5.5345 21.1876 5.68243 20.9454C6.02189 20.3895 6.42524 19.4522 6.42524 19.4522C6.42524 19.4522 6.77683 18.5461 7.12789 18.0398C7.34442 17.7276 7.45224 17.5272 7.75126 17.2928C8.0477 17.0603 8.61716 16.8677 8.61716 16.8677C8.61716 16.8677 9.17824 16.7421 9.5441 16.7247C9.8673 16.7094 10.0835 16.7197 10.3552 16.76M4.59002 22.2305C4.59002 22.2305 5.10957 22.4729 5.38996 22.7033C5.60927 22.8834 5.70392 23.0162 5.89216 23.2286C6.32412 23.716 6.88611 24.5677 6.88611 24.5677C6.88611 24.5677 7.39166 25.3979 7.82634 25.8345C8.09443 26.1037 8.23582 26.282 8.57143 26.4602C8.90415 26.6368 9.49861 26.7262 9.49861 26.7262C9.49861 26.7262 10.073 26.7511 10.4362 26.7039C10.6951 26.6702 10.8824 26.6323 11.0818 26.573" stroke="#280F0B" stroke-width="0.360581" stroke-linecap="round"/>
<path d="M6.28966 30.2334C6.28966 30.2334 6.56872 29.7326 6.66102 29.3817C6.73322 29.1072 6.73214 28.9441 6.76027 28.6617C6.82481 28.0136 6.78133 26.9942 6.78133 26.9942C6.78133 26.9942 6.70473 26.0252 6.80126 25.4167C6.85116 25.1022 6.83722 24.9817 6.93955 24.721M6.33397 30.2937C6.33397 30.2937 6.90725 30.2865 7.25983 30.3723C7.53561 30.4394 7.6785 30.518 7.94029 30.6276C8.541 30.8792 9.41699 31.4026 9.41699 31.4026C9.41699 31.4026 10.2328 31.931 10.8139 32.1356C10.9698 32.1905 11.0966 32.2403 11.2214 32.2803" stroke="#280F0B" stroke-width="0.360581" stroke-linecap="round"/>
<path d="M6.29386 13.0466C6.29386 13.0466 6.86713 13.0387 7.21734 12.9436C7.49125 12.8693 7.63204 12.787 7.89085 12.6706C8.48475 12.4033 9.34668 11.8571 9.34668 11.8571C9.34668 11.8571 10.1483 11.3074 10.7238 11.0876C11.0214 10.9739 11.1322 10.9287 11.1322 10.9287M6.98549 18.1403C6.87301 17.5346 6.84038 16.3403 6.84038 16.3403C6.84038 16.3403 6.85706 15.32 6.77551 14.6739C6.73997 14.3923 6.73677 14.2292 6.65739 13.9567C6.55589 13.6084 6.26377 13.115 6.26377 13.115" stroke="#280F0B" stroke-width="0.360581" stroke-linecap="round"/>
<path d="M25.6008 7.11136C25.127 6.71759 24.2549 6.28851 24.2549 6.28851C24.2549 6.28851 23.3562 5.80515 22.832 5.41864C22.6036 5.2502 22.4629 5.16784 22.2638 4.96557C22.0092 4.70696 21.7212 4.21124 21.7212 4.21124M21.6468 4.21857C21.6468 4.21857 21.3601 4.71507 21.1063 4.97436C20.9077 5.17717 20.7672 5.25991 20.5392 5.42896C20.0161 5.81689 19.1187 6.30266 19.1187 6.30266C19.1187 6.30266 18.2477 6.73409 17.775 7.12913C17.6482 7.23514 17.5405 7.31875 17.4424 7.40564" stroke="#280F0B" stroke-width="0.360581" stroke-linecap="round"/>
<path d="M36.6292 13.0446C36.6292 13.0446 36.3249 13.5305 36.2148 13.8763C36.1286 14.1467 36.1214 14.3096 36.0789 14.5902C35.9813 15.2341 35.9727 16.2545 35.9727 16.2545C35.9727 16.2545 35.9871 16.5089 35.9727 16.8784M32.3613 10.9739C32.9312 11.2079 33.5656 11.7173 33.5656 11.7173C33.5656 11.7173 34.4137 12.2847 35.0008 12.5666C35.2567 12.6895 35.3954 12.7752 35.6673 12.8563C36.0151 12.96 36.588 12.9822 36.588 12.9822" stroke="#280F0B" stroke-width="0.360581" stroke-linecap="round"/>
<path d="M32.5227 32.5999C33.0891 32.3576 33.8685 31.7768 33.8685 31.7768C33.8685 31.7768 34.7083 31.1972 35.2912 30.9067C35.5452 30.7802 35.6827 30.6924 35.9535 30.6074C36.2997 30.4987 36.8722 30.4682 36.8722 30.4682M36.0733 25.6258C36.2095 26.2267 36.1966 27.1985 36.1966 27.1985C36.1966 27.1985 36.22 28.2187 36.3269 28.8611C36.3735 29.1411 36.3831 29.3039 36.4731 29.573C36.5883 29.9172 36.8996 30.3986 36.8996 30.3986" stroke="#280F0B" stroke-width="0.360581" stroke-linecap="round"/>
<path d="M17.896 36.221C18.3566 36.6301 19.2142 37.0876 19.2142 37.0876C19.2142 37.0876 20.0966 37.6002 20.6078 38.0037C20.8306 38.1795 20.9685 38.2665 21.1609 38.4751C21.4068 38.742 21.6784 39.2469 21.6784 39.2469M25.7182 36.46C25.2328 36.8394 24.3481 37.242 24.3481 37.242C24.3481 37.242 23.4353 37.698 22.8997 38.0686C22.6663 38.2301 22.5232 38.3082 22.3181 38.5043C22.0558 38.7552 21.753 39.242 21.753 39.242" stroke="#280F0B" stroke-width="0.360581" stroke-linecap="round"/>
<path d="M24.4065 28.4166C24.4065 28.4166 24.7505 28.9294 25.0206 29.2158C25.3077 29.5201 25.4866 29.6803 25.835 29.9118C26.1401 30.1145 26.6666 30.3456 26.6666 30.3456C26.6666 30.3456 27.2395 30.5277 27.616 30.516C27.9958 30.5042 28.2014 30.4066 28.5608 30.2832C29.1435 30.0833 29.9634 29.5614 29.9634 29.5614C29.9634 29.5614 30.8436 29.045 31.4463 28.7982C31.7089 28.6907 31.8525 28.6133 32.1288 28.5484C32.482 28.4654 33.0552 28.4771 33.0552 28.4771M29.0406 20.7661C29.0406 20.7661 29.6543 20.8345 30.033 20.9418C30.4355 21.0559 30.6602 21.1406 31.0265 21.3428C31.3471 21.5198 31.7952 21.8801 31.7952 21.8801C31.7952 21.8801 32.2213 22.3043 32.3847 22.6436C32.5496 22.986 32.5579 23.2134 32.6145 23.5891C32.7061 24.1983 32.6218 25.1666 32.6218 25.1666C32.6218 25.1666 32.5702 26.1857 32.6296 26.8343C32.6554 27.1169 32.6531 27.28 32.7231 27.555C32.8126 27.9067 33.0876 28.4097 33.0876 28.4097" stroke="#280F0B" stroke-width="0.360581" stroke-linecap="round"/>
<path d="M26.2596 15.9825C26.2596 15.9825 26.5213 15.4232 26.6272 15.0441C26.7397 14.6411 26.7846 14.4053 26.803 13.9873C26.8192 13.6214 26.7454 13.0511 26.7454 13.0511C26.7454 13.0511 26.6056 12.4665 26.4013 12.15C26.1951 11.8308 26.0054 11.7051 25.7143 11.461C25.2422 11.0651 24.372 10.6322 24.372 10.6322C24.372 10.6322 23.4755 10.1448 22.953 9.75599C22.7254 9.58653 22.585 9.50355 22.3868 9.3004C22.1334 9.04066 21.8476 8.54366 21.8476 8.54366M17.3152 15.9621C17.3152 15.9621 17.0569 15.4012 16.9534 15.0214C16.8434 14.6178 16.8 14.3816 16.7841 13.9635C16.7702 13.5975 16.8476 13.0278 16.8476 13.0278C16.8476 13.0278 16.9909 12.444 17.1972 12.1288C17.4053 11.8109 17.5958 11.6864 17.8884 11.444C18.3629 11.0511 19.2358 10.6235 19.2358 10.6235C19.2358 10.6235 20.1353 10.1417 20.6602 9.75613C20.8889 9.58809 21.0298 9.50598 21.2292 9.30405C21.4842 9.04589 21.7731 8.55067 21.7731 8.55067" stroke="#280F0B" stroke-width="0.360581" stroke-linecap="round"/>
<path d="M21.7014 35.3569C21.7014 35.3569 21.4185 34.8582 21.1667 34.597C20.9697 34.3926 20.8299 34.3088 20.6032 34.138C20.0831 33.746 19.1896 33.2532 19.1896 33.2532C19.1896 33.2532 18.322 32.8151 17.8523 32.4163C17.5626 32.1704 17.3737 32.0436 17.1695 31.7232C16.9671 31.4055 16.8308 30.82 16.8308 30.82C16.8308 30.82 16.8137 30.6807 16.7985 30.4956M21.7758 35.3504C21.7758 35.3504 22.0677 34.8569 22.3243 34.6003C22.5249 34.3996 22.6663 34.3183 22.896 34.1516C23.4232 33.7692 24.3256 33.2929 24.3256 33.2929C24.3256 33.2929 25.2011 32.8706 25.6779 32.4805C25.972 32.2399 26.1632 32.1166 26.3732 31.7999C26.5814 31.486 26.6564 31.2728 26.7283 30.9031C26.7593 30.7438 26.7546 30.7176 26.7751 30.4903" stroke="#280F0B" stroke-width="0.360581" stroke-linecap="round"/>
<path d="M9.98053 14.9696C9.98053 14.9696 10.5535 14.9886 10.9078 14.9101C11.1849 14.8487 11.3294 14.7732 11.5934 14.669C12.1992 14.4299 13.0859 13.9248 13.0859 13.9248C13.0859 13.9248 13.9124 13.4134 14.4976 13.2208C14.8586 13.1021 15.0653 13.0071 15.4452 13.0001C15.8219 12.9932 16.3924 13.1826 16.3924 13.1826C16.3924 13.1826 16.5202 13.2406 16.686 13.3243M9.94726 15.0365C9.94726 15.0365 10.2159 15.543 10.3009 15.8958C10.3674 16.1717 10.3629 16.3347 10.3852 16.6177C10.4363 17.2669 10.3717 18.2853 10.3717 18.2853C10.3717 18.2853 10.2751 19.2525 10.359 19.8628C10.4107 20.2392 10.4162 20.4667 10.5767 20.8111C10.7358 21.1525 11.1564 21.582 11.1564 21.582C11.1564 21.582 11.3687 21.7573 11.605 21.9252" stroke="#280F0B" stroke-width="0.360581" stroke-linecap="round"/>
<path d="M33.6697 15.2991C33.6697 15.2991 33.3786 15.793 33.2779 16.1416C33.199 16.4142 33.1962 16.5773 33.1612 16.8589C33.081 17.5053 33.0999 18.5255 33.0999 18.5255C33.0999 18.5255 33.153 19.496 33.0418 20.102C32.9732 20.4757 32.9576 20.7027 32.7818 21.0396C32.6075 21.3735 32.168 21.7837 32.168 21.7837C32.168 21.7837 32.0559 21.8681 31.903 21.9736M33.6269 15.2378C33.6269 15.2378 33.0536 15.2311 32.7032 15.1368C32.4291 15.063 32.2881 14.981 32.0291 14.8651C31.4346 14.599 30.5715 14.0547 30.5715 14.0547C30.5715 14.0547 29.7688 13.5067 29.1928 13.2881C28.8375 13.1532 28.6352 13.0491 28.256 13.0251C27.8801 13.0013 27.3016 13.1648 27.3016 13.1648C27.3016 13.1648 27.0461 13.2673 26.7855 13.3943" stroke="#280F0B" stroke-width="0.360581" stroke-linecap="round"/>
</svg>
