<svg width="47" height="45" viewBox="0 0 47 45" fill="none" xmlns="http://www.w3.org/2000/svg">
<path d="M22.0832 39.6184L7.25 13.7432H36.9164L22.0832 39.6184Z" stroke="#280F0B" stroke-width="0.379124" stroke-linecap="round" stroke-linejoin="round"/>
<path d="M22.082 4.73877C31.6849 4.73886 39.4744 12.6292 39.4746 22.3677C39.4746 32.1064 31.6851 39.9975 22.082 39.9976C12.4789 39.9976 4.68945 32.1064 4.68945 22.3677C4.6897 12.6291 12.4791 4.73877 22.082 4.73877Z" stroke="#280F0B" stroke-width="0.379124" stroke-linecap="round" stroke-linejoin="round"/>
<path d="M22.082 44.5472L21.3238 43.8363C21.3238 43.8363 20.7604 43.3829 20.3759 43.1254C20.0173 42.8852 19.4281 42.5568 19.4281 42.5568C19.4281 42.5568 18.9729 42.2908 18.7647 42.0355C18.6282 41.8682 18.5473 41.7667 18.4803 41.5616C18.4112 41.3497 18.4329 40.9929 18.4329 40.9929L18.4803 40.3294L18.5277 39.8081" stroke="#280F0B" stroke-width="0.379124" stroke-linecap="round" stroke-linejoin="round"/>
<path d="M22.1367 44.5472L22.895 43.8363C22.895 43.8363 23.4584 43.3829 23.8428 43.1254C24.2014 42.8852 24.7906 42.5568 24.7906 42.5568C24.7906 42.5568 25.2458 42.2908 25.4541 42.0355C25.5905 41.8682 25.6715 41.7667 25.7384 41.5616C25.8076 41.3497 25.7858 40.9929 25.7858 40.9929L25.7384 40.3294L25.691 39.8081" stroke="#280F0B" stroke-width="0.379124" stroke-linecap="round" stroke-linejoin="round"/>
<path d="M30.6404 42.6678L29.6669 42.3035C29.6669 42.3035 28.9724 42.102 28.5185 42.0123C28.095 41.9286 27.4248 41.8522 27.4248 41.8522C27.4248 41.8522 26.9024 41.782 26.6118 41.6265C26.4216 41.5247 26.3078 41.4621 26.167 41.2986C26.0216 41.1296 25.9043 40.7919 25.9043 40.7919L25.6927 40.1613L25.5358 39.662" stroke="#280F0B" stroke-width="0.379124" stroke-linecap="round" stroke-linejoin="round"/>
<path d="M30.6876 42.6496L31.1138 41.7017C31.1138 41.7017 31.4593 41.0664 31.715 40.6808C31.9535 40.321 32.3709 39.7911 32.3709 39.7911C32.3709 39.7911 32.6886 39.3704 32.7826 39.0545C32.8441 38.8477 32.8797 38.7229 32.8626 38.5077C32.8449 38.2856 32.6874 37.9646 32.6874 37.9646L32.3883 37.3705L32.1439 36.9076" stroke="#280F0B" stroke-width="0.379124" stroke-linecap="round" stroke-linejoin="round"/>
<path d="M37.8464 37.8808L36.8093 37.9486C36.8093 37.9486 36.0933 38.0502 35.6426 38.1549C35.2221 38.2526 34.5797 38.4583 34.5797 38.4583C34.5797 38.4583 34.0745 38.6089 33.7458 38.5865C33.5304 38.5718 33.401 38.5616 33.2054 38.4703C33.0035 38.376 32.7579 38.1163 32.7579 38.1163L32.3058 37.6283L31.9576 37.2375" stroke="#280F0B" stroke-width="0.379124" stroke-linecap="round" stroke-linejoin="round"/>
<path d="M37.8784 37.8463L37.8775 36.807C37.8775 36.807 37.9315 36.0858 38.0062 35.6292C38.0759 35.2032 38.2386 34.5486 38.2386 34.5486C38.2386 34.5486 38.3555 34.0345 38.3114 33.708C38.2825 33.4941 38.2637 33.3656 38.1597 33.1765C38.0523 32.9813 37.7769 32.7534 37.7769 32.7534L37.2601 32.3346L36.8471 32.013" stroke="#280F0B" stroke-width="0.379124" stroke-linecap="round" stroke-linejoin="round"/>
<path d="M42.3776 30.684L41.437 31.1263C41.437 31.1263 40.8077 31.4825 40.4265 31.7447C40.0709 31.9894 39.5481 32.4156 39.5481 32.4156C39.5481 32.4156 39.1329 32.7405 38.8187 32.8398C38.6129 32.9048 38.4887 32.9426 38.2733 32.9291C38.0509 32.9152 37.7273 32.7632 37.7273 32.7632L37.1282 32.4742L36.6612 32.2378" stroke="#280F0B" stroke-width="0.379124" stroke-linecap="round" stroke-linejoin="round"/>
<path d="M42.3997 30.6399L42.019 29.6728C42.019 29.6728 41.8056 28.9818 41.7083 28.5295C41.6174 28.1075 41.5296 27.4387 41.5296 27.4387C41.5296 27.4387 41.4505 26.9175 41.2901 26.6297C41.185 26.4411 41.1206 26.3285 40.9546 26.1905C40.7833 26.048 40.4436 25.9365 40.4436 25.9365L39.8095 25.7356L39.3076 25.5872" stroke="#280F0B" stroke-width="0.379124" stroke-linecap="round" stroke-linejoin="round"/>
<path d="M43.9764 22.4364L43.2551 23.1848C43.2551 23.1848 42.7941 23.7419 42.5313 24.1228C42.2862 24.4781 41.9496 25.0627 41.9496 25.0627C41.9496 25.0627 41.6774 25.5142 41.4193 25.7189C41.2501 25.853 41.1476 25.9326 40.9415 25.9967C40.7287 26.0629 40.3722 26.0363 40.3722 26.0363L39.7094 25.9797L39.1888 25.9252" stroke="#280F0B" stroke-width="0.379124" stroke-linecap="round" stroke-linejoin="round"/>
<path d="M43.9774 22.3891L43.277 21.6211C43.277 21.6211 42.8315 21.0515 42.5793 20.6636C42.344 20.3017 42.0237 19.7081 42.0237 19.7081C42.0237 19.7081 41.764 19.2492 41.5116 19.0375C41.3462 18.8988 41.2459 18.8164 41.0416 18.7466C40.8308 18.6746 40.4737 18.6914 40.4737 18.6914L39.8096 18.7297L39.2877 18.7699" stroke="#280F0B" stroke-width="0.379124" stroke-linecap="round" stroke-linejoin="round"/>
<path d="M0.187699 22.4364L0.908924 23.1848C0.908924 23.1848 1.37001 23.7419 1.63276 24.1228C1.87789 24.4781 2.21443 25.0627 2.21443 25.0627C2.21443 25.0627 2.48663 25.5142 2.74481 25.7189C2.91392 25.853 3.01651 25.9326 3.22258 25.9967C3.43537 26.0629 3.79187 26.0363 3.79187 26.0363L4.45462 25.9797L4.97521 25.9252" stroke="#280F0B" stroke-width="0.379124" stroke-linecap="round" stroke-linejoin="round"/>
<path d="M0.194479 22.3891L0.894833 21.6211C0.894833 21.6211 1.34041 21.0515 1.59258 20.6636C1.82784 20.3017 2.14817 19.7081 2.14817 19.7081C2.14817 19.7081 2.40783 19.2492 2.66028 19.0375C2.82563 18.8988 2.92599 18.8164 3.13023 18.7466C3.34111 18.6746 3.69821 18.6914 3.69821 18.6914L4.36226 18.7297L4.88416 18.7699" stroke="#280F0B" stroke-width="0.379124" stroke-linecap="round" stroke-linejoin="round"/>
<path d="M1.75815 30.9268L2.70642 31.3523C2.70642 31.3523 3.34199 31.6973 3.72779 31.9527C4.08772 32.191 4.61798 32.6079 4.61798 32.6079C4.61798 32.6079 5.03889 32.9254 5.3548 33.0191C5.56172 33.0804 5.68657 33.116 5.9017 33.0987C6.12383 33.0808 6.44468 32.9231 6.44468 32.9231L7.03856 32.6235L7.50126 32.3788" stroke="#280F0B" stroke-width="0.379124" stroke-linecap="round" stroke-linejoin="round"/>
<path d="M1.73115 30.8831L2.09464 29.9094C2.09464 29.9094 2.2957 29.2147 2.38504 28.7607C2.46838 28.3372 2.54426 27.6669 2.54426 27.6669C2.54426 27.6669 2.61412 27.1444 2.76939 26.8538C2.8711 26.6634 2.93352 26.5496 3.097 26.4087C3.26581 26.2632 3.60343 26.1456 3.60343 26.1456L4.23386 25.9335L4.73311 25.7762" stroke="#280F0B" stroke-width="0.379124" stroke-linecap="round" stroke-linejoin="round"/>
<path d="M6.60031 38.0836L7.63834 38.136C7.63834 38.136 8.35577 38.2268 8.80796 38.3248C9.22982 38.4162 9.87523 38.6123 9.87523 38.6123C9.87523 38.6123 10.3826 38.7554 10.711 38.7281C10.9261 38.7102 11.0553 38.698 11.2495 38.6038C11.45 38.5065 11.6918 38.2432 11.6918 38.2432L12.1365 37.7485L12.4788 37.3525" stroke="#280F0B" stroke-width="0.379124" stroke-linecap="round" stroke-linejoin="round"/>
<path d="M6.56139 38.0495L6.54676 37.0103C6.54676 37.0103 6.48204 36.29 6.40054 35.8346C6.32451 35.4096 6.15199 34.7575 6.15199 34.7575C6.15199 34.7575 6.02747 34.2453 6.06669 33.9181C6.09239 33.7038 6.10925 33.5751 6.21045 33.3845C6.31495 33.1876 6.58692 32.9556 6.58692 32.9556L7.0974 32.5292L7.50555 32.2014" stroke="#280F0B" stroke-width="0.379124" stroke-linecap="round" stroke-linejoin="round"/>
<path d="M13.632 42.8236L14.6197 42.4999C14.6197 42.4999 15.3219 42.3272 15.7792 42.2564C16.2057 42.1903 16.8785 42.1417 16.8785 42.1417C16.8785 42.1417 17.4035 42.0931 17.7002 41.9497C17.8945 41.8558 18.0108 41.798 18.1582 41.6404C18.3104 41.4777 18.4415 41.1451 18.4415 41.1451L18.6791 40.5238L18.8565 40.0313" stroke="#280F0B" stroke-width="0.379124" stroke-linecap="round" stroke-linejoin="round"/>
<path d="M13.5878 42.8033L13.2012 41.8386C13.2012 41.8386 12.8823 41.1895 12.6427 40.7937C12.4192 40.4244 12.0242 39.8777 12.0242 39.8777C12.0242 39.8777 11.7241 39.4442 11.6433 39.1248C11.5903 38.9155 11.5599 38.7893 11.5859 38.5751C11.6128 38.3539 11.7834 38.0397 11.7834 38.0397L12.1068 37.4584L12.3701 37.006" stroke="#280F0B" stroke-width="0.379124" stroke-linecap="round" stroke-linejoin="round"/>
<path d="M1.66887 13.9255L2.02647 14.9014C2.02647 14.9014 2.22332 15.5973 2.30991 16.0518C2.3907 16.4758 2.46252 17.1465 2.46252 17.1465C2.46252 17.1465 2.52922 17.6695 2.68274 17.961C2.78329 18.152 2.84502 18.2662 3.00765 18.4081C3.17557 18.5546 3.51248 18.6742 3.51248 18.6742L4.14162 18.8901L4.63991 19.0504" stroke="#280F0B" stroke-width="0.379124" stroke-linecap="round" stroke-linejoin="round"/>
<path d="M1.67862 13.882L2.62945 13.4622C2.62945 13.4622 3.26708 13.1211 3.65442 12.868C4.01579 12.6319 4.54856 12.2182 4.54856 12.2182C4.54856 12.2182 4.97138 11.9033 5.28785 11.8115C5.49513 11.7514 5.6202 11.7166 5.83522 11.7352C6.05724 11.7544 6.37713 11.914 6.37713 11.914L6.96919 12.2172L7.4304 12.4647" stroke="#280F0B" stroke-width="0.379124" stroke-linecap="round" stroke-linejoin="round"/>
<path d="M42.3113 14.1457L41.9325 15.1136C41.9325 15.1136 41.7206 15.805 41.6241 16.2575C41.5341 16.6797 41.4476 17.3487 41.4476 17.3487C41.4476 17.3487 41.3696 17.87 41.2097 18.1582C41.105 18.3469 41.0408 18.4597 40.8751 18.5981C40.7041 18.7409 40.3646 18.8531 40.3646 18.8531L39.7309 19.0552L39.2293 19.2046" stroke="#280F0B" stroke-width="0.379124" stroke-linecap="round" stroke-linejoin="round"/>
<path d="M42.2871 14.1016L41.3457 13.6612C41.3457 13.6612 40.7156 13.3062 40.3339 13.0448C39.9778 12.8009 39.4542 12.3756 39.4542 12.3756C39.4542 12.3756 39.0383 12.0516 38.7239 11.9529C38.518 11.8883 38.3937 11.8508 38.1783 11.8647C37.9559 11.8791 37.6327 12.0317 37.6327 12.0317L37.0341 12.3219L36.5676 12.5593" stroke="#280F0B" stroke-width="0.379124" stroke-linecap="round" stroke-linejoin="round"/>
<path d="M37.5575 6.60088L37.6211 7.63829C37.6211 7.63829 37.7196 8.35471 37.8225 8.80581C37.9184 9.22667 38.1214 9.86994 38.1214 9.86994C38.1214 9.86994 38.2699 10.3758 38.2461 10.7044C38.2305 10.9197 38.2198 11.0491 38.1276 11.2442C38.0325 11.4458 37.7718 11.6904 37.7718 11.6904L37.2819 12.1403L36.8896 12.4869" stroke="#280F0B" stroke-width="0.379124" stroke-linecap="round" stroke-linejoin="round"/>
<path d="M37.5261 6.56844L36.4867 6.56497C36.4867 6.56497 35.7658 6.50798 35.3095 6.43139C34.8838 6.35992 34.2299 6.19441 34.2299 6.19441C34.2299 6.19441 33.7163 6.0754 33.3896 6.11814C33.1756 6.14613 33.0471 6.16437 32.8575 6.26762C32.6618 6.37423 32.4327 6.64867 32.4327 6.64867L32.0118 7.1637L31.6885 7.57534" stroke="#280F0B" stroke-width="0.379124" stroke-linecap="round" stroke-linejoin="round"/>
<path d="M30.6668 1.85786L31.0939 2.80543C31.0939 2.80543 31.4399 3.44043 31.696 3.82581C31.9348 4.18535 32.3526 4.71492 32.3526 4.71492C32.3526 4.71492 32.6708 5.13532 32.765 5.45107C32.8267 5.65788 32.8625 5.78267 32.8455 5.99783C32.828 6.22 32.6708 6.5411 32.6708 6.5411L32.3722 7.13547L32.1282 7.59858" stroke="#280F0B" stroke-width="0.379124" stroke-linecap="round" stroke-linejoin="round"/>
<path d="M30.6299 1.83956L29.6568 2.20465C29.6568 2.20465 28.9625 2.40685 28.5086 2.49693C28.0852 2.58097 27.4151 2.65794 27.4151 2.65794C27.4151 2.65794 26.8927 2.72867 26.6023 2.88442C26.4121 2.98644 26.2984 3.04904 26.1577 3.21276C26.0125 3.3818 25.8956 3.71962 25.8956 3.71962L25.6845 4.3504L25.528 4.84991" stroke="#280F0B" stroke-width="0.379124" stroke-linecap="round" stroke-linejoin="round"/>
<path d="M22.1367 0.189664L22.895 0.900521C22.895 0.900521 23.4584 1.3539 23.8428 1.61138C24.2014 1.8516 24.7906 2.18006 24.7906 2.18006C24.7906 2.18006 25.2458 2.44602 25.4541 2.70136C25.5905 2.8686 25.6715 2.97009 25.7384 3.17526C25.8076 3.38712 25.7858 3.74395 25.7858 3.74395L25.7384 4.40742L25.691 4.92871" stroke="#280F0B" stroke-width="0.379124" stroke-linecap="round" stroke-linejoin="round"/>
<path d="M22.082 0.189663L21.3238 0.90052C21.3238 0.90052 20.7604 1.3539 20.3759 1.61138C20.0173 1.8516 19.4281 2.18006 19.4281 2.18006C19.4281 2.18006 18.9729 2.44602 18.7647 2.70136C18.6282 2.8686 18.5473 2.97009 18.4803 3.17526C18.4112 3.38712 18.4329 3.74395 18.4329 3.74395L18.4803 4.40742L18.5277 4.92871" stroke="#280F0B" stroke-width="0.379124" stroke-linecap="round" stroke-linejoin="round"/>
<path d="M13.6876 2.00137L14.6639 2.35778C14.6639 2.35778 15.36 2.5538 15.8146 2.63983C16.2388 2.7201 16.9096 2.79111 16.9096 2.79111C16.9096 2.79111 17.4326 2.85718 17.7243 3.01034C17.9154 3.11066 18.0297 3.17226 18.1718 3.33471C18.3185 3.50245 18.4385 3.83922 18.4385 3.83922L18.6552 4.46809L18.8161 4.96619" stroke="#280F0B" stroke-width="0.379124" stroke-linecap="round" stroke-linejoin="round"/>
<path d="M13.6411 2.02006L13.2225 2.97139C13.2225 2.97139 12.8821 3.60944 12.6295 3.99709C12.3938 4.35875 11.9807 4.89201 11.9807 4.89201C11.9807 4.89201 11.6664 5.31522 11.575 5.6318C11.5151 5.83915 11.4804 5.96426 11.4993 6.17926C11.5188 6.40126 11.6788 6.72095 11.6788 6.72095L11.9827 7.31264L12.2308 7.77356" stroke="#280F0B" stroke-width="0.379124" stroke-linecap="round" stroke-linejoin="round"/>
<path d="M6.58575 6.62115L7.62494 6.60242C7.62494 6.60242 8.34493 6.53485 8.80005 6.45156C9.22466 6.37385 9.87608 6.19875 9.87608 6.19875C9.87608 6.19875 10.3879 6.07221 10.7152 6.11014C10.9296 6.13499 11.0584 6.15134 11.2494 6.25179C11.4466 6.35551 11.6797 6.62656 11.6797 6.62656L12.1082 7.13536L12.4375 7.5422" stroke="#280F0B" stroke-width="0.379124" stroke-linecap="round" stroke-linejoin="round"/>
<path d="M6.55038 6.65423L6.5021 7.69246C6.5021 7.69246 6.41409 8.41025 6.31789 8.86282C6.22815 9.28504 6.03459 9.93122 6.03459 9.93122C6.03459 9.93122 5.89355 10.4392 5.92216 10.7675C5.9409 10.9825 5.95359 11.1117 6.04857 11.3055C6.14664 11.5056 6.41095 11.7463 6.41095 11.7463L6.90735 12.189L7.30467 12.5298" stroke="#280F0B" stroke-width="0.379124" stroke-linecap="round" stroke-linejoin="round"/>
<circle cx="22.1271" cy="22.3681" r="8.62507" stroke="#280F0B" stroke-width="0.379124" stroke-linecap="round" stroke-linejoin="round"/>
</svg>
