<svg width="32" height="32" viewBox="0 0 32 32" fill="none" xmlns="http://www.w3.org/2000/svg">
<path d="M3.11535 10.575C3.81649 8.90168 4.83648 7.38072 6.11847 6.0969C7.39666 4.81087 8.91497 3.7884 10.5872 3.08753C12.3003 2.36606 14.1409 1.99623 15.9997 2.00003H16.0622C17.9528 2.0094 19.781 2.3844 21.5028 3.1219C23.1607 3.82996 24.6648 4.85426 25.931 6.13753C27.2006 7.41845 28.2089 8.93409 28.8997 10.6C29.6169 12.3324 29.9802 14.1907 29.9685 16.0657C29.9591 18.2344 29.4403 20.3875 28.4716 22.3125V27.0625C28.4716 27.8563 27.8278 28.5 27.0372 28.5H22.2935C20.3595 29.4759 18.2253 29.9894 16.0591 30H15.9935C14.1247 30 12.3153 29.6375 10.6091 28.9282C8.94531 28.2357 7.43266 27.2251 6.15597 25.9532C4.86847 24.675 3.85597 23.1813 3.1466 21.5157C2.41222 19.7907 2.03722 17.9563 2.02785 16.0625C2.0216 14.1594 2.39035 12.3125 3.11535 10.575ZM22.2372 17.5C23.0622 17.5 23.7341 16.8282 23.7341 16C23.7341 15.1719 23.0622 14.5 22.2372 14.5C21.4122 14.5 20.7403 15.1719 20.7403 16C20.7403 16.8282 21.4091 17.5 22.2372 17.5ZM15.9997 17.5C16.8247 17.5 17.4966 16.8282 17.4966 16C17.4966 15.1719 16.8247 14.5 15.9997 14.5C15.1747 14.5 14.5028 15.1719 14.5028 16C14.5028 16.8282 15.1747 17.5 15.9997 17.5ZM9.76222 17.5C10.5872 17.5 11.2591 16.8282 11.2591 16C11.2591 15.1719 10.5872 14.5 9.76222 14.5C8.93722 14.5 8.26535 15.1719 8.26535 16C8.26535 16.8282 8.93722 17.5 9.76222 17.5Z" fill="#F6D8AB"/>
</svg>
