<svg width="22" height="22" viewBox="0 0 22 22" fill="none" xmlns="http://www.w3.org/2000/svg">
<g clip-path="url(#clip0_1150_1072)">
<path fill-rule="evenodd" clip-rule="evenodd" d="M0.492789 11.0697C0.362093 11.1716 0.277253 11.3213 0.256931 11.4858C0.236609 11.6504 0.28247 11.8162 0.384426 11.9469L2.30656 14.4108C2.38729 14.5142 2.49847 14.5895 2.62436 14.6261C2.75026 14.6628 2.88449 14.6589 3.00806 14.6151C3.2316 14.5358 3.65248 14.4595 4.10185 14.5275C4.53642 14.5928 4.97819 14.7872 5.32263 15.2287C5.54252 15.5106 5.61654 15.7477 5.63502 15.9442C5.65242 16.1494 5.61534 16.3559 5.54056 16.5791C5.50247 16.6928 5.45975 16.8006 5.41125 16.9193L5.40076 16.9465C5.35401 17.0575 5.31128 17.1702 5.27265 17.2843C5.20519 17.4844 5.06751 17.9501 5.38197 18.3532L7.3041 20.8171C7.40606 20.9478 7.55576 21.0326 7.72027 21.053C7.88478 21.0733 8.05062 21.0274 8.18132 20.9255L20.9938 10.9304C21.1245 10.8284 21.2094 10.6787 21.2297 10.5142C21.25 10.3497 21.2042 10.1839 21.1022 10.0532L19.1801 7.58921C19.0993 7.48589 18.9882 7.41057 18.8623 7.37392C18.7364 7.33727 18.6021 7.34115 18.4786 7.38499C18.1258 7.49915 17.7512 7.52913 17.3848 7.47253C16.9013 7.40882 16.4626 7.15682 16.164 6.77133C15.9441 6.48946 15.8701 6.25232 15.8516 6.05589C15.8342 5.85068 15.8713 5.64419 15.9461 5.42098C15.9842 5.30723 16.0269 5.1994 16.0744 5.08148L16.0869 5.05274C16.1281 4.94918 16.1759 4.82951 16.214 4.71576C16.2807 4.51471 16.4184 4.04901 16.1047 3.6469L14.1825 1.18295C14.0806 1.05225 13.9309 0.967413 13.7664 0.947091C13.6019 0.926769 13.436 0.972631 13.3053 1.07459L0.492789 11.0697ZM5.20396 8.97984L6.18954 8.21099L7.34281 9.68936L6.35724 10.4582L5.20396 8.97984ZM7.12609 11.4438L8.11167 10.6749L10.8027 14.1245L9.81707 14.8933L7.12609 11.4438ZM11.5715 15.11L10.5859 15.8789L11.3548 16.8645L12.3404 16.0956L11.5715 15.11Z" fill="#280F0B"/>
</g>
<defs>
<clipPath id="clip0_1150_1072">
<rect width="22" height="22" fill="white"/>
</clipPath>
</defs>
</svg>
