<svg width="24" height="24" viewBox="0 0 24 24" fill="none" xmlns="http://www.w3.org/2000/svg">
<path d="M20.9788 11.802C20.9412 11.6169 20.8519 11.4463 20.7213 11.3098C20.5907 11.1734 20.4241 11.0767 20.2408 11.031L13.3808 9.315L15.9178 3.394C16.0059 3.18847 16.0225 2.95938 15.965 2.74331C15.9075 2.52723 15.7793 2.33665 15.6008 2.202C15.4224 2.06669 15.2036 1.99547 14.9797 1.99982C14.7558 2.00418 14.5399 2.08386 14.3668 2.226L3.36683 11.226C3.22335 11.3434 3.11532 11.4983 3.0548 11.6735C2.99427 11.8488 2.98365 12.0373 3.0241 12.2182C3.06456 12.3992 3.1545 12.5653 3.28389 12.698C3.41328 12.8308 3.57702 12.9249 3.75683 12.97L10.4758 14.651L7.13083 20.505C7.04422 20.657 6.99902 20.8291 6.99973 21.0041C7.00045 21.1791 7.04707 21.3508 7.13492 21.5021C7.22278 21.6534 7.3488 21.779 7.50039 21.8664C7.65199 21.9538 7.82386 21.9998 7.99883 22C8.2152 22 8.42574 21.9298 8.59883 21.8L20.5988 12.8C20.75 12.6866 20.8659 12.5326 20.9332 12.356C21.0005 12.1793 21.0163 11.9873 20.9788 11.802Z" fill="black"/>
</svg>
