<svg width="16" height="25" viewBox="0 0 16 25" fill="none" xmlns="http://www.w3.org/2000/svg">
<path d="M0.625 8.20069L7.97555 0.429474M0.625 8.20069V12.4295V16.6583M0.625 8.20069L4.30028 10.1269M7.97555 0.429474L15.3261 8.20069M7.97555 0.429474V5.36674M0.625 16.6583L7.97555 24.4295M0.625 16.6583L4.30028 14.7321M7.97555 24.4295L15.3261 16.6583M7.97555 24.4295V19.4701M15.3261 8.20069V12.4295V16.6583M15.3261 8.20069L11.6508 10.1269M15.3261 16.6583L11.6508 14.7321M4.30028 10.1269V12.4295V14.7321M4.30028 10.1269L7.97555 5.36674M7.97555 5.36674V12.4295V19.4701M7.97555 5.36674L11.6508 10.1269M11.6508 10.1269V12.4295V14.7321M4.30028 14.7321L7.97555 19.4701M7.97555 19.4701L11.6508 14.7321" stroke="#3F3F3F" stroke-width="1.25" stroke-linejoin="bevel"/>
</svg>
