<svg width="32" height="32" viewBox="0 0 32 32" fill="none" xmlns="http://www.w3.org/2000/svg">
<path fill-rule="evenodd" clip-rule="evenodd" d="M26.6667 17.3337V24.0003C26.6667 25.0612 26.2452 26.0786 25.4951 26.8288C24.7449 27.5789 23.7275 28.0003 22.6667 28.0003H17.3333V17.3337H26.6667ZM14.6667 17.3337V28.0003H9.33333C8.27247 28.0003 7.25505 27.5789 6.50491 26.8288C5.75476 26.0786 5.33333 25.0612 5.33333 24.0003V17.3337H14.6667ZM12 2.66699C12.7566 2.66695 13.5046 2.82791 14.1943 3.13917C14.8839 3.45044 15.4995 3.90488 16 4.47233C16.5005 3.90488 17.1161 3.45044 17.8057 3.13917C18.4954 2.82791 19.2434 2.66695 20 2.66699H20.6667C21.1971 2.66699 21.7058 2.87771 22.0809 3.25278C22.456 3.62785 22.6667 4.13656 22.6667 4.66699V5.33366C22.6667 6.30566 22.4067 7.21633 21.9533 8.00033H25.3333C26.0406 8.00033 26.7189 8.28128 27.219 8.78137C27.719 9.28147 28 9.95975 28 10.667V13.3337C28 13.819 27.8707 14.275 27.6427 14.667H17.3333V10.667C17.3333 10.3134 17.1929 9.97423 16.9428 9.72418C16.6928 9.47413 16.3536 9.33366 16 9.33366C15.6464 9.33366 15.3072 9.47413 15.0572 9.72418C14.8071 9.97423 14.6667 10.3134 14.6667 10.667V14.667H4.35733C4.12326 14.2616 4.00002 13.8018 4 13.3337V10.667C4 9.95975 4.28095 9.28147 4.78105 8.78137C5.28115 8.28128 5.95942 8.00033 6.66667 8.00033H10.0467C9.57899 7.18944 9.33297 6.26975 9.33333 5.33366V4.66699C9.33333 4.13656 9.54405 3.62785 9.91912 3.25278C10.2942 2.87771 10.8029 2.66699 11.3333 2.66699H12ZM12 5.33366C12 6.0409 12.281 6.71918 12.781 7.21928C13.2811 7.71937 13.9594 8.00033 14.6667 8.00033C14.6667 7.29308 14.3857 6.6148 13.8856 6.11471C13.3855 5.61461 12.7072 5.33366 12 5.33366ZM20 5.33366C19.2928 5.33366 18.6145 5.61461 18.1144 6.11471C17.6143 6.6148 17.3333 7.29308 17.3333 8.00033C18.0406 8.00033 18.7189 7.71937 19.219 7.21928C19.719 6.71918 20 6.0409 20 5.33366Z" fill="#F6D8AB"/>
</svg>
