<svg width="20" height="25" viewBox="0 0 20 25" fill="none" xmlns="http://www.w3.org/2000/svg">
<path d="M11.0752 0.30957L19.5303 13.4014L19.6221 13.5439V15.623L17.5986 19.9248L17.5635 20.001L17.5068 20.0645L14.251 23.6934L14.0938 23.8682L13.8594 23.8828L9.01367 24.1953L8.85059 24.2051L8.70605 24.1289L7.49512 23.4824L7.40039 23.4326L7.33105 23.3525L3.04004 18.4092L3.00098 18.3652L2.97266 18.3135L0 12.998L2.65332 7.47461L2.68555 7.40723L2.73438 7.34961L8.23633 0.915039L8.25879 0.889648L8.2832 0.867188L8.91992 0.277344L9.09766 0.251953L10.876 0L11.0752 0.30957ZM5.38965 19.3623L8.12891 22.5176L9.10254 23.0361L13.5518 22.75L16.373 19.6045L12.6299 13.041H11.3701L5.38965 19.3623ZM3.65625 8.04102L1.29492 12.958L3.94824 17.7012L4.63281 18.4893L10.2988 12.499L4.38672 7.18652L3.65625 8.04102ZM13.5996 12.4209L17.0293 18.4336L18.4727 15.3662V13.8828L15.0879 8.64258L13.5996 12.4209ZM9.43652 1.36523L9.08789 1.68848L5.13379 6.3125L11.3438 11.8916H12.5732L14.3193 7.45312L10.3086 1.24121L9.43652 1.36523Z" fill="#3F3F3F"/>
</svg>
