<svg width="43" height="48" viewBox="0 0 43 48" fill="none" xmlns="http://www.w3.org/2000/svg">
<path d="M21.5827 4.13232V10.9371L21.2578 11.2955V4.13232H21.5827Z" fill="#280F0B"/>
<path d="M19.4222 13.6792C19.3577 13.7796 19.2945 13.8813 19.23 13.988L17.9688 6.83719L18.2069 6.79626L19.4222 13.6779V13.6792Z" fill="#280F0B"/>
<path d="M14.2023 5.37622L18.1274 16.1582C18.0642 16.3058 18.0059 16.4559 17.9463 16.6096L13.8984 5.48784L14.2035 5.37622H14.2023Z" fill="#280F0B"/>
<path d="M11.9518 9.02856L17.3825 18.434C17.3552 18.5506 17.3291 18.6671 17.3031 18.785L11.7422 9.1501L11.9518 9.02856Z" fill="#280F0B"/>
<path d="M7.70116 9.0658L17.0954 20.2633C17.083 20.417 17.0743 20.5745 17.0681 20.7333L7.45312 9.27662L7.69992 9.06704L7.70116 9.0658Z" fill="#280F0B"/>
<path d="M17.0872 21.8703C17.0946 21.9832 17.1033 22.0985 17.1157 22.2126L6.67969 13.4558L6.83595 13.2698L17.0872 21.8703Z" fill="#280F0B"/>
<path d="M2.84996 14.7593L17.035 22.9494C16.9023 22.9965 16.7696 23.0461 16.6406 23.0957L2.6875 15.0396L2.84996 14.7581V14.7593Z" fill="#280F0B"/>
<path d="M15.7687 23.4814C15.6683 23.5297 15.5703 23.5793 15.4736 23.6314L3.39062 19.2338L3.47248 19.0056L15.7687 23.4801V23.4814Z" fill="#280F0B"/>
<path d="M14.4131 24.2689C14.2853 24.3544 14.1626 24.4425 14.0423 24.5318L0.179688 22.0874L0.236735 21.7687L14.4118 24.2689H14.4131Z" fill="#280F0B"/>
<path d="M42.6528 22.0874L28.7927 24.5318C28.6711 24.44 28.5471 24.3519 28.4219 24.2689L42.597 21.7687L42.6528 22.0874Z" fill="#280F0B"/>
<path d="M39.4459 19.2338L27.3655 23.6314H27.3642C27.2675 23.5793 27.1708 23.5297 27.0703 23.4814L39.3641 19.0068L39.4459 19.235V19.2338Z" fill="#280F0B"/>
<path d="M40.1411 15.0409L26.2438 23.066L26.1917 23.097L26.0938 23.1528C26.1012 23.1243 26.1062 23.0958 26.1099 23.0648C26.1136 23.0524 26.1148 23.04 26.1148 23.0276C26.1322 22.9321 26.1471 22.8353 26.162 22.7386L39.9811 14.7606L40.1424 15.0421L40.1411 15.0409Z" fill="#280F0B"/>
<path d="M36.1634 13.457L26.2656 21.7612C26.2731 21.6496 26.2768 21.5404 26.278 21.4313L36.0059 13.2698L36.1634 13.4558V13.457Z" fill="#280F0B"/>
<path d="M35.3821 9.27538L26.2346 20.1752C26.2222 20.0251 26.2061 19.8738 26.1875 19.725L35.1316 9.0658L35.3808 9.27538H35.3821Z" fill="#280F0B"/>
<path d="M31.0977 9.15L25.894 18.1623C25.8655 18.0507 25.8345 17.9415 25.8047 17.8324L30.8869 9.02722L31.099 9.14876L31.0977 9.15Z" fill="#280F0B"/>
<path d="M28.9395 5.48649L25.1297 15.956C25.0665 15.8109 25.002 15.6732 24.9375 15.5343L28.6344 5.37488L28.9395 5.48649Z" fill="#280F0B"/>
<path d="M24.8559 6.83587L23.705 13.3641C23.6393 13.2624 23.5723 13.1669 23.5078 13.0739L24.6153 6.7937L24.8559 6.83463V6.83587Z" fill="#280F0B"/>
<path d="M30.7756 41.0088C32.8529 41.0088 33.8872 41.6053 34.9624 42.244C31.2705 45.2688 26.5516 47.0844 21.4161 47.0844C16.2806 47.0844 11.8718 45.3853 8.23438 42.5342C8.38319 42.4486 8.52953 42.3618 8.67463 42.2738C9.7697 41.6227 10.8015 41.0088 12.911 41.0088C15.0206 41.0088 16.0549 41.6239 17.1474 42.2738C18.2983 42.9571 19.4864 43.664 21.8427 43.664C24.199 43.664 25.3871 42.9559 26.538 42.2738C27.6318 41.6227 28.6649 41.0088 30.7744 41.0088H30.7756Z" fill="#280F0B"/>
<path d="M35.0167 36.9038C35.9964 37.4867 37.0047 38.0844 38.7384 38.2494C37.8442 39.4821 36.8174 40.6144 35.6826 41.6276C35.6132 41.5866 35.545 41.5457 35.4743 41.5036C34.3234 40.8202 33.1353 40.1133 30.779 40.1133C28.4227 40.1133 27.2346 40.8215 26.0838 41.5036C24.9899 42.1546 23.9569 42.7685 21.8473 42.7685C19.7378 42.7685 18.7035 42.1534 17.6109 41.5036C16.4601 40.8202 15.272 40.1133 12.9157 40.1133C10.5594 40.1133 9.37127 40.8215 8.22164 41.5036C7.97981 41.6474 7.7417 41.7888 7.49242 41.9227C6.23613 40.8475 5.10758 39.6284 4.13281 38.2915C6.39115 38.263 7.55443 37.571 8.67926 36.9025C9.77433 36.2515 10.8061 35.6376 12.9157 35.6376C15.0252 35.6376 16.0595 36.2527 17.1521 36.9025C18.3029 37.5859 19.491 38.2928 21.8473 38.2928C24.2037 38.2928 25.3917 37.5846 26.5426 36.9025C27.6364 36.2515 28.6695 35.6376 30.779 35.6376C32.8885 35.6376 33.9228 36.2527 35.0154 36.9025L35.0167 36.9038Z" fill="#280F0B"/>
<path d="M42.8316 25.4893V25.6691C42.8316 29.9935 41.5431 34.0216 39.3294 37.3911C37.4704 37.3229 36.4956 36.7438 35.4712 36.1336C34.3204 35.4503 33.1323 34.7434 30.776 34.7434C28.4196 34.7434 27.2316 35.4515 26.0807 36.1336C24.9869 36.7847 23.9538 37.3986 21.8443 37.3986C19.7348 37.3986 18.7005 36.7834 17.6079 36.1336C16.457 35.4503 15.2689 34.7434 12.9126 34.7434C10.5563 34.7434 9.36821 35.4515 8.21858 36.1336C7.12351 36.7847 6.0917 37.3986 3.98217 37.3986C3.81351 37.3986 3.65229 37.3949 3.49851 37.3862C1.28729 34.0166 0 29.9923 0 25.6691V25.4893H13.4285C13.2958 25.6071 13.1693 25.7261 13.0428 25.8477C10.3442 28.452 9.24668 31.7856 9.19211 31.9592L8.95152 32.712L9.72414 32.8782C9.77623 32.8893 11.0015 33.1522 12.7613 33.1522C14.5211 33.1522 17.1875 32.8658 19.5425 31.5065C20.0907 31.1891 20.6227 30.817 21.1287 30.3916C21.1337 30.3879 21.1399 30.3842 21.1436 30.3792C21.2316 30.3073 21.316 30.2341 21.4015 30.1572C21.4065 30.1535 21.4102 30.1498 21.4164 30.1424C21.4214 30.1473 21.4251 30.151 21.4313 30.1572C21.5169 30.2329 21.6037 30.3073 21.6917 30.3792C21.6967 30.3842 21.7004 30.3879 21.7066 30.3916C22.2139 30.8158 22.7459 31.1915 23.2903 31.5065C25.6454 32.8645 28.2795 33.1522 30.074 33.1522C31.8685 33.1522 33.0603 32.8893 33.1112 32.8782L33.8838 32.712L33.642 31.9592C33.5862 31.7856 32.4936 28.452 29.7925 25.8477C29.6673 25.7261 29.5395 25.6071 29.4068 25.4893H42.8329H42.8316Z" fill="#280F0B"/>
<path d="M24.4697 23.1081C23.5172 22.8688 22.5003 22.7274 21.4387 22.6877H21.4188H21.399C20.5172 22.7212 19.6628 22.8241 18.8505 22.9965C18.7314 22.369 18.6719 21.7489 18.6719 21.1462C18.6719 17.5596 20.774 14.4505 21.6718 13.2872C22.5685 14.4505 24.6706 17.5596 24.6706 21.1462C24.6706 21.7861 24.6036 22.4446 24.4709 23.1081H24.4697Z" fill="#280F0B"/>
<path d="M21.4129 28.3838C21.0892 28.0303 20.7779 27.6508 20.484 27.249C19.8664 26.1825 19.4001 25.1073 19.0938 24.0444C19.8316 23.8894 20.6092 23.7964 21.4129 23.7642C22.3616 23.8014 23.2694 23.9241 24.1201 24.1313C23.7034 25.0986 22.8304 26.8385 21.4129 28.3838Z" fill="#280F0B"/>
<path d="M30.0721 31.8972C28.4314 31.8972 26.0304 31.6404 23.9172 30.4201C23.3368 30.0853 22.7737 29.6748 22.2429 29.1998C22.2219 29.1812 22.2008 29.1614 22.1797 29.1427C23.7659 27.4288 24.7096 25.5239 25.1648 24.4338C25.7873 24.6484 26.3776 24.915 26.9171 25.2263C30.0237 27.0196 31.6645 30.3953 32.2226 31.7545C31.729 31.8215 30.9725 31.8972 30.0721 31.8972Z" fill="#280F0B"/>
<path d="M12.7598 31.8971C11.8595 31.8971 11.103 31.8215 10.6094 31.7545C11.1687 30.3965 12.8107 27.0196 15.9173 25.2263C16.5684 24.8505 17.2864 24.5429 18.0541 24.311C18.3865 25.4768 18.8962 26.6537 19.5708 27.8145L19.5845 27.8393L19.6006 27.8616C19.9317 28.3155 20.2851 28.7459 20.6522 29.144C20.1004 29.645 19.5187 30.0728 18.9148 30.4213C16.8003 31.6429 14.4006 31.8984 12.7586 31.8984L12.7598 31.8971Z" fill="#280F0B"/>
<path d="M22.9414 1.52553C22.0994 1.52553 21.416 2.20886 21.416 3.05093C21.416 2.20886 20.7327 1.52553 19.8906 1.52553C20.7327 1.52553 21.416 0.842195 21.416 0.00012207C21.416 0.842195 22.0994 1.52553 22.9414 1.52553Z" fill="#280F0B"/>
</svg>
