<svg width="186" height="72" viewBox="0 0 186 72" fill="none" xmlns="http://www.w3.org/2000/svg">
<path d="M32.5411 9.04181V18.4929L32.0898 18.9907V9.04181H32.5411Z" fill="white"/>
<path d="M29.5539 22.3013C29.4643 22.4408 29.3765 22.5821 29.2869 22.7302L27.5352 12.7985L27.8659 12.7417L29.5539 22.2996V22.3013Z" fill="white"/>
<path d="M22.297 10.7695L27.7486 25.7445C27.6607 25.9494 27.5798 26.1579 27.4971 26.3714L21.875 10.9245L22.2987 10.7695H22.297Z" fill="white"/>
<path d="M19.1661 15.8421L26.7087 28.9052C26.6708 29.0671 26.6346 29.229 26.5985 29.3926L18.875 16.0109L19.1661 15.8421Z" fill="white"/>
<path d="M13.2625 15.8938L26.31 31.4458C26.2928 31.6594 26.2808 31.8782 26.2721 32.0986L12.918 16.1866L13.2607 15.8955L13.2625 15.8938Z" fill="white"/>
<path d="M26.2947 33.6781C26.305 33.8348 26.3171 33.995 26.3343 34.1535L11.8398 21.9912L12.0569 21.7328L26.2947 33.6781Z" fill="white"/>
<path d="M6.52642 23.8015L26.2278 35.1766C26.0435 35.2421 25.8592 35.311 25.6801 35.3799L6.30078 24.1908L6.52642 23.7998V23.8015Z" fill="white"/>
<path d="M24.4691 35.9156C24.3296 35.9827 24.1936 36.0516 24.0592 36.124L7.27734 30.0161L7.39103 29.6992L24.4691 35.9138V35.9156Z" fill="white"/>
<path d="M22.5889 37.0093C22.4115 37.1281 22.241 37.2504 22.0739 37.3744L2.82031 33.9795L2.89955 33.5368L22.5872 37.0093H22.5889Z" fill="white"/>
<path d="M61.812 33.9795L42.5619 37.3744C42.3931 37.247 42.2208 37.1247 42.0469 37.0093L61.7345 33.5368L61.812 33.9795Z" fill="white"/>
<path d="M57.3563 30.0161L40.5779 36.124H40.5762C40.4418 36.0516 40.3075 35.9827 40.168 35.9155L57.2426 29.7009L57.3563 30.0179V30.0161Z" fill="white"/>
<path d="M58.3305 24.1926L39.0287 35.3386L38.9564 35.3816L38.8203 35.4591C38.8306 35.4195 38.8375 35.3799 38.8427 35.3368C38.8479 35.3196 38.8496 35.3024 38.8496 35.2852C38.8737 35.1525 38.8944 35.0182 38.915 34.8838L58.1083 23.8033L58.3323 24.1943L58.3305 24.1926Z" fill="white"/>
<path d="M52.7938 21.9929L39.0469 33.5265C39.0572 33.3715 39.0624 33.2199 39.0641 33.0683L52.575 21.7328L52.7938 21.9912V21.9929Z" fill="white"/>
<path d="M51.7156 16.1849L39.0108 31.3235C38.9935 31.1151 38.9711 30.905 38.9453 30.6983L51.3676 15.8938L51.7139 16.1849H51.7156Z" fill="white"/>
<path d="M45.7538 16.0109L38.5264 28.5279C38.4867 28.3729 38.4437 28.2213 38.4023 28.0697L45.461 15.8403L45.7555 16.0091L45.7538 16.0109Z" fill="white"/>
<path d="M42.7576 10.9228L37.4662 25.4637C37.3784 25.2622 37.2888 25.071 37.1992 24.8781L42.3339 10.7678L42.7576 10.9228Z" fill="white"/>
<path d="M37.0989 12.7968L35.5004 21.8638C35.4091 21.7225 35.3161 21.5899 35.2266 21.4607L36.7647 12.7382L37.0989 12.7951V12.7968Z" fill="white"/>
<path d="M45.3151 60.2591C48.2002 60.2591 49.6368 61.0876 51.1301 61.9747C46.0024 66.1757 39.4484 68.6974 32.3158 68.6974C25.1831 68.6974 19.0598 66.3376 14.0078 62.3777C14.2145 62.2589 14.4178 62.1383 14.6193 62.016C16.1402 61.1117 17.5733 60.2591 20.5032 60.2591C23.4331 60.2591 24.8696 61.1134 26.3871 62.016C27.9855 62.9651 29.6356 63.9469 32.9083 63.9469C36.1809 63.9469 37.8311 62.9633 39.4295 62.016C40.9487 61.1117 42.3835 60.2591 45.3134 60.2591H45.3151Z" fill="white"/>
<path d="M51.1989 54.5578C52.5597 55.3673 53.96 56.1975 56.368 56.4266C55.1261 58.1387 53.6999 59.7113 52.1239 61.1186C52.0274 61.0617 51.9327 61.0049 51.8345 60.9463C50.2361 59.9973 48.586 59.0155 45.3133 59.0155C42.0406 59.0155 40.3905 59.999 38.7921 60.9463C37.2729 61.8506 35.8381 62.7032 32.9082 62.7032C29.9783 62.7032 28.5418 61.8489 27.0243 60.9463C25.4259 59.9973 23.7758 59.0155 20.5031 59.0155C17.2304 59.0155 15.5803 59.999 13.9836 60.9463C13.6477 61.1461 13.317 61.3425 12.9708 61.5285C11.226 60.0352 9.65854 58.342 8.30469 56.4852C11.4413 56.4456 13.0569 55.4844 14.6192 54.556C16.1401 53.6517 17.5732 52.7991 20.5031 52.7991C23.433 52.7991 24.8695 53.6535 26.387 54.556C27.9854 55.5051 29.6355 56.4869 32.9082 56.4869C36.1809 56.4869 37.831 55.5034 39.4294 54.556C40.9486 53.6517 42.3834 52.7991 45.3133 52.7991C48.2432 52.7991 49.6797 53.6535 51.1972 54.556L51.1989 54.5578Z" fill="white"/>
<path d="M62.0587 38.7043V38.9541C62.0587 44.9603 60.269 50.5548 57.1945 55.2347C54.6125 55.14 53.2587 54.3356 51.8359 53.4882C50.2375 52.5391 48.5874 51.5573 45.3147 51.5573C42.042 51.5573 40.3919 52.5408 38.7935 53.4882C37.2743 54.3924 35.8395 55.2451 32.9096 55.2451C29.9797 55.2451 28.5432 54.3907 27.0257 53.4882C25.4273 52.5391 23.7772 51.5573 20.5045 51.5573C17.2318 51.5573 15.5817 52.5408 13.985 53.4882C12.4641 54.3924 11.031 55.2451 8.10111 55.2451C7.86685 55.2451 7.64294 55.2399 7.42935 55.2278C4.35822 50.5479 2.57031 44.9586 2.57031 38.9541V38.7043H21.221C21.0367 38.868 20.861 39.0333 20.6853 39.2021C16.9373 42.8193 15.4129 47.4492 15.3371 47.6904L15.003 48.7359L16.0761 48.9667C16.1484 48.9822 17.8502 49.3474 20.2944 49.3474C22.7385 49.3474 26.4418 48.9495 29.7127 47.0617C30.474 46.6207 31.213 46.104 31.9157 45.5132C31.9226 45.508 31.9312 45.5029 31.9364 45.496C32.0587 45.3961 32.1758 45.2944 32.2947 45.1877C32.3016 45.1825 32.3067 45.1773 32.3154 45.167C32.3222 45.1739 32.3274 45.179 32.336 45.1877C32.4549 45.2927 32.5754 45.3961 32.6977 45.496C32.7046 45.5029 32.7098 45.508 32.7184 45.5132C33.4229 46.1023 34.1618 46.6242 34.918 47.0617C38.1889 48.9478 41.8474 49.3474 44.3398 49.3474C46.8322 49.3474 48.4875 48.9822 48.5581 48.9667L49.6312 48.7359L49.2953 47.6904C49.2178 47.4492 47.7003 42.8193 43.9488 39.2021C43.7748 39.0333 43.5974 38.868 43.4131 38.7043H62.0604H62.0587Z" fill="white"/>
<path d="M36.5525 35.3972C35.2296 35.0647 33.8172 34.8684 32.3428 34.8133H32.3152H32.2877C31.063 34.8598 29.8762 35.0027 28.748 35.2422C28.5827 34.3706 28.5 33.5094 28.5 32.6723C28.5 27.6909 31.4196 23.3727 32.6666 21.7571C33.9119 23.3727 36.8315 27.6909 36.8315 32.6723C36.8315 33.561 36.7385 34.4757 36.5542 35.3972H36.5525Z" fill="white"/>
<path d="M32.3147 42.7245C31.8652 42.2336 31.4328 41.7065 31.0246 41.1484C30.1668 39.6671 29.5192 38.1738 29.0938 36.6976C30.1186 36.4823 31.1986 36.3531 32.3147 36.3083C33.6324 36.36 34.8932 36.5305 36.0749 36.8182C35.4961 38.1617 34.2835 40.5783 32.3147 42.7245Z" fill="white"/>
<path d="M44.3367 47.6042C42.0579 47.6042 38.7232 47.2476 35.7882 45.5527C34.9821 45.0877 34.2001 44.5175 33.4628 43.8578C33.4336 43.832 33.4043 43.8045 33.375 43.7786C35.578 41.3982 36.8888 38.7525 37.5209 37.2385C38.3856 37.5364 39.2055 37.9068 39.9548 38.3391C44.2695 40.8298 46.5483 45.5183 47.3234 47.4061C46.6379 47.4991 45.5872 47.6042 44.3367 47.6042Z" fill="white"/>
<path d="M20.2914 47.6042C19.0409 47.6042 17.9902 47.4991 17.3047 47.4061C18.0815 45.52 20.362 40.8298 24.6768 38.3391C25.5811 37.8172 26.5784 37.39 27.6446 37.0679C28.1062 38.687 28.8141 40.3216 29.7511 41.9339L29.7701 41.9683L29.7925 41.9993C30.2524 42.6297 30.7433 43.2274 31.2531 43.7803C30.4866 44.4762 29.6788 45.0704 28.84 45.5545C25.9032 47.2511 22.5702 47.6059 20.2897 47.6059L20.2914 47.6042Z" fill="white"/>
<path d="M34.4325 5.42129C33.263 5.42129 32.3139 6.37036 32.3139 7.53991C32.3139 6.37036 31.3649 5.42129 30.1953 5.42129C31.3649 5.42129 32.3139 4.47222 32.3139 3.30267C32.3139 4.47222 33.263 5.42129 34.4325 5.42129Z" fill="white"/>
<path d="M80.9184 41.7975H76.9407L73.8081 35.8706H72.5651V41.7975H69.0547V27.189H75.4788C76.334 27.189 77.0766 27.3084 77.7064 27.547C78.3428 27.7791 78.8699 28.094 79.2876 28.4918C79.7052 28.8895 80.0168 29.337 80.2223 29.8343C80.4279 30.3315 80.5306 30.8453 80.5306 31.3756C80.524 32.2508 80.2787 33.0629 79.7947 33.812C79.3108 34.5546 78.5782 35.1181 77.597 35.5026L80.9184 41.7975ZM74.3352 34.7965C74.9584 34.7965 75.4689 34.6308 75.8667 34.2993C76.2711 33.9678 76.5694 33.5469 76.7617 33.0364C76.9605 32.5193 77.06 31.9823 77.06 31.4254C77.06 30.895 76.9539 30.3878 76.7418 29.9039C76.5362 29.4199 76.2313 29.0254 75.8269 28.7205C75.4225 28.4155 74.9252 28.263 74.3352 28.263H72.5651V34.7965H74.3352Z" fill="white"/>
<path d="M95.0495 41.7975H91.2508L89.7094 37.9291H84.2498L82.7084 41.7975H81.535L87.3426 27.189H89.242L95.0495 41.7975ZM89.2817 36.8551L86.9846 31.0574L84.6775 36.8551H89.2817Z" fill="white"/>
<path d="M107.808 41.7975H105.949L102.548 31.9127L99.1467 41.7975H97.287L92.2551 27.189H95.9744L99.4947 37.4318L101.971 30.242L100.927 27.189H104.636L108.166 37.4318L111.687 27.189H112.84L107.808 41.7975Z" fill="white"/>
<path d="M128.513 41.7975H121.482C120.541 41.7975 119.828 41.5157 119.344 40.9522C118.86 40.382 118.618 39.5898 118.618 38.5754V27.189H128.513V28.9492C128.009 28.7238 127.492 28.5647 126.961 28.4719C126.431 28.3724 125.907 28.3128 125.39 28.2929C124.88 28.273 124.402 28.263 123.958 28.263H122.128V33.9612H127.101V35.0352H122.128V38.5754C122.128 39.3644 122.287 39.9213 122.606 40.2461C122.931 40.5643 123.487 40.7235 124.276 40.7235H128.513V41.7975Z" fill="white"/>
<path d="M142.882 41.7975H139.084L137.542 37.9291H132.083L130.541 41.7975H129.368L135.175 27.189H137.075L142.882 41.7975ZM137.115 36.8551L134.817 31.0574L132.51 36.8551H137.115Z" fill="white"/>
<path d="M155.522 41.7975H151.544L148.412 35.8706H147.169V41.7975H143.658V27.189H150.082C150.937 27.189 151.68 27.3084 152.31 27.547C152.946 27.7791 153.473 28.094 153.891 28.4918C154.309 28.8895 154.62 29.337 154.826 29.8343C155.031 30.3315 155.134 30.8453 155.134 31.3756C155.127 32.2508 154.882 33.0629 154.398 33.812C153.914 34.5546 153.182 35.1181 152.2 35.5026L155.522 41.7975ZM148.939 34.7965C149.562 34.7965 150.072 34.6308 150.47 34.2993C150.875 33.9678 151.173 33.5469 151.365 33.0364C151.564 32.5193 151.663 31.9823 151.663 31.4254C151.663 30.895 151.557 30.3878 151.345 29.9039C151.14 29.4199 150.835 29.0254 150.43 28.7205C150.026 28.4155 149.529 28.263 148.939 28.263H147.169V34.7965H148.939Z" fill="white"/>
<path d="M163.338 41.7975H159.838V28.263C159.4 28.263 158.923 28.273 158.406 28.2929C157.895 28.3128 157.372 28.3724 156.835 28.4719C156.304 28.5647 155.787 28.7238 155.283 28.9492V27.189H167.893V28.9492C167.389 28.7238 166.872 28.5647 166.341 28.4719C165.811 28.3724 165.287 28.3128 164.77 28.2929C164.26 28.273 163.782 28.263 163.338 28.263V41.7975Z" fill="white"/>
<path d="M181.447 41.7975H177.937V35.0352H172.785V41.7975H169.275V27.189H172.785V33.9612H177.937V27.189H181.447V41.7975Z" fill="white"/>
<path d="M105.146 53.4594C104.371 53.4499 103.725 53.272 103.207 52.9257C102.689 52.5762 102.3 52.1267 102.039 51.5771C101.779 51.0243 101.648 50.4398 101.648 49.8235C101.648 49.2071 101.777 48.6242 102.034 48.0746C102.295 47.525 102.684 47.077 103.202 46.7307C103.72 46.3813 104.368 46.2002 105.146 46.1875C105.842 46.197 106.433 46.3448 106.919 46.6307C107.408 46.9134 107.794 47.2851 108.077 47.7458L106.89 48.899C106.792 48.2827 106.596 47.768 106.304 47.355C106.015 46.9388 105.629 46.7212 105.146 46.7022C104.743 46.7117 104.406 46.8658 104.136 47.1644C103.869 47.463 103.667 47.849 103.531 48.3224C103.397 48.7926 103.331 49.2929 103.331 49.8235C103.34 50.5287 103.455 51.099 103.674 51.5342C103.893 51.9694 104.176 52.2855 104.522 52.4825C104.868 52.6795 105.226 52.778 105.594 52.778C105.988 52.778 106.36 52.6874 106.709 52.5063C107.062 52.3253 107.333 52.0759 107.524 51.7582L107.996 52.0298C107.71 52.4587 107.329 52.8034 106.852 53.0639C106.379 53.3212 105.81 53.4531 105.146 53.4594Z" fill="white"/>
<path d="M114.415 53.3212H112.509L111.008 50.4811H110.412V53.3212H108.73V46.3209H111.808C112.218 46.3209 112.574 46.3781 112.876 46.4925C113.181 46.6037 113.433 46.7546 113.633 46.9452C113.833 47.1358 113.983 47.3502 114.081 47.5885C114.18 47.8268 114.229 48.073 114.229 48.3271C114.226 48.7465 114.108 49.1357 113.876 49.4946C113.644 49.8505 113.293 50.1205 112.823 50.3048L114.415 53.3212ZM111.26 49.9664C111.559 49.9664 111.803 49.887 111.994 49.7281C112.188 49.5693 112.331 49.3676 112.423 49.1229C112.518 48.8752 112.566 48.6178 112.566 48.351C112.566 48.0968 112.515 47.8538 112.413 47.6219C112.315 47.39 112.169 47.2009 111.975 47.0548C111.781 46.9087 111.543 46.8356 111.26 46.8356H110.412V49.9664H111.26Z" fill="white"/>
<path d="M118.175 53.3212H116.492V50.3143L114.019 46.3209H116.002L118.017 49.5757L120.033 46.3209H120.648L118.175 50.3143V53.3212Z" fill="white"/>
<path d="M123.45 53.4594C123.065 53.4594 122.689 53.4054 122.32 53.2974C121.952 53.1862 121.61 53.0162 121.296 52.7875C120.985 52.5556 120.716 52.2601 120.491 51.9011L121.677 50.7527C121.769 51.2832 121.904 51.7105 122.082 52.0346C122.26 52.3554 122.465 52.5874 122.697 52.7303C122.929 52.8733 123.164 52.9448 123.402 52.9448C123.679 52.9448 123.906 52.8939 124.084 52.7923C124.265 52.6906 124.398 52.5635 124.484 52.411C124.573 52.2554 124.617 52.0965 124.617 51.9345C124.617 51.7026 124.536 51.5056 124.374 51.3436C124.212 51.1784 123.999 51.0307 123.736 50.9004C123.475 50.767 123.191 50.6383 122.883 50.5144C122.502 50.3619 122.13 50.1904 121.768 49.9998C121.409 49.8092 121.11 49.5725 120.872 49.2897C120.637 49.007 120.511 48.6528 120.495 48.2271C120.499 47.8744 120.611 47.544 120.834 47.2359C121.059 46.9277 121.385 46.6767 121.811 46.483C122.239 46.286 122.756 46.1875 123.359 46.1875C123.938 46.1875 124.489 46.313 125.013 46.564C125.537 46.8149 125.971 47.2089 126.314 47.7458L125.127 48.899C125.038 48.3684 124.905 47.9427 124.727 47.6219C124.549 47.2978 124.344 47.0643 124.112 46.9214C123.88 46.7752 123.645 46.7022 123.407 46.7022C123.131 46.7085 122.902 46.7609 122.721 46.8594C122.543 46.9579 122.409 47.085 122.32 47.2406C122.235 47.3931 122.192 47.552 122.192 47.7172C122.192 47.9459 122.273 48.1429 122.435 48.3081C122.6 48.4733 122.813 48.621 123.073 48.7513C123.337 48.8815 123.623 49.0102 123.931 49.1372C124.312 49.2897 124.683 49.4613 125.041 49.6519C125.404 49.8425 125.702 50.0776 125.937 50.3572C126.176 50.6367 126.301 50.9878 126.314 51.4103C126.314 51.7598 126.201 52.0902 125.976 52.4015C125.75 52.7128 125.423 52.967 124.994 53.164C124.568 53.3609 124.053 53.4594 123.45 53.4594Z" fill="white"/>
<path d="M130.198 53.3212H128.52V46.8356C128.311 46.8356 128.082 46.8404 127.834 46.8499C127.589 46.8594 127.338 46.888 127.081 46.9357C126.827 46.9801 126.579 47.0564 126.338 47.1644V46.3209H132.38V47.1644C132.139 47.0564 131.891 46.9801 131.637 46.9357C131.383 46.888 131.132 46.8594 130.884 46.8499C130.639 46.8404 130.41 46.8356 130.198 46.8356V53.3212Z" fill="white"/>
<path d="M137.179 53.3212H135.358L134.62 51.4675H132.004L131.265 53.3212H130.703L133.486 46.3209H134.396L137.179 53.3212ZM134.415 50.9528L133.314 48.1746L132.209 50.9528H134.415Z" fill="white"/>
<path d="M142.144 53.3212H138.78C138.326 53.3212 137.983 53.1862 137.751 52.9162C137.522 52.6429 137.408 52.2633 137.408 51.7772V46.3209H139.09V51.7772C139.09 52.1553 139.166 52.4222 139.318 52.5778C139.474 52.7303 139.741 52.8066 140.119 52.8066H142.144V53.3212Z" fill="white"/>
<path d="M144.77 53.4594C144.386 53.4594 144.009 53.4054 143.641 53.2974C143.272 53.1862 142.931 53.0162 142.616 52.7875C142.305 52.5556 142.036 52.2601 141.811 51.9011L142.997 50.7527C143.089 51.2832 143.224 51.7105 143.402 52.0346C143.58 52.3554 143.785 52.5874 144.017 52.7303C144.249 52.8733 144.484 52.9448 144.722 52.9448C144.999 52.9448 145.226 52.8939 145.404 52.7923C145.585 52.6906 145.718 52.5635 145.804 52.411C145.893 52.2554 145.938 52.0965 145.938 51.9345C145.938 51.7026 145.857 51.5056 145.694 51.3436C145.532 51.1784 145.32 51.0307 145.056 50.9004C144.795 50.767 144.511 50.6383 144.203 50.5144C143.822 50.3619 143.45 50.1904 143.088 49.9998C142.729 49.8092 142.43 49.5725 142.192 49.2897C141.957 49.007 141.831 48.6528 141.815 48.2271C141.819 47.8744 141.931 47.544 142.154 47.2359C142.379 46.9277 142.705 46.6767 143.131 46.483C143.56 46.286 144.076 46.1875 144.679 46.1875C145.258 46.1875 145.809 46.313 146.333 46.564C146.857 46.8149 147.291 47.2089 147.634 47.7458L146.447 48.899C146.358 48.3684 146.225 47.9427 146.047 47.6219C145.869 47.2978 145.664 47.0643 145.432 46.9214C145.2 46.7752 144.965 46.7022 144.727 46.7022C144.451 46.7085 144.222 46.7609 144.041 46.8594C143.863 46.9579 143.73 47.085 143.641 47.2406C143.555 47.3931 143.512 47.552 143.512 47.7172C143.512 47.9459 143.593 48.1429 143.755 48.3081C143.92 48.4733 144.133 48.621 144.394 48.7513C144.657 48.8815 144.943 49.0102 145.251 49.1372C145.633 49.2897 146.003 49.4613 146.362 49.6519C146.724 49.8425 147.022 50.0776 147.258 50.3572C147.496 50.6367 147.621 50.9878 147.634 51.4103C147.634 51.7598 147.521 52.0902 147.296 52.4015C147.07 52.7128 146.743 52.967 146.314 53.164C145.888 53.3609 145.374 53.4594 144.77 53.4594Z" fill="white"/>
<path d="M172.4 50.6254H150.883V50.9906H172.4V50.6254Z" fill="white"/>
<path d="M100.54 50.6254H79.0234V50.9906H100.54V50.6254Z" fill="white"/>
<path d="M80.9188 50.808C79.8888 50.808 79.0551 51.6434 79.0551 52.6717C79.0551 51.6416 78.2197 50.808 77.1914 50.808C78.2214 50.808 79.0551 49.9726 79.0551 48.9443C79.0551 49.9743 79.8905 50.808 80.9188 50.808Z" fill="white"/>
<path d="M174.247 50.808C173.217 50.808 172.383 51.6434 172.383 52.6717C172.383 51.6416 171.548 50.808 170.52 50.808C171.55 50.808 172.383 49.9726 172.383 48.9443C172.383 49.9743 173.219 50.808 174.247 50.808Z" fill="white"/>
</svg>
