<svg width="26" height="19" viewBox="0 0 26 19" fill="none" xmlns="http://www.w3.org/2000/svg" xmlns:xlink="http://www.w3.org/1999/xlink">
<path d="M7.092 16.8421C2.08951 15.4612 0.643472 10.6215 0.643473 9.64445C0.578334 8.73255 0.480631 4.75921 4.29113 2.80511C8.39473 0.590464 10.9676 0.395054 15.4946 0.785873C19.1162 1.09853 22.258 3.89072 23.3762 5.24774C23.8538 6.06194 25.2651 7.52752 24.2881 11.1752C23.311 14.8228 19.012 16.6791 16.602 17.3631C15.4621 17.7931 12.0945 18.223 7.092 16.8421Z" fill="url(#pattern0_1389_786)" stroke="#3F3F3F" stroke-width="1.25"/>
<defs>
<pattern id="pattern0_1389_786" patternUnits="userSpaceOnUse" patternTransform="matrix(0 -67.08 6.45 0 0.981363 22.309)" preserveAspectRatio="none" viewBox="0 0.500732 67.08 6.45" width="1" height="1">
<use xlink:href="#pattern0_1389_786_inner" transform="translate(0 -6.45)"/>
<use xlink:href="#pattern0_1389_786_inner" transform="translate(33.54 -3.225)"/>
<g id="pattern0_1389_786_inner">
<path d="M0 1C8.65388 0.334317 17.3461 0.334317 26 1V3C17.3461 2.33432 8.65388 2.33432 0 3V1Z" fill="#3F3F3F"/>
<path d="M0 4C8.65388 3.33432 17.3461 3.33432 26 4V5C17.3461 4.33432 8.65388 4.33432 0 5L0 4Z" fill="#3F3F3F"/>
</g>
<use xlink:href="#pattern0_1389_786_inner" transform="translate(33.54 3.225)"/>
</pattern></defs>
</svg>
