<svg width="121" height="111" viewBox="0 0 121 111" fill="none" xmlns="http://www.w3.org/2000/svg">
<path d="M25.2984 52.4981C21.4043 52.5493 17.5636 51.5888 14.1519 49.7107C10.7403 47.8326 7.8745 45.1011 5.83495 41.7835C3.79539 38.4658 2.65189 34.6756 2.51628 30.7835C2.38067 26.8914 3.25761 23.0308 5.06131 19.5792C6.86501 16.1276 9.53371 13.2033 12.8064 11.0923C16.079 8.98132 19.8436 7.75591 23.7318 7.53594C27.62 7.31598 31.4988 8.10901 34.9887 9.83745C38.4785 11.5659 41.46 14.1706 43.6415 17.3967" stroke="#96210E" stroke-width="5"/>
<line x1="7.23223" y1="46.2322" x2="39.2322" y2="14.2322" stroke="#96210E" stroke-width="5"/>
<path d="M120.631 82.5081L73 110.008V55.0081L120.631 27.5081V82.5081Z" fill="#C38154"/>
<path d="M120.631 82.5081L73 110.008V55.0081L120.631 27.5081V82.5081Z" fill="black" fill-opacity="0.2"/>
<path d="M25.3672 82.5081V27.5081L72.9986 55.0081V110.008L25.3672 82.5081Z" fill="#C38154"/>
<path d="M25.3672 82.5081V27.5081L72.9986 55.0081V110.008L25.3672 82.5081Z" fill="black" fill-opacity="0.2"/>
<path d="M25.3672 82.5081V27.5081L72.9986 55.0081V110.008L25.3672 82.5081Z" fill="black" fill-opacity="0.2"/>
<path d="M120.63 27.5081L72.9986 55.0081L25.3672 27.5081L72.9986 0.00805664L120.63 27.5081Z" fill="#C38154"/>
<g filter="url(#filter0_d_1185_672)">
<path d="M99.2219 53.1536L99.2002 58.5632L98.9772 58.9803L99 53.2858L99.2219 53.1536Z" fill="#280F0B"/>
<path d="M97.7209 61.6186C97.6765 61.7247 97.633 61.8313 97.5886 61.9423L96.7499 56.7706L96.9126 56.6412L97.7209 61.6176L97.7209 61.6186Z" fill="#280F0B"/>
<path d="M94.1763 57.1425L96.823 64.1175C96.7793 64.2606 96.7391 64.4036 96.6979 64.55L93.9684 57.3548L94.1771 57.142L94.1763 57.1425Z" fill="#280F0B"/>
<path d="M92.6275 60.9625L96.3071 66.2308C96.288 66.3346 96.2699 66.4379 96.2517 66.5421L92.484 61.1443L92.6275 60.9625Z" fill="#280F0B"/>
<path d="M89.7163 62.7218L96.0975 67.8027C96.0885 67.93 96.0821 68.0587 96.0773 68.1875L89.5462 62.9902L89.7154 62.7232L89.7163 62.7218Z" fill="#280F0B"/>
<path d="M96.0894 69.0849C96.0941 69.1716 96.0997 69.2597 96.1078 69.3454L89.0072 66.6284L89.1145 66.4169L96.0894 69.0849Z" fill="#280F0B"/>
<path d="M86.3844 69.2201L96.0476 69.9618C95.9568 70.0532 95.866 70.1466 95.7777 70.2385L86.2725 69.509L86.3844 69.2191L86.3844 69.2201Z" fill="#280F0B"/>
<path d="M95.1908 70.9001C95.122 70.9794 95.0549 71.0587 94.9887 71.1394L86.7493 72.5576L86.8059 72.3429L95.1908 70.8991L95.1908 70.9001Z" fill="#280F0B"/>
<path d="M94.2612 72.0764C94.1737 72.1964 94.0896 72.3164 94.0071 72.4363L84.5459 76.1311L84.5858 75.8545L94.2604 72.077L94.2612 72.0764Z" fill="#280F0B"/>
<path d="M113.556 58.8571L104.08 66.4372C103.998 66.4137 103.913 66.3942 103.828 66.379L113.518 58.6264L113.556 58.8571Z" fill="#280F0B"/>
<path d="M111.375 57.8923L103.109 66.3015L103.108 66.302C103.042 66.2999 102.976 66.2998 102.908 66.3022L111.319 57.7452L111.375 57.8933L111.375 57.8923Z" fill="#280F0B"/>
<path d="M111.868 54.2739L102.349 66.3058L102.314 66.3516L102.247 66.4358C102.252 66.4101 102.255 66.3854 102.258 66.3593C102.261 66.3479 102.261 66.3375 102.261 66.3277C102.274 66.2447 102.284 66.1618 102.295 66.0788L111.759 54.1162L111.869 54.2744L111.868 54.2739Z" fill="#280F0B"/>
<path d="M109.143 54.6367L102.356 65.2637C102.361 65.172 102.364 65.0837 102.365 64.9964L109.036 54.5519L109.143 54.6357L109.143 54.6367Z" fill="#280F0B"/>
<path d="M108.631 51.6279L102.348 64.0133C102.34 63.899 102.33 63.7853 102.318 63.6746L108.461 51.5632L108.631 51.6284L108.631 51.6279Z" fill="#280F0B"/>
<path d="M105.701 53.2735L102.118 62.5544C102.099 62.4773 102.078 62.4031 102.058 62.3285L105.557 53.2617L105.702 53.272L105.701 53.2735Z" fill="#280F0B"/>
<path d="M104.241 51.2393L101.605 61.1117C101.563 61.0221 101.519 60.9388 101.475 60.8547L104.033 51.2746L104.241 51.2393Z" fill="#280F0B"/>
<path d="M101.452 53.9688L100.645 59.6266C100.6 59.5725 100.555 59.5238 100.511 59.4761L101.288 54.0331L101.452 53.9678L101.452 53.9688Z" fill="#280F0B"/>
<path d="M105.389 78.7285C106.808 77.8836 107.513 77.9372 108.245 78.0076C105.714 81.9138 102.485 85.2763 98.9768 87.3649C95.4689 89.4536 92.4628 89.896 89.9873 89.1088C90.0892 88.9802 90.1895 88.8517 90.2889 88.7227C91.039 87.7597 91.7457 86.852 93.1867 85.9941C94.6276 85.1361 95.3321 85.2045 96.0764 85.2767C96.8603 85.3519 97.6696 85.4307 99.2791 84.4723C100.889 83.514 101.702 82.4679 102.491 81.4575C103.24 80.4951 103.948 79.5869 105.389 78.729L105.389 78.7285Z" fill="#280F0B"/>
<path d="M108.295 73.7422C108.962 73.8071 109.649 73.8723 110.833 73.2983C110.218 74.6419 109.513 75.9596 108.735 77.2266C108.687 77.2223 108.641 77.2175 108.593 77.2128C107.809 77.1376 106.999 77.0589 105.39 78.0172C103.78 78.9755 102.967 80.0217 102.178 81.032C101.429 81.9944 100.722 82.9026 99.2806 83.7606C97.8396 84.6185 97.1351 84.5502 96.3909 84.4779C95.6069 84.4028 94.7976 84.324 93.1881 85.2823C91.5786 86.2406 90.7648 87.2868 89.9774 88.2966C89.8117 88.5093 89.6486 88.7186 89.4779 88.9264C88.6232 88.5826 87.8562 88.0724 87.1947 87.4061C88.7373 86.4649 89.5341 85.4417 90.3046 84.4528C91.0547 83.4898 91.7615 82.5822 93.2024 81.7242C94.6433 80.8663 95.3479 80.9346 96.0921 81.0069C96.876 81.082 97.6853 81.1608 99.2948 80.2025C100.904 79.2441 101.718 78.198 102.506 77.1877C103.256 76.2252 103.963 75.317 105.404 74.4591C106.845 73.6011 107.55 73.6695 108.294 73.7417L108.295 73.7422Z" fill="#280F0B"/>
<path d="M113.671 61.488L113.67 61.6309C113.657 65.0687 112.764 68.795 111.241 72.374C109.971 73.0758 109.307 73.0119 108.609 72.9434C107.825 72.8683 107.016 72.7895 105.407 73.7478C103.797 74.7061 102.983 75.7523 102.195 76.7626C101.446 77.7251 100.738 78.6332 99.2972 79.4912C97.8562 80.3491 97.1517 80.2808 96.4074 80.2085C95.6235 80.1334 94.8142 80.0546 93.2047 81.013C91.5952 81.9713 90.7814 83.0174 89.9939 84.0272C89.2439 84.9902 88.5371 85.8979 87.0962 86.7558C86.981 86.8244 86.8708 86.887 86.7658 86.9427C85.2662 85.1633 84.3997 82.4876 84.4135 79.0508L84.4141 78.9078L93.5866 73.4464C93.4956 73.594 93.4088 73.7401 93.322 73.8882C91.4704 77.0561 90.7101 80.1525 90.6722 80.3128L90.5055 81.0091L91.0327 80.8269C91.0683 80.8146 91.9044 80.5253 93.1064 79.8096C94.3085 79.0939 96.1307 77.7817 97.7437 75.7433C98.1191 75.268 98.4837 74.7559 98.8307 74.2119C98.8341 74.2069 98.8384 74.2015 98.8409 74.196C98.9013 74.103 98.9591 74.0105 99.0178 73.9146C99.0212 73.9096 99.0238 73.9052 99.028 73.8967C99.0314 73.8987 99.034 73.9001 99.0382 73.9025C99.0964 73.9278 99.1554 73.9517 99.2154 73.9731C99.2187 73.975 99.2213 73.9764 99.2255 73.9769C99.5706 74.1077 99.9328 74.1901 100.304 74.2191C101.908 74.3408 103.706 73.4982 104.932 72.7684C106.158 72.0386 106.973 71.3448 107.008 71.3153L107.536 70.8689L107.373 70.3689C107.336 70.2535 106.6 68.0478 104.763 67.076C104.678 67.0303 104.591 66.9876 104.501 66.9479L113.672 61.4875L113.671 61.488Z" fill="#280F0B"/>
<path d="M101.132 67.0641C100.482 67.2612 99.7881 67.5624 99.0631 67.9626L99.0495 67.9706L99.0359 67.9787C98.4335 68.3639 97.8496 68.7933 97.2941 69.2607C97.2148 68.8102 97.1761 68.3415 97.1781 67.8624C97.1895 65.0112 98.6353 61.6846 99.2523 60.3946C99.861 60.9547 101.287 62.5715 101.276 65.4227C101.274 65.9314 101.226 66.4821 101.133 67.0636L101.132 67.0641Z" fill="#280F0B"/>
<path d="M99.0303 72.4988C98.8103 72.3495 98.5989 72.1744 98.3994 71.9745C97.981 71.3778 97.6659 70.7127 97.46 69.9923C97.9646 69.569 98.496 69.1788 99.045 68.8263C99.693 68.4701 100.313 68.1985 100.893 68.0171C100.605 68.9556 100.003 70.6939 99.0303 72.4988Z" fill="#280F0B"/>
<path d="M104.938 71.7717C103.817 72.439 102.178 73.2114 100.738 73.1007C100.343 73.0706 99.9594 72.9733 99.5983 72.8115C99.584 72.8053 99.5696 72.7981 99.5553 72.7919C100.644 70.7843 101.295 68.8861 101.609 67.8344C102.034 67.7518 102.436 67.7237 102.804 67.7517C104.92 67.9138 106.03 69.9301 106.407 70.7837C106.07 71.0377 105.553 71.4055 104.938 71.7717Z" fill="#280F0B"/>
<path d="M93.1088 78.8125C92.4938 79.1787 91.9773 79.4262 91.6403 79.5737C92.0267 78.2667 93.1591 74.9143 95.2868 72.2252C95.7327 71.6617 96.2242 71.1251 96.7493 70.6286C96.9726 71.4201 97.317 72.1484 97.7741 72.7969L97.7834 72.811L97.7943 72.8222C98.0191 73.0484 98.2591 73.2467 98.5086 73.4139C98.13 74.0367 97.7314 74.6134 97.3177 75.136C95.8695 76.9671 94.2295 78.1462 93.1079 78.814L93.1088 78.8125Z" fill="#280F0B"/>
<path d="M100.157 50.5269C99.582 50.8694 99.113 51.6905 99.1103 52.36C99.113 51.6905 98.6485 51.4252 98.0733 51.7677C98.6485 51.4252 99.1174 50.6041 99.1201 49.9347C99.1174 50.6041 99.582 50.8694 100.157 50.5269Z" fill="#280F0B"/>
</g>
<defs>
<filter id="filter0_d_1185_672" x="77.5141" y="42.0347" width="43.0578" height="53.3394" filterUnits="userSpaceOnUse" color-interpolation-filters="sRGB">
<feFlood flood-opacity="0" result="BackgroundImageFix"/>
<feColorMatrix in="SourceAlpha" type="matrix" values="0 0 0 0 0 0 0 0 0 0 0 0 0 0 0 0 0 0 127 0" result="hardAlpha"/>
<feOffset dy="-1"/>
<feGaussianBlur stdDeviation="3.45"/>
<feComposite in2="hardAlpha" operator="out"/>
<feColorMatrix type="matrix" values="0 0 0 0 0 0 0 0 0 0 0 0 0 0 0 0 0 0 0.1 0"/>
<feBlend mode="normal" in2="BackgroundImageFix" result="effect1_dropShadow_1185_672"/>
<feBlend mode="normal" in="SourceGraphic" in2="effect1_dropShadow_1185_672" result="shape"/>
</filter>
</defs>
</svg>
