<svg width="24" height="24" viewBox="0 0 24 24" fill="none" xmlns="http://www.w3.org/2000/svg">
<path d="M7.54297 0.516846L9.04297 1.51685L13.043 6.51685M7.54297 0.516846L4.04297 2.51685L2.54297 6.51685L2.04297 10.5168L0.542969 12.5168L1.54297 16.5168M7.54297 0.516846L11.543 1.01685L15.043 5.01685L19.543 10.5168L23.0295 18.9842C23.0333 18.9935 23.0225 19.002 23.0144 18.9961L17.543 15.0168M13.043 6.51685L17.543 15.0168M13.043 6.51685L15.543 11.2391L12.043 8.51685L8.54297 9.01685L1.54297 16.5168M17.543 15.0168L14.043 17.5168L12.043 20.5168L6.54297 22.5168L4.54297 21.0168L4.04297 20.0168L1.54297 16.5168" stroke="#3F3F3F"/>
</svg>
