<svg width="22" height="26" viewBox="0 0 22 26" fill="none" xmlns="http://www.w3.org/2000/svg">
<path d="M1.43404 14.348C1.99518 14.3131 4.92053 15.1707 8.51654 12.8291C12.1125 10.4875 17.7063 9.27685 20.5335 9.32912M1.43404 14.348C1.7228 15.1634 2.07216 16.0008 2.49023 16.854M1.43404 14.348C1.30358 13.9796 0.765243 11.8391 0.765243 11.8391M20.5335 9.32912C20.5062 9.83322 20.5222 9.58961 20.4703 10.1665C20.4352 10.5568 20.0727 11.9529 20.0168 12.3291M20.5335 9.32912C20.5609 8.82428 20.5311 6.97011 20.5333 6.53329M2.49023 16.854C2.78593 17.4575 3.116 18.069 3.4833 18.6862C3.72563 19.0934 3.96556 19.4763 4.20276 19.8361C4.44849 20.2088 4.69129 20.5568 4.93081 20.8814C8.32988 25.4885 11.0669 25.3946 12.1075 24.6447C13.7376 23.6416 16.6673 20.6801 18.5887 16.854C18.8453 16.343 18.93 16.2646 19.1514 15.7069C19.681 14.3736 19.78 13.9209 20.0168 12.3291M2.49023 16.854C3.64012 16.8201 7.50591 17.4634 10.5165 14.8291C13.5272 12.1948 18.5168 12.3291 20.0168 12.3291M0.643721 8.32912C0.596771 6.66795 0.643805 5.54342 0.721832 4.78571C0.829049 3.74453 1.40812 2.8224 2.3503 2.3665C3.91959 1.60715 6.8464 0.852271 11.1667 1.07195C17.5677 1.39744 20.3018 -1.52621 20.4703 4.32919M0.643721 8.32912C0.643721 8.32912 2.51259 7.2051 6.01654 6.32912C10.0165 5.32912 17.1603 4.50341 20.4703 4.32919M0.643721 8.32912C0.727145 8.6744 0.625 11.3291 0.765243 11.8391M20.4703 4.32919C20.4766 4.5464 20.5345 6.29738 20.5333 6.53329M0.765243 11.8391C1.30533 10.931 6.00591 9.12359 9.01654 8.32912C12.7798 7.33603 13.6406 7.21277 20.5333 6.53329" stroke="#3F3F3F" stroke-width="1.25"/>
</svg>
