<svg width="21" height="21" viewBox="0 0 21 21" fill="none" xmlns="http://www.w3.org/2000/svg">
<path d="M20 10.5C20 9.19894 19.7383 7.96015 19.2656 6.83203L15.4873 9.63867L13.9033 14.5137L16.6572 17.7324C18.7028 15.9892 20 13.3968 20 10.5ZM5.14551 18.3467C6.67019 19.3892 8.51291 20 10.5 20C12.4903 20 14.3352 19.3865 15.8613 18.3408L13.1123 15.126H8.00195L5.14551 18.3467ZM6.64355 9.52344L8.13965 14.126H12.9785L14.4736 9.52344L10.5586 6.67969L6.64355 9.52344ZM10.0049 1.01367C6.63245 1.18683 3.72467 3.11808 2.18066 5.91113L6.05664 8.71484L10.0566 5.80859L10.0049 1.01367ZM11.0566 5.80469L15.0576 8.71191L18.8213 5.91602C17.2794 3.12321 14.375 1.19114 11.0049 1.01465L11.0566 5.80469ZM1 10.5C1 13.3995 2.29971 15.9941 4.34863 17.7373L7.21191 14.5078L5.63184 9.64258L1.7373 6.82422C1.26262 7.9544 1 9.19599 1 10.5ZM21 10.5C21 13.8907 19.392 16.9063 16.8994 18.8252C15.1279 20.1889 12.9079 21 10.5 21C8.09206 21 5.87213 20.1889 4.10059 18.8252C1.60796 16.9063 0 13.8907 0 10.5C0 8.82736 0.391117 7.24455 1.08789 5.83984C2.80412 2.37997 6.37385 0 10.5 0C14.6262 0 18.1959 2.37997 19.9121 5.83984C20.6089 7.24455 21 8.82736 21 10.5Z" fill="#3F3F3F"/>
</svg>
