<svg width="24" height="24" viewBox="0 0 24 24" fill="none" xmlns="http://www.w3.org/2000/svg">
<path d="M6.17496 7.21123L16.8272 21.9611C18.1065 21.6668 19.0003 21.3702 19.9803 20.6884C19.8808 20.7436 19.7518 20.4111 18.8724 18.7323C17.935 16.9427 12.8504 8.14113 10.1376 3.99188C8.93064 4.97925 7.56319 6.08918 6.17496 7.21123Z" fill="#3F3F3F"/>
<path d="M6.17496 7.21123C5.02247 8.14274 3.85565 9.08261 2.75443 9.96764C0.45772 11.8135 -0.151783 15.2116 1.78495 17.4322C2.62922 18.4003 3.59382 19.3469 4.67578 20.1248C6.95739 21.7651 9.84925 22.4851 12.5237 22.4392C14.2467 22.4097 15.3785 22.2943 16.8272 21.9611M6.17496 7.21123L16.8272 21.9611M6.17496 7.21123C7.56319 6.08918 8.93064 4.97925 10.1376 3.99188M16.8272 21.9611C18.1065 21.6668 19.0003 21.3702 19.9803 20.6884M10.1376 3.99188C11.4793 2.89428 12.6227 1.94815 13.3759 1.30519C16.8698 -1.67743 22.0255 5.77531 22.5794 11.4461C22.7196 12.8818 22.7721 13.9652 22.7656 14.81C22.7483 17.0422 21.8127 19.4137 19.9803 20.6884M10.1376 3.99188C12.8504 8.14113 17.935 16.9427 18.8724 18.7323C19.7518 20.4111 19.8808 20.7436 19.9803 20.6884" stroke="#3F3F3F" stroke-width="1.25"/>
</svg>
