<svg width="24" height="24" viewBox="0 0 24 24" fill="none" xmlns="http://www.w3.org/2000/svg">
<path d="M17 7H20L23 11.056V17H20.965C20.8446 17.8331 20.4281 18.5949 19.7917 19.1459C19.1553 19.6969 18.3418 20.0002 17.5 20.0002C16.6582 20.0002 15.8447 19.6969 15.2083 19.1459C14.5719 18.5949 14.1554 17.8331 14.035 17H8.965C8.84612 17.8343 8.43021 18.5977 7.79368 19.1499C7.15714 19.7022 6.34272 20.0063 5.5 20.0063C4.65728 20.0063 3.84286 19.7022 3.20632 19.1499C2.56979 18.5977 2.15388 17.8343 2.035 17H1V5C1 4.73478 1.10536 4.48043 1.29289 4.29289C1.48043 4.10536 1.73478 4 2 4H16C16.2652 4 16.5196 4.10536 16.7071 4.29289C16.8946 4.48043 17 4.73478 17 5V7ZM17 9V12H21V11.715L18.992 9H17Z" fill="#280F0B"/>
</svg>
