<svg width="26" height="19" viewBox="0 0 26 19" fill="none" xmlns="http://www.w3.org/2000/svg">
<g filter="url(#filter0_n_1615_2301)">
<path d="M7.092 16.842C2.08951 15.4611 0.643472 10.6215 0.643473 9.64442C0.578334 8.73252 0.480631 4.75918 4.29113 2.80508C8.39473 0.590433 10.9676 0.395023 15.4946 0.785843C19.1162 1.0985 22.258 3.89069 23.3762 5.2477C23.8538 6.06191 25.2651 7.52749 24.2881 11.1751C23.311 14.8228 19.012 16.6791 16.602 17.3631C15.4621 17.7931 12.0945 18.2229 7.092 16.842Z" fill="#F6D8AB"/>
</g>
<path d="M7.092 16.842C2.08951 15.4611 0.643472 10.6215 0.643473 9.64442C0.578334 8.73252 0.480631 4.75918 4.29113 2.80508C8.39473 0.590433 10.9676 0.395023 15.4946 0.785843C19.1162 1.0985 22.258 3.89069 23.3762 5.2477C23.8538 6.06191 25.2651 7.52749 24.2881 11.1751C23.311 14.8228 19.012 16.6791 16.602 17.3631C15.4621 17.7931 12.0945 18.2229 7.092 16.842Z" stroke="#3F3F3F" stroke-width="1.25"/>
<defs>
<filter id="filter0_n_1615_2301" x="0.625" y="0.624969" width="24" height="17.1571" filterUnits="userSpaceOnUse" color-interpolation-filters="sRGB">
<feFlood flood-opacity="0" result="BackgroundImageFix"/>
<feBlend mode="normal" in="SourceGraphic" in2="BackgroundImageFix" result="shape"/>
<feTurbulence type="fractalNoise" baseFrequency="0.71428573131561279 0.71428573131561279" stitchTiles="stitch" numOctaves="3" result="noise" seed="8843" />
<feComponentTransfer in="noise" result="coloredNoise1">
<feFuncR type="linear" slope="2" intercept="-0.5" />
<feFuncG type="linear" slope="2" intercept="-0.5" />
<feFuncB type="linear" slope="2" intercept="-0.5" />
<feFuncA type="discrete" tableValues="1 1 1 1 1 1 1 1 1 1 1 1 1 1 1 1 1 1 1 1 1 1 1 1 1 1 1 1 1 1 1 1 1 1 1 1 1 1 1 1 1 1 1 1 1 1 1 1 1 1 1 0 0 0 0 0 0 0 0 0 0 0 0 0 0 0 0 0 0 0 0 0 0 0 0 0 0 0 0 0 0 0 0 0 0 0 0 0 0 0 0 0 0 0 0 0 0 0 0 0 "/>
</feComponentTransfer>
<feComposite operator="in" in2="shape" in="coloredNoise1" result="noise1Clipped" />
<feComponentTransfer in="noise1Clipped" result="color1">
<feFuncA type="table" tableValues="0 0.4" />
</feComponentTransfer>
<feMerge result="effect1_noise_1615_2301">
<feMergeNode in="shape" />
<feMergeNode in="color1" />
</feMerge>
</filter>
</defs>
</svg>
