<svg width="28" height="24" viewBox="0 0 28 24" fill="none" xmlns="http://www.w3.org/2000/svg">
<mask id="path-1-inside-1_1395_890" fill="white">
<path d="M7.30664 0.0138245C7.48946 -0.0187002 7.6784 0.00660745 7.84668 0.0851135L11.5293 1.80289C11.6014 1.91457 12.1041 2.66422 12.6016 2.66422C12.9271 2.66423 13.3044 2.70165 13.5518 2.61148C13.6049 2.60665 13.6579 2.59653 13.71 2.58218L15.9072 1.97574C15.9285 2.00235 15.9517 2.02861 15.9775 2.05386L16.0537 2.12125C16.2431 2.26983 16.4753 2.32962 16.6768 2.35074C16.8852 2.37256 17.1062 2.35737 17.3135 2.31851C17.5211 2.27954 17.731 2.21415 17.917 2.12418C18.0969 2.03706 18.2867 1.91207 18.4209 1.73746C18.5385 1.58423 18.5925 1.39976 18.6172 1.22867L22.4902 0.162262C22.9072 0.0473286 23.3473 0.244346 23.5391 0.631989L25.4717 4.53922C25.4116 4.56854 25.3526 4.60271 25.2979 4.64566L25.2217 4.71304C24.8671 5.05924 24.9555 5.54688 25.0537 5.82828C25.1694 6.15957 25.3813 6.48042 25.5449 6.69351C25.6064 6.77362 25.671 6.87453 25.7549 7.00406C25.8322 7.12355 25.9264 7.26809 26.0293 7.39175C26.1258 7.50757 26.273 7.65941 26.4727 7.7355C26.5407 7.76141 26.6099 7.77451 26.6787 7.77945L27.5957 10.5597C27.6457 10.7112 27.6541 10.8734 27.6211 11.0294L27.5283 11.464C27.4988 11.4778 27.4692 11.4921 27.4404 11.5089C27.1707 11.6671 26.9828 11.9357 26.8516 12.1828C26.7199 12.4308 26.5507 12.8384 26.4727 13.2316C26.4341 13.4261 26.4107 13.6513 26.4463 13.8644C26.4785 14.0566 26.568 14.2799 26.7725 14.4318L26.8672 14.4923L26.8848 14.5002L26.332 17.1076C26.0535 17.1085 25.8354 17.2414 25.6943 17.4328C25.5696 17.6022 25.513 17.8041 25.4834 17.9689C25.4247 18.2961 25.4385 18.6927 25.4385 18.9123C25.4386 19.2469 25.5611 19.5539 25.7627 19.7912L25.2744 22.0978C25.1848 22.0788 25.0916 22.0695 24.9961 22.0695C24.3114 22.0695 23.7531 22.5833 23.665 23.2414L11.6133 21.5949C11.6064 20.8272 11.2756 20.2031 10.7021 19.8068C10.1713 19.4401 9.51857 19.3253 8.92676 19.3253C8.33494 19.3254 7.68214 19.4401 7.15137 19.8068C7.0298 19.8908 6.91936 19.9853 6.82031 20.089L2.5127 17.2902C2.33137 17.1724 2.19811 16.9929 2.1377 16.7853L0.938477 12.6642C1.19074 12.4175 1.34764 12.0732 1.34766 11.6935C1.34758 11.0413 0.88721 10.4909 0.269531 10.3664L0.0361328 9.56168C0.0123354 9.47989 3.63901e-05 9.3949 0 9.30972V2.07339C0 1.63621 0.313745 1.26149 0.744141 1.18472L0.805664 1.173C0.926332 1.25641 1.07229 1.33216 1.2207 1.39273C1.51875 1.51433 1.92184 1.62044 2.26758 1.59293C2.58248 1.56773 2.95571 1.44908 3.24316 1.31558C3.38802 1.24829 3.53423 1.16599 3.65137 1.07339C3.70922 1.02764 3.77628 0.966635 3.83105 0.889801C3.87161 0.832859 3.92364 0.737335 3.93848 0.61441L7.30664 0.0138245ZM26.2354 6.91422C26.2302 6.90671 26.2248 6.89933 26.2197 6.89175L26.1309 6.75601C26.1653 6.80927 26.2001 6.86268 26.2354 6.91422ZM25.7832 6.25406L25.8994 6.41519C25.8616 6.36593 25.8217 6.31188 25.7822 6.25406L25.666 6.07144C25.7037 6.13502 25.7436 6.19621 25.7832 6.25406Z"/>
</mask>
<path d="M7.30664 0.0138245L7.10909 -1.09658L7.10866 -1.0965L7.30664 0.0138245ZM7.84668 0.0851135L7.36986 1.1072L7.36991 1.10722L7.84668 0.0851135ZM11.5293 1.80289L12.4768 1.19108L12.3005 0.918128L12.0061 0.780778L11.5293 1.80289ZM12.6016 2.66422L12.6016 1.53638H12.6016V2.66422ZM13.5518 2.61148L13.4496 1.48828L13.3034 1.50158L13.1655 1.55184L13.5518 2.61148ZM13.71 2.58218L14.0097 3.66946L14.01 3.66937L13.71 2.58218ZM15.9072 1.97574L16.7877 1.27096L16.3234 0.690865L15.6072 0.888551L15.9072 1.97574ZM15.9775 2.05386L15.1893 2.86056L15.2093 2.88009L15.2303 2.89861L15.9775 2.05386ZM16.0537 2.12125L15.3064 2.96599L15.3314 2.98807L15.3576 3.00863L16.0537 2.12125ZM16.6768 2.35074L16.5592 3.47243L16.5593 3.47244L16.6768 2.35074ZM17.3135 2.31851L17.5213 3.42704L17.5215 3.42699L17.3135 2.31851ZM17.917 2.12418L18.4081 3.13949L18.4084 3.13931L17.917 2.12418ZM18.4209 1.73746L19.3152 2.42464L19.3157 2.42395L18.4209 1.73746ZM18.6172 1.22867L18.3178 0.141297L17.6062 0.337227L17.5009 1.06775L18.6172 1.22867ZM22.4902 0.162262L22.7896 1.24963L22.79 1.24954L22.4902 0.162262ZM23.5391 0.631989L24.55 0.131955L24.55 0.131926L23.5391 0.631989ZM25.4717 4.53922L25.9662 5.55288L26.9854 5.05568L26.4826 4.03918L25.4717 4.53922ZM25.2979 4.64566L24.6018 3.75825L24.5755 3.77883L24.5506 3.80091L25.2979 4.64566ZM25.2217 4.71304L24.4744 3.8683L24.4536 3.88668L24.4338 3.90607L25.2217 4.71304ZM25.0537 5.82828L23.9888 6.19979L23.9889 6.20007L25.0537 5.82828ZM25.5449 6.69351L26.4397 6.00688L26.4395 6.00666L25.5449 6.69351ZM25.7549 7.00406L24.8081 7.61689L24.8081 7.6169L25.7549 7.00406ZM26.0293 7.39175L25.1624 8.11327L25.1627 8.11354L26.0293 7.39175ZM26.4727 7.7355L26.071 8.78939L26.0715 8.78958L26.4727 7.7355ZM26.6787 7.77945L27.7498 7.42618L27.5131 6.70864L26.7595 6.65451L26.6787 7.77945ZM27.5957 10.5597L28.6668 10.2065L28.6668 10.2065L27.5957 10.5597ZM27.6211 11.0294L28.7241 11.2649L28.7245 11.2631L27.6211 11.0294ZM27.5283 11.464L28.0038 12.4867L28.5139 12.2496L28.6313 11.6995L27.5283 11.464ZM27.4404 11.5089L26.8705 10.5357L26.8699 10.5361L27.4404 11.5089ZM26.8516 12.1828L25.8555 11.6537L25.8554 11.6539L26.8516 12.1828ZM26.4727 13.2316L25.3664 13.012L25.3664 13.0122L26.4727 13.2316ZM26.4463 13.8644L25.3339 14.0502L25.334 14.0509L26.4463 13.8644ZM26.7725 14.4318L26.0998 15.3371L26.1316 15.3607L26.1651 15.3821L26.7725 14.4318ZM26.8672 14.4923L26.2598 15.4426L26.3314 15.4884L26.4091 15.523L26.8672 14.4923ZM26.8848 14.5002L27.9881 14.734L28.1775 13.8405L27.3428 13.4695L26.8848 14.5002ZM26.332 17.1076L26.3358 18.2354L27.2465 18.2323L27.4354 17.3415L26.332 17.1076ZM25.6943 17.4328L24.7865 16.7636L24.7861 16.7641L25.6943 17.4328ZM25.4834 17.9689L24.3734 17.7693L24.3733 17.7696L25.4834 17.9689ZM25.4385 18.9123H24.3106V18.9127L25.4385 18.9123ZM25.7627 19.7912L26.8661 20.0247L26.9808 19.4829L26.6222 19.0609L25.7627 19.7912ZM25.2744 22.0978L25.0407 23.2012L26.1442 23.4349L26.3778 22.3314L25.2744 22.0978ZM24.9961 22.0695L24.9963 20.9417H24.996L24.9961 22.0695ZM23.665 23.2414L23.5124 24.3588L24.633 24.5119L24.7829 23.3909L23.665 23.2414ZM11.6133 21.5949L10.4855 21.605L10.4942 22.5803L11.4606 22.7123L11.6133 21.5949ZM10.7021 19.8068L11.3433 18.8789L11.3432 18.8788L10.7021 19.8068ZM8.92676 19.3253V18.1975H8.92671L8.92676 19.3253ZM7.15137 19.8068L6.51027 18.8789L6.51014 18.879L7.15137 19.8068ZM6.82031 20.089L6.20583 21.0348L6.98998 21.5443L7.63589 20.868L6.82031 20.089ZM2.5127 17.2902L1.89818 18.2359L1.89821 18.2359L2.5127 17.2902ZM2.1377 16.7853L3.22062 16.4702L3.22061 16.4702L2.1377 16.7853ZM0.938477 12.6642L0.149865 11.8579L-0.333263 12.3305L-0.144442 12.9793L0.938477 12.6642ZM1.34766 11.6935L2.47549 11.6936V11.6934L1.34766 11.6935ZM0.269531 10.3664L-0.813662 10.6805L-0.623306 11.3368L0.0465443 11.4719L0.269531 10.3664ZM0.0361328 9.56168L1.11933 9.2475L1.11906 9.24657L0.0361328 9.56168ZM0 9.30972H-1.12784L-1.12784 9.3102L0 9.30972ZM0.744141 1.18472L0.942205 2.29511L0.955172 2.29264L0.744141 1.18472ZM0.805664 1.173L1.44696 0.245234L1.05851 -0.0232703L0.594632 0.0650869L0.805664 1.173ZM1.2207 1.39273L0.794535 2.43695L0.794639 2.43699L1.2207 1.39273ZM2.26758 1.59293L2.35705 2.71721L2.35752 2.71717L2.26758 1.59293ZM3.24316 1.31558L3.7182 2.3385L3.71833 2.33844L3.24316 1.31558ZM3.65137 1.07339L4.35079 1.95817L4.35097 1.95803L3.65137 1.07339ZM3.83105 0.889801L4.74944 1.54447L4.7497 1.5441L3.83105 0.889801ZM3.93848 0.61441L3.74049 -0.495913L2.91875 -0.349387L2.81876 0.479301L3.93848 0.61441ZM26.2354 6.91422L25.3049 7.55167L27.166 6.27705L26.2354 6.91422ZM26.2197 6.89175L25.2761 7.50951L25.2807 7.51658L25.2855 7.52358L26.2197 6.89175ZM26.1309 6.75601L27.0745 6.13826L25.1841 7.36887L26.1309 6.75601ZM25.7832 6.25406L24.8523 6.89082L24.8602 6.90241L24.8685 6.91379L25.7832 6.25406ZM25.8994 6.41519L25.0048 7.102L26.8142 5.75546L25.8994 6.41519ZM25.7822 6.25406L24.8307 6.85957L24.8406 6.87517L24.8511 6.89044L25.7822 6.25406ZM25.666 6.07144L26.6175 5.46593L24.6959 6.64665L25.666 6.07144ZM7.30664 0.0138245L7.50419 1.12422C7.45613 1.13278 7.40974 1.12581 7.36986 1.1072L7.84668 0.0851135L8.3235 -0.936971C7.94705 -1.11259 7.52279 -1.17018 7.10909 -1.09658L7.30664 0.0138245ZM7.84668 0.0851135L7.36991 1.10722L11.0525 2.825L11.5293 1.80289L12.0061 0.780778L8.32345 -0.936996L7.84668 0.0851135ZM11.5293 1.80289L10.5818 2.41469C10.6346 2.4965 10.8258 2.78391 11.0994 3.06386C11.2366 3.20417 11.4217 3.37096 11.6475 3.50848C11.8678 3.64272 12.1974 3.79205 12.6016 3.79205V2.66422V1.53638C12.757 1.53638 12.8372 1.592 12.8211 1.5822C12.8104 1.57567 12.7721 1.54806 12.7124 1.487C12.6563 1.42963 12.6022 1.36426 12.5568 1.3042C12.5123 1.24537 12.4834 1.20136 12.4768 1.19108L11.5293 1.80289ZM12.6016 2.66422L12.6015 3.79205C12.6656 3.79205 12.7334 3.7939 12.8247 3.79615C12.9092 3.79824 13.0132 3.80065 13.119 3.79943C13.3063 3.79727 13.6245 3.78538 13.938 3.67113L13.5518 2.61148L13.1655 1.55184C13.2094 1.53585 13.2295 1.53563 13.2082 1.53821C13.1889 1.54057 13.153 1.54321 13.093 1.54391C13.0328 1.5446 12.966 1.54329 12.8804 1.54117C12.8017 1.53922 12.7003 1.53638 12.6016 1.53638L12.6016 2.66422ZM13.5518 2.61148L13.6539 3.73468C13.7806 3.72316 13.8999 3.69973 14.0097 3.66946L13.71 2.58218L13.4102 1.4949C13.416 1.49333 13.4292 1.49014 13.4496 1.48828L13.5518 2.61148ZM13.71 2.58218L14.01 3.66937L16.2073 3.06293L15.9072 1.97574L15.6072 0.888551L13.4099 1.495L13.71 2.58218ZM15.9072 1.97574L15.0267 2.68052C15.0711 2.73598 15.1249 2.79756 15.1893 2.86056L15.9775 2.05386L16.7657 1.24717C16.7785 1.25966 16.7859 1.26872 16.7877 1.27096L15.9072 1.97574ZM15.9775 2.05386L15.2303 2.89861L15.3064 2.96599L16.0537 2.12125L16.801 1.2765L16.7248 1.20912L15.9775 2.05386ZM16.0537 2.12125L15.3576 3.00863C15.7788 3.33902 16.2471 3.43972 16.5592 3.47243L16.6768 2.35074L16.7943 1.22905C16.7762 1.22715 16.7607 1.22471 16.7479 1.22209C16.7351 1.21945 16.7266 1.21696 16.7221 1.21543C16.7124 1.21214 16.726 1.21514 16.7498 1.23386L16.0537 2.12125ZM16.6768 2.35074L16.5593 3.47244C16.8974 3.50784 17.2299 3.48166 17.5213 3.42704L17.3135 2.31851L17.1057 1.20999C16.9825 1.23307 16.873 1.23728 16.7942 1.22903L16.6768 2.35074ZM17.3135 2.31851L17.5215 3.42699C17.8135 3.3722 18.1205 3.2786 18.4081 3.13949L17.917 2.12418L17.4259 1.10887C17.3415 1.14969 17.2288 1.18688 17.1054 1.21003L17.3135 2.31851ZM17.917 2.12418L18.4084 3.13931C18.6734 3.01104 19.0337 2.79095 19.3152 2.42464L18.4209 1.73746L17.5266 1.05027C17.5361 1.03791 17.5364 1.04138 17.5166 1.05601C17.4969 1.07053 17.4668 1.08908 17.4256 1.10904L17.917 2.12418ZM18.4209 1.73746L19.3157 2.42395C19.5954 2.05946 19.694 1.66363 19.7335 1.38959L18.6172 1.22867L17.5009 1.06775C17.4989 1.08147 17.4969 1.09161 17.4952 1.09856C17.4936 1.10552 17.4926 1.10797 17.4931 1.10667C17.4939 1.10435 17.5023 1.08189 17.5261 1.05096L18.4209 1.73746ZM18.6172 1.22867L18.9166 2.31604L22.7896 1.24963L22.4902 0.162262L22.1908 -0.925109L18.3178 0.141297L18.6172 1.22867ZM22.4902 0.162262L22.79 1.24954C22.6861 1.27817 22.5763 1.22933 22.5281 1.13205L23.5391 0.631989L24.55 0.131926C24.1184 -0.740633 23.1282 -1.18351 22.1905 -0.925018L22.4902 0.162262ZM23.5391 0.631989L22.5281 1.13202L24.4607 5.03925L25.4717 4.53922L26.4826 4.03918L24.55 0.131955L23.5391 0.631989ZM25.4717 4.53922L24.9772 3.52555C24.8692 3.57825 24.7368 3.65235 24.6018 3.75825L25.2979 4.64566L25.9939 5.53307C25.9684 5.55308 25.954 5.55882 25.9662 5.55288L25.4717 4.53922ZM25.2979 4.64566L24.5506 3.80091L24.4744 3.8683L25.2217 4.71304L25.969 5.55779L26.0451 5.49041L25.2979 4.64566ZM25.2217 4.71304L24.4338 3.90607C23.569 4.75044 23.8674 5.85179 23.9888 6.19979L25.0537 5.82828L26.1186 5.45676C26.1096 5.43089 26.1024 5.40467 26.0982 5.38146C26.0938 5.35769 26.0945 5.34775 26.0944 5.35086C26.0942 5.35507 26.0923 5.38033 26.0773 5.41737C26.0609 5.45776 26.036 5.49419 26.0096 5.52002L25.2217 4.71304ZM25.0537 5.82828L23.9889 6.20007C24.1617 6.69487 24.455 7.12594 24.6504 7.38036L25.5449 6.69351L26.4395 6.00666C26.3796 5.92869 26.3123 5.83261 26.2515 5.73008C26.1894 5.62539 26.1447 5.53163 26.1185 5.45648L25.0537 5.82828ZM25.5449 6.69351L24.6502 7.38015C24.6772 7.4154 24.7125 7.46916 24.8081 7.61689L25.7549 7.00406L26.7017 6.39122C26.6296 6.27989 26.5356 6.13185 26.4397 6.00688L25.5449 6.69351ZM25.7549 7.00406L24.8081 7.6169C24.8808 7.72928 25.0097 7.92976 25.1624 8.11327L26.0293 7.39175L26.8961 6.67024C26.843 6.60641 26.7836 6.51783 26.7017 6.39122L25.7549 7.00406ZM26.0293 7.39175L25.1627 8.11354C25.2941 8.27131 25.5942 8.60766 26.071 8.78939L26.4727 7.7355L26.8743 6.68161C26.8979 6.69062 26.9147 6.69983 26.9245 6.70589C26.9342 6.71185 26.9383 6.71548 26.9373 6.71456C26.9362 6.71366 26.9318 6.70985 26.9242 6.70195C26.9167 6.6941 26.9075 6.68382 26.8959 6.66997L26.0293 7.39175ZM26.4727 7.7355L26.0715 8.78958C26.2604 8.86148 26.4406 8.89309 26.5979 8.90439L26.6787 7.77945L26.7595 6.65451C26.7793 6.65593 26.8211 6.66134 26.8738 6.68143L26.4727 7.7355ZM26.6787 7.77945L25.6076 8.13272L26.5246 10.913L27.5957 10.5597L28.6668 10.2065L27.7498 7.42618L26.6787 7.77945ZM27.5957 10.5597L26.5246 10.9129C26.5115 10.8731 26.5099 10.8327 26.5177 10.7958L27.6211 11.0294L28.7245 11.2631C28.7984 10.9141 28.7799 10.5493 28.6668 10.2065L27.5957 10.5597ZM27.6211 11.0294L26.5181 10.794L26.4253 11.2286L27.5283 11.464L28.6313 11.6995L28.7241 11.2649L27.6211 11.0294ZM27.5283 11.464L27.0529 10.4413C27.0152 10.4588 26.9465 10.4912 26.8705 10.5357L27.4404 11.5089L28.0104 12.4822C27.9999 12.4883 27.9931 12.4918 27.9921 12.4923C27.9914 12.4926 27.994 12.4913 28.0038 12.4867L27.5283 11.464ZM27.4404 11.5089L26.8699 10.5361C26.3323 10.8513 26.0226 11.3392 25.8555 11.6537L26.8516 12.1828L27.8476 12.7119C27.8896 12.6328 27.9292 12.5726 27.9644 12.5298C27.9995 12.4872 28.0169 12.4784 28.011 12.4818L27.4404 11.5089ZM26.8516 12.1828L25.8554 11.6539C25.6857 11.9736 25.4709 12.4858 25.3664 13.012L26.4727 13.2316L27.5789 13.4512C27.6306 13.191 27.7541 12.888 27.8477 12.7116L26.8516 12.1828ZM26.4727 13.2316L25.3664 13.0122C25.3155 13.2687 25.2663 13.6459 25.3339 14.0502L26.4463 13.8644L27.5587 13.6787C27.5578 13.6733 27.5551 13.6504 27.5576 13.6063C27.5601 13.563 27.5671 13.5109 27.579 13.451L26.4727 13.2316ZM26.4463 13.8644L25.334 14.0509C25.3956 14.4184 25.5839 14.9537 26.0998 15.3371L26.7725 14.4318L27.4452 13.5265C27.496 13.5643 27.5271 13.608 27.5431 13.6384C27.5505 13.6525 27.5544 13.6631 27.5562 13.6688C27.558 13.6745 27.5585 13.6775 27.5586 13.6779L26.4463 13.8644ZM26.7725 14.4318L26.1651 15.3821L26.2598 15.4426L26.8672 14.4923L27.4746 13.542L27.3799 13.4815L26.7725 14.4318ZM26.8672 14.4923L26.4091 15.523L26.4267 15.5308L26.8848 14.5002L27.3428 13.4695L27.3252 13.4617L26.8672 14.4923ZM26.8848 14.5002L25.7814 14.2663L25.2287 16.8737L26.332 17.1076L27.4354 17.3415L27.9881 14.734L26.8848 14.5002ZM26.332 17.1076L26.3282 15.9797C25.6565 15.982 25.1169 16.3153 24.7865 16.7636L25.6943 17.4328L26.6022 18.102C26.5821 18.1292 26.5473 18.1645 26.4939 18.1931C26.4375 18.2233 26.3801 18.2353 26.3358 18.2354L26.332 17.1076ZM25.6943 17.4328L24.7861 16.7641C24.5124 17.1359 24.4155 17.5349 24.3734 17.7693L25.4834 17.9689L26.5934 18.1685C26.6007 18.1283 26.608 18.1021 26.6135 18.0869C26.6191 18.0717 26.6181 18.0803 26.6026 18.1014L25.6943 17.4328ZM25.4834 17.9689L24.3733 17.7696C24.2917 18.2241 24.3106 18.7613 24.3106 18.9123H25.4385H26.5663C26.5663 18.7678 26.5629 18.6589 26.5664 18.5071C26.5698 18.3633 26.5791 18.2486 26.5935 18.1682L25.4834 17.9689ZM25.4385 18.9123L24.3106 18.9127C24.3109 19.5273 24.5368 20.0901 24.9032 20.5214L25.7627 19.7912L26.6222 19.0609C26.5854 19.0176 26.5663 18.9666 26.5663 18.9119L25.4385 18.9123ZM25.7627 19.7912L24.6593 19.5576L24.171 21.8642L25.2744 22.0978L26.3778 22.3314L26.8661 20.0247L25.7627 19.7912ZM25.2744 22.0978L25.5082 20.9945C25.3366 20.9581 25.1648 20.9417 24.9963 20.9417L24.9961 22.0695L24.9958 23.1973C25.0183 23.1973 25.0329 23.1995 25.0407 23.2012L25.2744 22.0978ZM24.9961 22.0695L24.996 20.9417C23.7273 20.9417 22.7076 21.8926 22.5472 23.0918L23.665 23.2414L24.7829 23.3909C24.7986 23.2739 24.8955 23.1973 24.9961 23.1973L24.9961 22.0695ZM23.665 23.2414L23.8177 22.1239L11.7659 20.4774L11.6133 21.5949L11.4606 22.7123L23.5124 24.3588L23.665 23.2414ZM11.6133 21.5949L12.7411 21.5848C12.7311 20.471 12.2353 19.4953 11.3433 18.8789L10.7021 19.8068L10.061 20.7347C10.316 20.9109 10.4817 21.1834 10.4855 21.605L11.6133 21.5949ZM10.7021 19.8068L11.3432 18.8788C10.5522 18.3324 9.64126 18.1975 8.92676 18.1975V19.3253V20.4532C9.39587 20.4532 9.79052 20.5478 10.0611 20.7348L10.7021 19.8068ZM8.92676 19.3253L8.92671 18.1975C8.21237 18.1975 7.30134 18.3323 6.51027 18.8789L7.15137 19.8068L7.79246 20.7347C8.06295 20.5478 8.45752 20.4532 8.92681 20.4532L8.92676 19.3253ZM7.15137 19.8068L6.51014 18.879C6.32569 19.0065 6.15681 19.1508 6.00473 19.31L6.82031 20.089L7.63589 20.868C7.68191 20.8198 7.73391 20.7752 7.79259 20.7346L7.15137 19.8068ZM6.82031 20.089L7.4348 19.1433L3.12718 16.3445L2.5127 17.2902L1.89821 18.2359L6.20583 21.0348L6.82031 20.089ZM2.5127 17.2902L3.12722 16.3445C3.17259 16.374 3.20553 16.4183 3.22062 16.4702L2.1377 16.7853L1.05477 17.1004C1.1907 17.5675 1.49015 17.9708 1.89818 18.2359L2.5127 17.2902ZM2.1377 16.7853L3.22061 16.4702L2.02139 12.3491L0.938477 12.6642L-0.144442 12.9793L1.05478 17.1004L2.1377 16.7853ZM0.938477 12.6642L1.72709 13.4705C2.18658 13.0211 2.47546 12.39 2.47549 11.6936L1.34766 11.6935L0.21982 11.6935C0.219816 11.7564 0.194903 11.8139 0.149865 11.8579L0.938477 12.6642ZM1.34766 11.6935L2.47549 11.6934C2.47535 10.5033 1.63548 9.49132 0.492518 9.26079L0.269531 10.3664L0.0465443 11.4719C0.138943 11.4906 0.219806 11.5794 0.21982 11.6937L1.34766 11.6935ZM0.269531 10.3664L1.35272 10.0522L1.11933 9.2475L0.0361328 9.56168L-1.04706 9.87585L-0.813662 10.6805L0.269531 10.3664ZM0.0361328 9.56168L1.11906 9.24657C1.12459 9.2656 1.12783 9.28648 1.12784 9.30924L0 9.30972L-1.12784 9.3102C-1.12775 9.50331 -1.09992 9.69418 -1.04679 9.87678L0.0361328 9.56168ZM0 9.30972H1.12784V2.07339H0H-1.12784V9.30972H0ZM0 2.07339H1.12784C1.12784 2.18262 1.04987 2.27583 0.942192 2.29503L0.744141 1.18472L0.546089 0.0744118C-0.422377 0.247162 -1.12784 1.08979 -1.12784 2.07339H0ZM0.744141 1.18472L0.955172 2.29264L1.0167 2.28092L0.805664 1.173L0.594632 0.0650869L0.533109 0.0768056L0.744141 1.18472ZM0.805664 1.173L0.164371 2.10077C0.365726 2.23996 0.587158 2.35232 0.794535 2.43695L1.2207 1.39273L1.64687 0.348511C1.55742 0.312002 1.48694 0.272868 1.44696 0.245234L0.805664 1.173ZM1.2207 1.39273L0.794639 2.43699C1.16954 2.58996 1.76162 2.76459 2.35705 2.71721L2.26758 1.59293L2.17811 0.468644C2.14527 0.471257 2.07154 0.468962 1.95936 0.445264C1.85173 0.422528 1.74106 0.386941 1.64677 0.348468L1.2207 1.39273ZM2.26758 1.59293L2.35752 2.71717C2.84544 2.67814 3.35166 2.50872 3.7182 2.3385L3.24316 1.31558L2.76812 0.292669C2.55975 0.389436 2.31953 0.45733 2.17764 0.468682L2.26758 1.59293ZM3.24316 1.31558L3.71833 2.33844C3.90942 2.24967 4.14049 2.12441 4.35079 1.95817L3.65137 1.07339L2.95194 0.188623C2.92797 0.207577 2.86663 0.246906 2.768 0.292727L3.24316 1.31558ZM3.65137 1.07339L4.35097 1.95803C4.45373 1.87676 4.60978 1.74038 4.74944 1.54447L3.83105 0.889801L2.91267 0.235136C2.92918 0.211973 2.94263 0.197957 2.94836 0.19227C2.95423 0.186454 2.95621 0.185251 2.95177 0.188763L3.65137 1.07339ZM3.83105 0.889801L4.7497 1.5441C4.86439 1.38308 5.01448 1.11181 5.05819 0.74952L3.93848 0.61441L2.81876 0.479301C2.83281 0.362861 2.87884 0.282641 2.91241 0.235502L3.83105 0.889801ZM3.93848 0.61441L4.13646 1.72473L7.50463 1.12415L7.30664 0.0138245L7.10866 -1.0965L3.74049 -0.495913L3.93848 0.61441ZM26.2354 6.91422L27.1658 6.27676C27.1616 6.27074 27.158 6.26558 27.1555 6.26195C27.1532 6.2587 27.1507 6.25516 27.1501 6.25425C27.149 6.25265 27.1491 6.25284 27.1496 6.25357C27.1502 6.25443 27.1518 6.25671 27.154 6.25993L26.2197 6.89175L25.2855 7.52358C25.2944 7.53679 25.3024 7.54806 25.305 7.55177C25.306 7.55331 25.3061 7.55344 25.3068 7.55439C25.307 7.55469 25.3072 7.5549 25.3073 7.55505C25.3073 7.55512 25.3074 7.55517 25.3074 7.55521C25.3074 7.55524 25.3074 7.55526 25.3074 7.55526C25.3074 7.55526 25.3074 7.55517 25.3073 7.55503C25.3072 7.55488 25.307 7.55465 25.3068 7.55435C25.3064 7.55377 25.3057 7.55285 25.3049 7.55167L26.2354 6.91422ZM26.2197 6.89175L27.1633 6.274L27.0745 6.13826L26.1309 6.75601L25.1873 7.37377L25.2761 7.50951L26.2197 6.89175ZM26.1309 6.75601L25.1841 7.36887C25.2184 7.4219 25.2603 7.48644 25.3047 7.55138L26.2354 6.91422L27.166 6.27705C27.1399 6.23892 27.1123 6.19665 27.0777 6.14315L26.1309 6.75601ZM25.7832 6.25406L24.8685 6.91379L24.9847 7.07492L25.8994 6.41519L26.8142 5.75546L26.698 5.59433L25.7832 6.25406ZM25.8994 6.41519L26.794 5.72839C26.7656 5.69141 26.7385 5.6545 26.7134 5.61768L25.7822 6.25406L24.8511 6.89044C24.905 6.96926 24.9576 7.04045 25.0048 7.102L25.8994 6.41519ZM25.7822 6.25406L26.7337 5.64855L26.6175 5.46593L25.666 6.07144L24.7145 6.67695L24.8307 6.85957L25.7822 6.25406ZM25.666 6.07144L24.6959 6.64665C24.7494 6.73698 24.8034 6.81937 24.8523 6.89082L25.7832 6.25406L26.7141 5.6173C26.6838 5.57305 26.658 5.53306 26.6361 5.49624L25.666 6.07144Z" fill="#3F3F3F" mask="url(#path-1-inside-1_1395_890)"/>
</svg>
