<svg width="34" height="27" viewBox="0 0 34 27" fill="none" xmlns="http://www.w3.org/2000/svg">
<g filter="url(#filter0_d_1617_2302)">
<path d="M19.4946 0.785854C23.1162 1.09851 26.258 3.8907 27.3762 5.24772C27.8538 6.06192 29.2651 7.5275 28.2881 11.1752C27.311 14.8228 23.012 16.6791 20.602 17.3631C20.1356 17.539 19.2964 17.7149 18.125 17.7668M19.4946 0.785854C14.9676 0.395034 12.3947 0.590443 8.29113 2.80509C4.48063 4.75919 4.57833 8.73253 4.64347 9.64443C4.64347 10.6215 6.08951 15.4611 11.092 16.842C12.8019 17.314 14.3208 17.5745 15.625 17.6957M19.4946 0.785854C20.8714 4.46725 22.525 13.0174 18.125 17.7668M18.125 17.7668C17.4118 17.7984 16.5754 17.784 15.625 17.6957M15.125 0.703537C16.7917 3.53164 19.225 10.8894 15.625 17.6957" stroke="#3F3F3F" stroke-width="1.25" shape-rendering="crispEdges"/>
</g>
<defs>
<filter id="filter0_d_1617_2302" x="0" y="0" width="33.25" height="26.4071" filterUnits="userSpaceOnUse" color-interpolation-filters="sRGB">
<feFlood flood-opacity="0" result="BackgroundImageFix"/>
<feColorMatrix in="SourceAlpha" type="matrix" values="0 0 0 0 0 0 0 0 0 0 0 0 0 0 0 0 0 0 127 0" result="hardAlpha"/>
<feOffset dy="4"/>
<feGaussianBlur stdDeviation="2"/>
<feComposite in2="hardAlpha" operator="out"/>
<feColorMatrix type="matrix" values="0 0 0 0 0 0 0 0 0 0 0 0 0 0 0 0 0 0 0.25 0"/>
<feBlend mode="normal" in2="BackgroundImageFix" result="effect1_dropShadow_1617_2302"/>
<feBlend mode="normal" in="SourceGraphic" in2="effect1_dropShadow_1617_2302" result="shape"/>
</filter>
</defs>
</svg>
